<svg width="44" height="44" viewBox="0 0 44 44" fill="none" xmlns="http://www.w3.org/2000/svg">
<ellipse cx="31.5" cy="24.5" rx="3.5" ry="3.5" fill="#8083FF"/>
<path d="M12.1602 8.00317L36.5 8.50024L36.6602 9.00317L37.1602 11.5032L12.1602 12.0032V8.00317Z" fill="#8083FF"/>
<path d="M11.5854 8.58878C11.7629 8.57761 11.9308 8.56824 12.0874 8.56038C11.7143 8.95375 11.5365 9.46134 11.5416 9.95747C11.5512 10.9051 12.211 11.7526 13.2614 11.9545C13.222 12.023 13.1798 12.0909 13.1374 12.1555C13.0863 12.2335 13.0403 12.2983 13.0079 12.3426C12.9953 12.3598 12.985 12.3737 12.9774 12.3837L6.74348 19.4544L3.75 20.7693V13.75C3.75 12.1442 4.62953 9.62339 7.54555 9.07204C9.0103 8.79736 10.4777 8.65849 11.5854 8.58878Z" fill="#26E0AC" stroke="#252525" stroke-width="2"/>
<path d="M14.1967 7.93739L30.1751 5.20946L30.1831 5.20808L30.1912 5.20657C30.8112 5.09026 31.4483 5.1007 32.0641 5.23728C32.68 5.37385 33.2618 5.63372 33.7744 6.00122C34.2871 6.36872 34.7201 6.83624 35.0472 7.37559L35.9022 6.85701L35.0472 7.37559C35.1569 7.55649 35.254 7.74421 35.3379 7.93739H14.1967ZM8.2077 11.9999C8.20784 11.9999 8.20798 11.9999 8.20812 11.9999H35.7059C35.7061 11.9999 35.7062 11.9999 35.7064 11.9999C36.8996 12.0013 38.0435 12.4759 38.8873 13.3197C39.7311 14.1635 40.2057 15.3076 40.207 16.501V32.9988C40.2057 34.1922 39.7311 35.3363 38.8873 36.1801C38.0434 37.0239 36.8993 37.4986 35.7059 37.4999H8.20812C7.01476 37.4986 5.87065 37.0239 5.02681 36.1801C4.1831 35.3364 3.70847 34.1925 3.70703 32.9993V16.5005C3.70847 15.3073 4.1831 14.1634 5.02681 13.3197C5.87055 12.4759 7.01449 12.0013 8.2077 11.9999ZM29.5416 27.8679C30.1583 28.28 30.8833 28.4999 31.625 28.4999C32.6196 28.4999 33.5734 28.1048 34.2766 27.4015C34.9799 26.6983 35.375 25.7444 35.375 24.7499C35.375 24.0082 35.1551 23.2832 34.743 22.6665C34.331 22.0498 33.7453 21.5692 33.0601 21.2853C32.3748 21.0015 31.6208 20.9272 30.8934 21.0719C30.166 21.2166 29.4978 21.5738 28.9733 22.0982C28.4489 22.6227 28.0917 23.2909 27.9471 24.0183C27.8024 24.7457 27.8766 25.4997 28.1605 26.185C28.4443 26.8702 28.9249 27.4558 29.5416 27.8679Z" fill="#26E0AC" stroke="#252525" stroke-width="2"/>
</svg>
