<svg width="500" height="500" viewBox="0 0 500 500" fill="none" xmlns="http://www.w3.org/2000/svg">
<path d="M458.33 293.72C463.008 272.132 460.988 249.63 452.54 229.22C440.99 200.66 416.18 180.37 388.37 168.53C348 151.32 308.3 151 275.46 117.28C265.33 106.88 256.82 94.97 246.46 84.79C215.94 54.79 171.26 58.39 137.91 82.21C68.3202 131.9 43.2902 230.32 47.1602 311.68C48.9002 348.19 66.3302 382.17 93.9202 406.13C156.32 460.31 262.28 451.19 333.92 422.91C387.41 401.82 445.78 352.62 458.33 293.72Z" fill="#8083FF"/>
<path opacity="0.7" d="M458.33 293.72C463.008 272.132 460.988 249.63 452.54 229.22C440.99 200.66 416.18 180.37 388.37 168.53C348 151.32 308.3 151 275.46 117.28C265.33 106.88 256.82 94.97 246.46 84.79C215.94 54.79 171.26 58.39 137.91 82.21C68.3202 131.9 43.2902 230.32 47.1602 311.68C48.9002 348.19 66.3302 382.17 93.9202 406.13C156.32 460.31 262.28 451.19 333.92 422.91C387.41 401.82 445.78 352.62 458.33 293.72Z" fill="white"/>
<path d="M386.609 269.68C391.329 264.29 406.139 277.99 406.139 277.99C401.689 265.52 390.139 259.1 387.229 247.61C384.319 236.12 392.789 230.55 396.119 243.39C399.449 256.23 408.919 271.26 408.919 271.26C402.919 250.59 401.179 216.09 408.599 216.09C414.409 216.09 414.519 224.03 412.859 238.09C411.199 252.15 414.859 272.56 414.859 272.56C414.859 272.56 418.009 249.8 422.159 245.41C426.309 241.02 433.219 242.41 425.469 259.96C420.749 270.69 419.339 282.4 418.969 290.19H407.739C404.647 284.155 399.692 279.277 393.609 276.28C390.679 274.91 383.949 272.72 386.609 269.68Z" stroke="#263238" stroke-linecap="round" stroke-linejoin="round"/>
<path d="M413.479 290.22C410.969 272.15 406.979 253.22 408.129 234.49" stroke="#263238" stroke-linecap="round" stroke-linejoin="round"/>
<path d="M421.54 259.11C417.34 268.62 415.73 279.92 414.93 290.22" stroke="#263238" stroke-linecap="round" stroke-linejoin="round"/>
<path d="M393.129 250.59C393.129 250.59 402.779 271 411.609 278.76" stroke="#263238" stroke-linecap="round" stroke-linejoin="round"/>
<path d="M393.129 272.53C393.129 272.53 409.439 283.78 413.439 290.22" stroke="#263238" stroke-linecap="round" stroke-linejoin="round"/>
<path d="M392.069 290.22H437.489L433.969 338.52H395.589L392.069 290.22Z" stroke="#263238" stroke-linecap="round" stroke-linejoin="round"/>
<path d="M397.889 249C399.419 246.4 402.539 246.66 404.649 248.89" stroke="#263238" stroke-linecap="round" stroke-linejoin="round"/>
<path d="M420.95 274.51C420.95 274.51 429.72 260.61 433.06 247.77C436.4 234.93 444.92 240.49 441.95 251.98C438.98 263.47 427.49 269.89 423 282.36C423 282.36 437.8 268.66 442.53 274.06C445.19 277.06 438.46 279.29 435.53 280.69C430.959 282.824 427.021 286.108 424.1 290.22H408.1" stroke="#263238" stroke-linecap="round" stroke-linejoin="round"/>
<path d="M413.78 225.88C415.25 221.06 417.21 219.56 420.58 220.46C425.15 221.69 421.86 234.12 420.16 249" stroke="#263238" stroke-linecap="round" stroke-linejoin="round"/>
<path d="M454.22 338.52H44.0297" stroke="#263238" stroke-linecap="round" stroke-linejoin="round"/>
<path d="M273.07 235.24V77.48H259.66" stroke="#263238" stroke-linecap="round" stroke-linejoin="round"/>
<path d="M273.07 261.03V255.28" stroke="#263238" stroke-linecap="round" stroke-linejoin="round"/>
<path d="M225.15 77.48H86.7403V281.22H273.07" stroke="#263238" stroke-linecap="round" stroke-linejoin="round"/>
<path d="M242.13 77.48H229.96" stroke="#263238" stroke-linecap="round" stroke-linejoin="round"/>
<path d="M93.7405 84.48H266.061V274.24H93.7405V84.48Z" stroke="#263238" stroke-linecap="round" stroke-linejoin="round"/>
<path d="M101.761 97.79V171.6H258.051V164.86" stroke="#263238" stroke-linecap="round" stroke-linejoin="round"/>
<path d="M258.051 149.07V91.81H101.761" stroke="#263238" stroke-linecap="round" stroke-linejoin="round"/>
<path d="M258.051 159.69V153.14" stroke="#263238" stroke-linecap="round" stroke-linejoin="round"/>
<path d="M128.15 179.35H93.7404" stroke="#263238" stroke-linecap="round" stroke-linejoin="round"/>
<path d="M140.38 179.35H135.51" stroke="#263238" stroke-linecap="round" stroke-linejoin="round"/>
<path d="M266.061 179.35H146.201" stroke="#263238" stroke-linecap="round" stroke-linejoin="round"/>
<path d="M188.561 171.6V168.04H174.151V170.06H179.901V171.6" stroke="#263238" stroke-linecap="round" stroke-linejoin="round"/>
<path d="M265.761 243C265.761 243 263.381 244.81 261.701 255.76C261.701 255.76 258.801 238.27 255.291 238C251.781 237.73 252.501 249.38 252.501 249.38C252.501 249.38 251.921 243.64 249.171 243.9C246.421 244.16 249.171 255.76 249.171 255.76C249.171 255.76 245.871 246.76 242.751 246.88C239.631 247 244.821 263.25 244.821 263.25C244.821 263.25 236.821 257.45 233.571 260.25C230.321 263.05 235.371 270.25 235.371 270.25C235.371 270.25 223.881 267.76 222.091 274.5" stroke="#263238" stroke-linecap="round" stroke-linejoin="round"/>
<path d="M222.09 268C222.09 268 217.09 264.72 213.15 266.25C213.15 266.25 215.65 262.43 213.15 260.1C210.65 257.77 207.42 266.25 207.42 266.25C207.42 266.25 207.07 252.04 202.06 252.75C197.05 253.46 202.06 266.25 202.06 266.25C202.06 266.25 193.11 258.32 190.97 261.08C188.83 263.84 192.4 268 192.4 268C192.4 268 187.03 266.29 183.1 270.28C183.1 270.28 177.1 264.17 170.44 263.28C170.44 263.28 174.87 250.42 172.72 247.82C170.57 245.22 166.67 259 166.67 259C166.67 259 164.97 250 159.38 249.32C159.38 249.32 164.03 246.78 162.65 242.94C161.27 239.1 154.83 243.84 154.83 243.84C154.83 243.84 157.48 237.09 153.29 235.23C149.1 233.37 147.36 240.89 147.36 240.89C147.36 240.89 146.2 233.02 141.27 233.45C136.34 233.88 137.95 242.94 137.95 242.94C137.95 242.94 133.31 235.74 130.82 236.48C125.82 237.94 127.36 249.32 127.36 249.32C127.36 249.32 120.43 244.5 118.65 246.72C116.72 249.11 125.85 255.27 125.85 255.27C125.85 255.27 118.98 256.03 114.7 260.04" stroke="#263238" stroke-linecap="round" stroke-linejoin="round"/>
<path d="M93.7403 245.55C93.7403 245.55 94.5303 238.33 101.74 237.95C108.95 237.57 99.7403 253.78 99.7403 253.78C99.7403 253.78 105.74 248.86 107.83 250.37C109.92 251.88 101.73 260.24 101.73 260.24C101.73 260.24 105.68 256.58 109.86 257.71C114.04 258.84 107.47 270.46 107.47 270.46C113.66 269.217 120.085 269.969 125.82 272.61" stroke="#263238" stroke-linecap="round" stroke-linejoin="round"/>
<path d="M372.76 122.04V137.82" stroke="#263238" stroke-linecap="round" stroke-linejoin="round"/>
<path d="M372.76 105.93V119.35" stroke="#263238" stroke-linecap="round" stroke-linejoin="round"/>
<path d="M372.76 90.5V100.47" stroke="#263238" stroke-linecap="round" stroke-linejoin="round"/>
<path d="M358.06 159.36C359.19 147.56 365.34 138.53 372.76 138.53C380.18 138.53 386.32 147.53 387.45 159.36H358.06Z" stroke="#263238" stroke-linecap="round" stroke-linejoin="round"/>
<path d="M338.83 102.59V137.82" stroke="#263238" stroke-linecap="round" stroke-linejoin="round"/>
<path d="M338.83 91.29V98.97" stroke="#263238" stroke-linecap="round" stroke-linejoin="round"/>
<path d="M324.13 159.36C325.27 147.56 331.41 138.53 338.83 138.53C346.25 138.53 352.39 147.53 353.53 159.36H324.13Z" stroke="#263238" stroke-linecap="round" stroke-linejoin="round"/>
<path d="M304.9 129.93V137.82" stroke="#263238" stroke-linecap="round" stroke-linejoin="round"/>
<path d="M304.9 96.53V126.97" stroke="#263238" stroke-linecap="round" stroke-linejoin="round"/>
<path d="M304.9 83.46V88.79" stroke="#263238" stroke-linecap="round" stroke-linejoin="round"/>
<path d="M290.211 159.36C291.341 147.56 297.491 138.53 304.901 138.53C312.311 138.53 318.471 147.53 319.601 159.36H290.211Z" stroke="#263238" stroke-linecap="round" stroke-linejoin="round"/>
<path d="M338.83 86.12V85.02" stroke="#263238" stroke-linecap="round" stroke-linejoin="round"/>
<path d="M274.66 363.73C274.66 363.73 289.3 365.91 297.36 372.62C305.42 379.33 306.36 383.52 306.36 383.52H214.88C214.88 383.52 233.41 365.52 242.18 362.91C250.95 360.3 274.66 363.73 274.66 363.73Z" fill="#26E0AC"/>
<path opacity="0.3" d="M274.66 363.73C274.66 363.73 289.3 365.91 297.36 372.62C305.42 379.33 306.36 383.52 306.36 383.52H214.88C214.88 383.52 233.41 365.52 242.18 362.91C250.95 360.3 274.66 363.73 274.66 363.73Z" fill="black" fill-opacity="0.7"/>
<path d="M274.66 363.73C274.66 363.73 289.3 365.91 297.36 372.62C305.42 379.33 306.36 383.52 306.36 383.52H214.88C214.88 383.52 233.41 365.52 242.18 362.91C250.95 360.3 274.66 363.73 274.66 363.73Z" stroke="#263238" stroke-linecap="round" stroke-linejoin="round"/>
<path opacity="0.2" d="M280.87 366L287.36 373.3L276.36 369.65L270.9 377.78L264.65 372.1C264.65 372.1 259.5 379.26 259.21 379.3C258.92 379.34 239.79 367.92 242.21 364.72C244.63 361.52 270.58 361.18 280.87 366Z" fill="black" fill-opacity="0.7"/>
<path d="M259.21 357C267.65 357 281.9 363.47 285.86 370.23L276.36 366.01L270.9 371L261.68 367.74C261.68 367.74 259.68 375.11 258.53 375.04C257.38 374.97 242.53 365.8 241.22 364.04C239.91 362.28 243.28 356.93 259.21 357Z" fill="#26E0AC"/>
<path opacity="0.3" d="M259.21 357C267.65 357 281.9 363.47 285.86 370.23L276.36 366.01L270.9 371L261.68 367.74C261.68 367.74 259.68 375.11 258.53 375.04C257.38 374.97 242.53 365.8 241.22 364.04C239.91 362.28 243.28 356.93 259.21 357Z" fill="black" fill-opacity="0.7"/>
<path d="M259.21 357C267.65 357 281.9 363.47 285.86 370.23L276.36 366.01L270.9 371L261.68 367.74C261.68 367.74 259.68 375.11 258.53 375.04C257.38 374.97 242.53 365.8 241.22 364.04C239.91 362.28 243.28 356.93 259.21 357Z" stroke="#263238" stroke-linecap="round" stroke-linejoin="round"/>
<path d="M242.231 345.05C242.231 345.05 246.981 349.65 246.981 360.54L269.201 366.94C271.121 364.94 271.901 361.94 272.201 359.19C272.414 356.786 272.337 354.365 271.971 351.98L271.081 351.77L242.231 345.05Z" fill="white" stroke="#263238" stroke-linecap="round" stroke-linejoin="round"/>
<path d="M251.771 351.66C251.771 351.66 258.131 363.13 272.151 359.19C272.364 356.786 272.287 354.365 271.921 351.98L271.031 351.77C262.671 351.19 251.771 351.66 251.771 351.66Z" fill="#263238"/>
<path d="M241.22 344.78C231.38 327.89 226.05 295.84 263.29 298.18C278.52 299.13 287.51 330.02 283.41 345.42C279.31 360.82 256.58 356.91 250 351.66" fill="white"/>
<path d="M241.22 344.78C231.38 327.89 226.05 295.84 263.29 298.18C278.52 299.13 287.51 330.02 283.41 345.42C279.31 360.82 256.58 356.91 250 351.66" stroke="#263238" stroke-linecap="round" stroke-linejoin="round"/>
<path d="M278.431 317.38C277.591 316.237 276.402 315.398 275.044 314.99C273.685 314.582 272.231 314.628 270.901 315.12" stroke="#263238" stroke-width="2" stroke-linecap="round" stroke-linejoin="round"/>
<path d="M259.21 316.72C257.691 316.471 256.133 316.739 254.784 317.481C253.435 318.222 252.374 319.394 251.77 320.81" stroke="#263238" stroke-width="2" stroke-linecap="round" stroke-linejoin="round"/>
<path d="M257 327.31C257.37 328.65 258.34 329.54 259.17 329.31C260 329.08 260.37 327.81 260 326.48C259.63 325.15 258.66 324.25 257.83 324.48C257 324.71 256.66 326 257 327.31Z" fill="#263238"/>
<path d="M273.161 324.86C273.531 326.2 274.511 327.09 275.331 326.86C276.151 326.63 276.531 325.36 276.161 324.03C275.791 322.7 274.821 321.8 273.991 322.03C273.161 322.26 272.791 323.53 273.161 324.86Z" fill="#263238"/>
<path d="M270.901 326.9C270.901 326.9 274.721 329.44 275.321 329.04C275.921 328.64 276.701 329.52 276.601 330.86C276.501 332.2 274.601 333.79 273.761 333.99" fill="white"/>
<path d="M270.901 326.9C270.901 326.9 274.721 329.44 275.321 329.04C275.921 328.64 276.701 329.52 276.601 330.86C276.501 332.2 274.601 333.79 273.761 333.99" stroke="#263238" stroke-linecap="round" stroke-linejoin="round"/>
<path d="M274.66 338.24C272.87 338.7 271.4 342.84 273.76 344.24C276.12 345.64 277.77 337.45 274.66 338.24Z" fill="white" stroke="#263238" stroke-linecap="round" stroke-linejoin="round"/>
<path d="M260.28 293.84C268.28 294.31 280.56 301.66 279.67 312.04L277.2 311.35C277.2 311.35 276.05 306.45 273.76 305.09C274.394 306.974 274.629 308.97 274.45 310.95C274.45 310.95 272.51 306.45 270.9 305.09C271.454 307.14 271.454 309.3 270.9 311.35L266.12 311.25C265.028 308.888 263.442 306.788 261.47 305.09C261.47 305.09 262.26 309.86 261.47 312.09C261.47 312.09 260.47 307.09 259.21 305.66C259.21 305.66 257.32 311.73 253.56 314.73C249.8 317.73 247.11 318.22 247.11 318.22C246.216 320.153 245.687 322.235 245.55 324.36C245.45 327.52 246.64 336.22 246.64 336.22C246.64 336.22 241.97 330.05 240.9 330.59C237.39 332.32 239.96 343.59 244.58 349.79C244.068 350.042 243.505 350.174 242.935 350.174C242.365 350.174 241.802 350.042 241.29 349.79C239.81 348.88 231.66 338.65 229.41 325.5C227.16 312.35 238.43 292.56 260.28 293.84Z" fill="#263238"/>
<path d="M242.581 333.5C241.791 332.71 240.311 331.5 238.581 332.91C236.851 334.32 235.321 336.57 237.101 341.12C238.881 345.67 244.021 350.51 245.311 349.33C246.601 348.15 245.801 345.71 245.801 345.71" fill="white"/>
<path d="M242.581 333.5C241.791 332.71 240.311 331.5 238.581 332.91C236.851 334.32 235.321 336.57 237.101 341.12C238.881 345.67 244.021 350.51 245.311 349.33C246.601 348.15 245.801 345.71 245.801 345.71" stroke="#263238" stroke-linecap="round" stroke-linejoin="round"/>
<g opacity="0.3">
<path opacity="0.3" d="M248.79 310C247.79 310.973 246.621 311.756 245.34 312.31" stroke="white" stroke-linecap="round" stroke-linejoin="round"/>
<path opacity="0.3" d="M254.47 298.85C253.859 302.359 252.381 305.659 250.17 308.45" stroke="white" stroke-linecap="round" stroke-linejoin="round"/>
<path opacity="0.3" d="M264.45 302.86C265.036 303.913 265.586 304.983 266.1 306.07" stroke="white" stroke-linecap="round" stroke-linejoin="round"/>
<path opacity="0.3" d="M261 298.06C261.893 298.903 262.67 299.861 263.31 300.91" stroke="white" stroke-linecap="round" stroke-linejoin="round"/>
<path opacity="0.3" d="M263.53 297.07C263.53 297.07 269.24 297.47 271.71 302.07" stroke="white" stroke-linecap="round" stroke-linejoin="round"/>
</g>
<path d="M247.82 295.61C247.82 295.61 228.47 306.77 230.73 330.98C229.205 327.504 228.418 323.75 228.418 319.955C228.418 316.16 229.205 312.406 230.73 308.93C237.32 293.89 247.82 295.61 247.82 295.61Z" fill="#26E0AC" stroke="#263238" stroke-linecap="round" stroke-linejoin="round"/>
<path d="M36.5204 383.52H457.44" stroke="#263238" stroke-linecap="round" stroke-linejoin="round"/>
<path d="M186.161 237.29C188.511 238.21 212.631 254.91 217.451 259.85C222.271 264.79 224.701 348.85 228.081 360.21C231.461 371.57 214.671 381.26 205.551 382.55C196.431 383.84 185.031 384.9 182.711 378.46C180.391 372.02 182.711 341.3 182.711 341.3C182.711 341.3 160.711 372.23 159.611 383.52H47.6806C47.6806 383.52 69.0007 267.92 80.4707 255.25C99.7307 233.99 145.711 214.17 145.711 214.17L186.161 237.29Z" fill="white"/>
<path opacity="0.2" d="M47.6806 383.52H159.571C159.881 380.3 161.911 375.52 164.641 370.21C171.451 357.08 182.641 341.3 182.641 341.3C182.641 341.3 180.371 372.02 182.641 378.46C184.911 384.9 196.361 383.83 205.481 382.55C214.601 381.27 231.381 371.6 228.011 360.21C227.206 356.642 226.671 353.018 226.411 349.37C223.761 323.31 221.411 263.98 217.411 259.85C213.411 255.72 195.461 243.09 188.621 238.75C187.821 238.207 186.986 237.719 186.121 237.29L145.671 214.17C145.671 214.17 138.191 217.39 127.991 222.65C112.921 230.4 91.9206 242.57 80.4306 255.25C68.9406 267.93 47.6806 383.52 47.6806 383.52Z" fill="#26E0AC"/>
<path opacity="0.2" d="M182.671 341.3C182.671 341.3 180.401 372.02 182.671 378.46C184.941 384.9 196.391 383.83 205.511 382.55C214.631 381.27 231.411 371.6 228.041 360.21C227.236 356.642 226.701 353.018 226.441 349.37C216.501 343.46 202.931 344.8 202.931 344.8L198.761 325.05C204.521 321.64 210.761 300.25 210.761 300.25L203.001 308C214.001 295.42 210.221 276 210.221 276C210.221 276 198.081 291 188.601 305.13C182.471 314.27 169.391 346.44 164.671 370.2C171.451 357.08 182.671 341.3 182.671 341.3Z" fill="black" fill-opacity="0.7"/>
<path opacity="0.2" d="M146.631 263.84L158.631 257.66L163.311 267.61L173.001 257.19L179.281 262.67C185.771 253.78 188.541 245.76 188.661 238.75C187.862 238.207 187.027 237.719 186.161 237.29L145.711 214.17C145.711 214.17 138.231 217.39 128.031 222.65C125.511 250.11 146.631 263.84 146.631 263.84Z" fill="black" fill-opacity="0.7"/>
<path opacity="0.2" d="M78.5809 312.5C78.5809 312.5 74.1009 326.98 85.7009 341.3C97.3009 355.62 124.211 340 132.651 311.3C141.091 282.6 122.101 260.74 115.511 262.69C108.921 264.64 78.5809 312.5 78.5809 312.5Z" fill="black" fill-opacity="0.7"/>
<path d="M186.161 237.29C188.511 238.21 212.631 254.91 217.451 259.85C222.271 264.79 224.701 348.85 228.081 360.21C231.461 371.57 214.671 381.26 205.551 382.55C196.431 383.84 185.031 384.9 182.711 378.46C180.391 372.02 182.711 341.3 182.711 341.3C182.711 341.3 160.711 372.23 159.611 383.52H47.6806C47.6806 383.52 69.0007 267.92 80.4707 255.25C99.7307 233.99 145.711 214.17 145.711 214.17L186.161 237.29Z" stroke="#263238" stroke-linecap="round" stroke-linejoin="round"/>
<path d="M163.29 267.61C164.29 274.91 166.06 275.31 165.57 278.47C165.08 281.63 157.89 303.74 157.57 311.28C157.25 318.82 153.8 327.55 153.8 327.55" stroke="#263238" stroke-linecap="round" stroke-linejoin="round"/>
<path d="M212.721 280.41C213.801 277.41 214.901 274.21 214.931 271" stroke="#263238" stroke-linecap="round" stroke-linejoin="round"/>
<path d="M182.67 341.3C186 329 192 319 198 308C203 300 209 292 211.62 283.3" stroke="#263238" stroke-linecap="round" stroke-linejoin="round"/>
<path d="M211.721 297.61C211.721 297.61 204.721 312.2 194.221 314.52" stroke="#263238" stroke-linecap="round" stroke-linejoin="round"/>
<path d="M159.721 279.07C159.571 280.22 160.121 281.25 160.941 281.36C161.761 281.47 162.551 280.61 162.701 279.46C162.851 278.31 162.311 277.28 161.491 277.17C160.671 277.06 159.871 277.91 159.721 279.07Z" fill="#263238"/>
<path d="M78.8502 253.34C94.2702 234.96 114.19 226.76 119.66 227.1C125.13 227.44 155.3 266.32 158.61 285.25C158.61 285.25 184.03 261.81 186.16 237.25L210.16 253.14C210.16 253.14 210.16 289.39 193.07 323.96C193.07 323.96 176.14 356.07 172.71 383.48H43.9502C43.9502 383.48 63.4202 271.73 78.8502 253.34ZM85.7002 328.34C116.82 341.69 122.63 292.9 122.63 292.9C124.21 284.72 128.16 265.75 114.19 255.72C100.22 245.69 82.8002 252.28 78.3202 259.93C73.8402 267.58 54.5802 314.94 85.7002 328.29V328.34Z" fill="#26E0AC"/>
<g opacity="0.4">
<path opacity="0.4" d="M179.28 328.29L164.42 351.88L169.42 375.77L175.29 370.28C178.003 359.709 181.551 349.37 185.9 339.36L179.28 328.29Z" fill="white"/>
<path opacity="0.4" d="M160.341 332.46L144.421 354.9L149.381 375.77L164.421 351.88L160.341 332.46Z" fill="white"/>
<path opacity="0.4" d="M138.101 328.29L118.111 356.38L127.111 379.3L144.421 354.9L138.101 328.29Z" fill="white"/>
<path opacity="0.4" d="M111.59 339.79L95.8104 361.18L101.45 379.78L118.11 356.38L111.59 339.79Z" fill="white"/>
<path opacity="0.4" d="M88.0708 337.11L77.0708 353.11C80.0708 365.46 83.2308 378.29 83.2308 378.29L95.8408 361.2L88.5908 337.28L88.4108 336.68L88.0708 337.11Z" fill="white"/>
<path opacity="0.4" d="M54.74 348.88L60.25 377.44L77 353.09C74.35 342.09 71.9 331.39 72.08 330.6C72.26 329.81 64 338.81 54.74 348.88Z" fill="white"/>
<path opacity="0.4" d="M49.4102 354.71L54.7402 348.88L52.7402 338.51C51.5302 344.22 50.4102 349.68 49.4102 354.71Z" fill="white"/>
<path opacity="0.4" d="M78.8503 253.34C81.2426 250.489 83.8145 247.793 86.5502 245.27V245.27C92.3502 242.85 98.9403 242.69 106.13 245.76C123.5 253.18 137.39 267.61 127.13 306.08C120.01 332.71 104.31 341.85 88.5802 337.27L88.0902 337.13C81.2602 335.02 74.4502 330.34 68.3402 323.39C64.0602 318.52 61.6103 311.56 60.7603 303.76C66.4903 281 73.0003 260.37 78.8503 253.34ZM85.7003 328.34C116.82 341.69 122.63 292.9 122.63 292.9C124.21 284.72 128.16 265.75 114.19 255.72C100.22 245.69 82.8003 252.28 78.3203 259.93C73.8403 267.58 54.5803 314.94 85.7003 328.29V328.34Z" fill="white"/>
<path opacity="0.4" d="M196.53 316.52C204.859 296.401 209.486 274.943 210.19 253.18L206.52 250.76C204.63 265.16 200.24 297.45 196.53 316.52Z" fill="white"/>
<path opacity="0.4" d="M115.171 227.83C140.601 245.35 157.091 290.93 157.091 290.93C180.951 275.2 187.631 253.61 189.091 239.22L186.171 237.29C184.041 261.81 158.621 285.29 158.621 285.29C155.311 266.36 125.141 227.48 119.671 227.14C118.144 227.13 116.625 227.363 115.171 227.83Z" fill="white"/>
</g>
<path d="M78.8502 253.34C94.2702 234.96 114.19 226.76 119.66 227.1C125.13 227.44 155.3 266.32 158.61 285.25C158.61 285.25 184.03 261.81 186.16 237.25L210.16 253.14C210.16 253.14 210.16 289.39 193.07 323.96C193.07 323.96 176.14 356.07 172.71 383.48H43.9502C43.9502 383.48 63.4202 271.73 78.8502 253.34ZM85.7002 328.34C116.82 341.69 122.63 292.9 122.63 292.9C124.21 284.72 128.16 265.75 114.19 255.72C100.22 245.69 82.8002 252.28 78.3202 259.93C73.8402 267.58 54.5802 314.94 85.7002 328.29V328.34Z" stroke="#263238" stroke-linecap="round" stroke-linejoin="round"/>
<path d="M74.4907 324.36C74.4907 324.36 86.7607 337.42 102.191 336.63C117.621 335.84 136.001 301.83 125.131 266" stroke="#263238" stroke-linecap="round" stroke-linejoin="round"/>
<path d="M188.57 240.74C188.57 240.74 183.5 275.74 157.09 290.93C157.09 290.93 137.7 241.68 119.35 231" stroke="#263238" stroke-linecap="round" stroke-linejoin="round"/>
<path d="M207.471 253.34C207.471 253.34 204.571 292.93 196.861 312.5" stroke="#263238" stroke-linecap="round" stroke-linejoin="round"/>
<path d="M140.07 312.5C140.07 312.5 151.95 344.42 174.94 352.79" stroke="#263238" stroke-linecap="round" stroke-linejoin="round"/>
<path d="M72.1206 341.3C72.1206 341.3 79.1206 367.72 119.351 371.36" stroke="#263238" stroke-linecap="round" stroke-linejoin="round"/>
<path d="M148.78 212.24C148.78 212.24 139.92 213.03 135.39 217.63C130.86 222.23 130.05 224.63 130.05 224.63C130.05 224.63 134.74 247.63 141.1 260.81L152.1 249.81L161.34 255.33L163.34 267.69C163.34 267.69 166.5 258.03 167.56 255.33C168.62 252.63 176.26 249.81 176.26 249.81L181.54 260.81C181.54 260.81 191.94 249.1 190.54 239.96C189.14 230.82 175.68 211 148.78 212.24Z" fill="white"/>
<path opacity="0.2" d="M148.78 212.24C148.78 212.24 139.92 213.03 135.39 217.63C130.86 222.23 130.05 224.63 130.05 224.63C130.05 224.63 134.74 247.63 141.1 260.81L152.1 249.81L161.34 255.33L163.34 267.69C163.34 267.69 166.5 258.03 167.56 255.33C168.62 252.63 176.26 249.81 176.26 249.81L181.54 260.81C181.54 260.81 191.94 249.1 190.54 239.96C189.14 230.82 175.68 211 148.78 212.24Z" fill="#26E0AC"/>
<path d="M148.78 212.24C148.78 212.24 139.92 213.03 135.39 217.63C130.86 222.23 130.05 224.63 130.05 224.63C130.05 224.63 134.74 247.63 141.1 260.81L152.1 249.81L161.34 255.33L163.34 267.69C163.34 267.69 166.5 258.03 167.56 255.33C168.62 252.63 176.26 249.81 176.26 249.81L181.54 260.81C181.54 260.81 191.94 249.1 190.54 239.96C189.14 230.82 175.68 211 148.78 212.24Z" stroke="#263238" stroke-linecap="round" stroke-linejoin="round"/>
<path d="M142.571 217.78L160.901 248.35L162.551 255.67L166.161 249.47C167.502 248.861 168.787 248.134 170.001 247.3C173.114 245.055 175.927 242.42 178.371 239.46C180.471 237.04 182.441 234.46 184.371 232.18C191.691 223.38 193.161 189.26 157.781 186.73C157.761 186.73 153.511 206.86 142.571 217.78Z" fill="white" stroke="#263238" stroke-linecap="round" stroke-linejoin="round"/>
<path d="M170 247.3C173.113 245.055 175.926 242.42 178.37 239.46C175.6 233.19 168.82 225.86 159.74 223.88C159.71 223.88 159 241.08 170 247.3Z" fill="#263238"/>
<path d="M169.48 151.41C169.48 151.41 168 149.84 164.48 151.86C160.96 153.88 160.67 159.94 160.67 159.94L169.48 151.41Z" fill="#26E0AC" stroke="#263238" stroke-linecap="round" stroke-linejoin="round"/>
<path d="M156.161 214.13L158.331 219.53C155.911 227.61 165.581 237.53 172.251 244.18C176.051 247.95 179.251 247.93 187.701 247.54C191.891 247.35 192.141 247.16 197.561 237.71C199.261 234.71 206.441 220.41 206.831 216.52C207.311 211.59 207.891 207.09 207.891 207.09C207.891 207.09 210.811 201.5 212.891 199.4C215.821 196.4 218.191 177.53 217.321 173.21C214.371 158.83 176.261 138.4 159.101 164.43C151.991 175.24 150.171 190.96 153.101 206.49" fill="white"/>
<path opacity="0.5" d="M156.16 214.13L158.33 219.53C155.91 227.61 165.58 237.53 172.25 244.18C176.05 247.95 179.25 247.93 187.7 247.54C191.89 247.35 192.14 247.16 197.56 237.71C199.26 234.71 206.44 220.41 206.83 216.52C206.83 216.52 203.83 222.88 201.42 225.52C201.42 225.52 198.51 222.91 195.01 223.43C195.01 223.43 186.59 217.43 184.76 216.85C182.93 216.27 175.32 216.45 172.35 216.03C169.38 215.61 164.6 207.16 165.25 205.83C165.9 204.5 167.54 198.83 167.54 198.83L162.36 201.83C159.742 205.628 157.656 209.766 156.16 214.13V214.13Z" fill="black" fill-opacity="0.7"/>
<path d="M156.161 214.13L158.331 219.53C155.911 227.61 165.581 237.53 172.251 244.18C176.051 247.95 179.251 247.93 187.701 247.54C191.891 247.35 192.141 247.16 197.561 237.71C199.261 234.71 206.441 220.41 206.831 216.52C207.311 211.59 207.891 207.09 207.891 207.09C207.891 207.09 210.811 201.5 212.891 199.4C215.821 196.4 218.191 177.53 217.321 173.21C214.371 158.83 176.261 138.4 159.101 164.43C151.991 175.24 150.171 190.96 153.101 206.49" stroke="#263238" stroke-linecap="round" stroke-linejoin="round"/>
<path d="M195.44 191.68C195.44 191.68 190.44 187.94 182.55 190.68" stroke="#263238" stroke-width="2" stroke-linecap="round" stroke-linejoin="round"/>
<path d="M207.651 195.94C207.651 195.94 212.741 194.53 213.851 197.94" stroke="#263238" stroke-width="2" stroke-linecap="round" stroke-linejoin="round"/>
<path d="M206.34 203.47C205.94 204.7 206.08 205.85 206.65 206.03C207.22 206.21 208 205.37 208.4 204.15C208.8 202.93 208.66 201.78 208.1 201.59C207.54 201.4 206.74 202.25 206.34 203.47Z" fill="#263238"/>
<path d="M189.36 199.28C188.96 200.5 189.09 201.65 189.66 201.83C190.23 202.01 191.01 201.17 191.41 199.95C191.81 198.73 191.68 197.58 191.11 197.39C190.54 197.2 189.76 198.05 189.36 199.28Z" fill="#263238"/>
<path d="M196.851 229C196.851 229 189.531 227.28 186.321 225.56C184.318 224.479 182.431 223.196 180.691 221.73C180.052 222.915 179.632 224.206 179.451 225.54C179.261 227.48 185.731 233.66 192.911 233.26C192.911 233.26 192.561 231.6 196.851 229Z" fill="white" stroke="#263238" stroke-linecap="round" stroke-linejoin="round"/>
<path d="M204.001 202.71C204.001 202.71 205.111 214.39 206.841 216.51C206.841 216.51 210.721 220.21 204.841 222.51C202.281 223.51 202.741 221.41 197.841 221.58C192.941 221.75 195.021 218.66 195.021 218.66" fill="white"/>
<path d="M204.001 202.71C204.001 202.71 205.111 214.39 206.841 216.51C206.841 216.51 210.721 220.21 204.841 222.51C202.281 223.51 202.741 221.41 197.841 221.58C192.941 221.75 195.021 218.66 195.021 218.66" stroke="#263238" stroke-linecap="round" stroke-linejoin="round"/>
<path d="M191.47 167C191.47 167 198.47 183.6 206.25 183.91C206.25 183.91 199.31 180.98 196.01 169.7C196.01 169.7 205.41 183.42 210.28 182.79C211.578 182.563 212.915 182.797 214.06 183.45C215.205 184.104 216.085 185.137 216.55 186.37C217.143 186.367 217.725 186.21 218.239 185.914C218.753 185.618 219.181 185.192 219.48 184.68C220.68 182.86 218.61 172.86 218.61 172.86C220.062 175.559 221.075 178.472 221.61 181.49C221.61 181.49 225.47 175.09 216.14 164.94C206.81 154.79 192.5 151.45 181.06 151.94C181.06 151.94 160.78 146.21 153.87 172.14C146.96 198.07 153.09 208.5 153.09 208.5C153.09 208.5 159.61 184.81 161.45 189.37C163.29 193.93 161.5 203.09 161.5 203.09L167.18 200C167.18 200 168.92 192.53 170.03 189.14C171.14 185.75 184.64 182.61 187.1 167.43C187.1 167.43 188.66 177.26 197.44 181.43C195.528 179.548 194.014 177.301 192.988 174.822C191.963 172.343 191.446 169.683 191.47 167Z" fill="#263238"/>
<path d="M160.761 192.39C161.561 189.95 158.761 182.28 153.481 185.1C146.631 188.75 146.731 199.32 148.481 202.78C150.231 206.24 153.481 210.64 154.891 210.32C156.301 210 157.251 207.2 157.251 207.2" fill="white"/>
<path d="M160.761 192.39C161.561 189.95 158.761 182.28 153.481 185.1C146.631 188.75 146.731 199.32 148.481 202.78C150.231 206.24 153.481 210.64 154.891 210.32C156.301 210 157.251 207.2 157.251 207.2" stroke="#263238" stroke-linecap="round" stroke-linejoin="round"/>
<path d="M152.561 173.36C152.143 174.671 151.809 176.007 151.561 177.36C151.411 178.18 151.311 178.93 151.241 179.61C151.089 180.938 151.066 182.278 151.171 183.61C151.221 184.12 151.271 184.38 151.271 184.38C171.781 151.3 202.131 155.38 202.131 155.38C201.667 154.596 201.109 153.871 200.471 153.22C199.842 152.569 199.152 151.979 198.411 151.46C197.981 151.15 197.531 150.86 197.071 150.59C195.593 149.739 194.018 149.067 192.381 148.59C182.001 145.4 166.951 147.93 159.121 159.78C156.283 163.962 154.073 168.538 152.561 173.36V173.36Z" fill="#26E0AC"/>
<path opacity="0.7" d="M151.27 179.58C151.118 180.908 151.095 182.248 151.2 183.58C152.84 178.71 156.49 174.2 168.85 163.66C182.36 152.13 196.19 152.66 200.5 153.17C199.871 152.519 199.181 151.929 198.44 151.41C192.38 151.12 179.95 152.09 167.81 162.41C158.08 170.78 153.63 175.36 151.27 179.58Z" fill="white"/>
<path opacity="0.7" d="M152.56 173.36C152.142 174.671 151.808 176.007 151.56 177.36C156.33 170.25 164.63 163.65 172.7 157.23L174.8 155.56C182.4 149.5 192.28 149.93 197.06 150.61C195.582 149.759 194.007 149.087 192.37 148.61C187 148.51 179.82 149.52 173.8 154.32L171.7 155.99C164.73 161.52 157.55 167.23 152.56 173.36Z" fill="white"/>
<path d="M152.561 173.36C152.143 174.671 151.809 176.007 151.561 177.36C151.411 178.18 151.311 178.93 151.241 179.61C151.089 180.938 151.066 182.278 151.171 183.61C151.221 184.12 151.271 184.38 151.271 184.38C171.781 151.3 202.131 155.38 202.131 155.38C201.667 154.596 201.109 153.871 200.471 153.22C199.842 152.569 199.152 151.979 198.411 151.46C197.981 151.15 197.531 150.86 197.071 150.59C195.593 149.739 194.018 149.067 192.381 148.59C182.001 145.4 166.951 147.93 159.121 159.78C156.283 163.962 154.073 168.538 152.561 173.36V173.36Z" stroke="#263238" stroke-linecap="round" stroke-linejoin="round"/>
<g opacity="0.3">
<path opacity="0.3" d="M173.94 178.47C172.412 179.275 170.74 179.774 169.02 179.94" stroke="white" stroke-linecap="round" stroke-linejoin="round"/>
<path opacity="0.3" d="M184.601 163.88C183.061 168.93 180.151 174.09 175.861 177.26" stroke="white" stroke-linecap="round" stroke-linejoin="round"/>
<path opacity="0.3" d="M200.24 169.51C202.448 172.131 205.359 174.067 208.63 175.09" stroke="white" stroke-linecap="round" stroke-linejoin="round"/>
<path opacity="0.3" d="M194.57 160.58C195.652 163.102 197.043 165.48 198.71 167.66" stroke="white" stroke-linecap="round" stroke-linejoin="round"/>
<path opacity="0.3" d="M210.5 167C211.866 167.529 213.316 167.81 214.78 167.83" stroke="white" stroke-linecap="round" stroke-linejoin="round"/>
<path opacity="0.3" d="M198.85 159.69C201.761 162.274 205.007 164.454 208.5 166.17" stroke="white" stroke-linecap="round" stroke-linejoin="round"/>
</g>
<path d="M219.24 361.68L237.35 363.43C237.35 363.43 252.51 356.75 254.47 355.43C256.43 354.11 260.02 357.55 260.47 358.2C260.92 358.85 267.64 360.98 267.64 360.98L269.76 369.29C269.76 369.29 274.49 373.37 274.49 374.51C274.346 375.784 274.074 377.04 273.68 378.26C273.68 378.26 276.78 383.48 276.61 385.11C276.44 386.74 268.13 387.56 268.13 387.56L267.64 385.93C267.64 385.93 247.42 387.93 240.57 385.44L213.98 384.44" fill="white"/>
<path d="M219.24 361.68L237.35 363.43C237.35 363.43 252.51 356.75 254.47 355.43C256.43 354.11 260.02 357.55 260.47 358.2C260.92 358.85 267.64 360.98 267.64 360.98L269.76 369.29C269.76 369.29 274.49 373.37 274.49 374.51C274.346 375.784 274.074 377.04 273.68 378.26C273.68 378.26 276.78 383.48 276.61 385.11C276.44 386.74 268.13 387.56 268.13 387.56L267.64 385.93C267.64 385.93 247.42 387.93 240.57 385.44L213.98 384.44" stroke="#263238" stroke-linecap="round" stroke-linejoin="round"/>
<path d="M273.721 378.27L270.131 374.69" stroke="#263238" stroke-linecap="round" stroke-linejoin="round"/>
<path d="M269.801 369.3L265.891 365.55" stroke="#263238" stroke-linecap="round" stroke-linejoin="round"/>
<path d="M254.471 355.44C257.471 355.77 258.061 359.35 258.061 359.35C258.061 359.35 261.811 359.6 262.461 361.68C262.832 363.221 262.832 364.829 262.461 366.37C262.461 366.37 266.381 367.06 265.891 369.98C265.401 372.9 265.161 374.36 265.891 375.83C266.621 377.3 264.541 380.07 264.541 380.07" stroke="#263238" stroke-linecap="round" stroke-linejoin="round"/>
<path d="M267.681 385.94C267.681 385.94 272.901 386.76 273.681 384.94" stroke="#263238" stroke-linecap="round" stroke-linejoin="round"/>
<path d="M113.701 257.19C121.621 266.54 140.541 317.19 147.171 326.14C153.801 335.09 162.561 345 162.561 345C162.561 345 211.821 353.28 216.561 354.33C221.301 355.38 225.561 359.13 225.561 359.13L232.941 359.45C232.941 359.45 242.531 375.3 233.641 388.01L225.561 387.61C225.561 387.61 222.391 390.79 216.061 391.02C209.731 391.25 164.06 392.29 154.36 392.83C144.66 393.37 114.58 388.34 109.83 375.03C105.08 361.72 77.8305 323.31 76.8305 311.26" fill="white"/>
<path opacity="0.2" d="M113.701 257.19C121.621 266.54 140.541 317.19 147.171 326.14C153.801 335.09 162.561 345 162.561 345C162.561 345 211.821 353.28 216.561 354.33C221.301 355.38 225.561 359.13 225.561 359.13L232.941 359.45C232.941 359.45 242.531 375.3 233.641 388.01L225.561 387.61C225.561 387.61 222.391 390.79 216.061 391.02C209.731 391.25 164.06 392.29 154.36 392.83C144.66 393.37 114.58 388.34 109.83 375.03C105.08 361.72 77.8305 323.31 76.8305 311.26" fill="#26E0AC"/>
<path d="M113.701 257.19C121.621 266.54 140.541 317.19 147.171 326.14C153.801 335.09 162.561 345 162.561 345C162.561 345 211.821 353.28 216.561 354.33C221.301 355.38 225.561 359.13 225.561 359.13L232.941 359.45C232.941 359.45 242.531 375.3 233.641 388.01L225.561 387.61C225.561 387.61 222.391 390.79 216.061 391.02C209.731 391.25 164.06 392.29 154.36 392.83C144.66 393.37 114.58 388.34 109.83 375.03C105.08 361.72 77.8305 323.31 76.8305 311.26" stroke="#263238" stroke-linecap="round" stroke-linejoin="round"/>
<path d="M228 371C228.021 373.802 227.63 376.592 226.84 379.28" stroke="#263238" stroke-linecap="round" stroke-linejoin="round"/>
<path d="M225.541 359.17C226.866 362.05 227.675 365.14 227.931 368.3" stroke="#263238" stroke-linecap="round" stroke-linejoin="round"/>
<path d="M162.561 345C162.561 345 154.051 349.42 153.761 353.82C153.471 358.22 151.411 344.23 153.761 343.18" stroke="#263238" stroke-linecap="round" stroke-linejoin="round"/>
<path d="M111.59 319.92C116.516 322.157 121.746 323.65 127.11 324.35" stroke="#263238" stroke-linecap="round" stroke-linejoin="round"/>
<path d="M78.0007 294.27C86.4659 304.263 96.8205 312.487 108.471 318.47" stroke="#263238" stroke-linecap="round" stroke-linejoin="round"/>
<path d="M166.601 384.82C164.312 385.077 162.004 385.103 159.711 384.9" stroke="#263238" stroke-linecap="round" stroke-linejoin="round"/>
<path d="M198.801 373.47C189.801 378.58 179.691 382.75 169.451 384.47" stroke="#263238" stroke-linecap="round" stroke-linejoin="round"/>
<path d="M315.15 383.52H439.9C439.9 383.52 429.84 354.52 421.9 337.21C419.07 331.06 416.49 326.39 414.74 325.05C409.16 320.79 395.22 317.37 384.49 316.21C381.862 315.904 379.217 315.764 376.57 315.79C369.04 315.97 361.01 318.45 353.57 321.79C338.74 328.49 326.2 338.69 324.44 341.27C321.75 345.18 315.15 383.52 315.15 383.52Z" fill="#BFBFBF"/>
<path opacity="0.2" d="M387.42 356.81C387.42 356.81 396.84 372.15 410 383.52H439.9C439.9 383.52 429.84 354.52 421.9 337.21C408 342 387.42 356.81 387.42 356.81Z" fill="black" fill-opacity="0.7"/>
<path opacity="0.2" d="M325.181 383.52H339.431C335.291 378.27 330.971 371.71 329.151 365.33C329.151 365.33 323.461 375.11 325.181 383.52Z" fill="black" fill-opacity="0.7"/>
<path opacity="0.2" d="M345.74 357.4C345.74 357.4 354.19 356.67 356.3 357.4C358.41 358.13 361.3 364.05 361.3 364.05C363.88 359.84 363.62 353.52 363.62 353.52L370 355.75C390.31 332.99 390.09 320.35 384.45 316.21C381.822 315.904 379.176 315.764 376.53 315.79C369 315.97 360.97 318.45 353.53 321.79C351.418 323.504 349.482 325.423 347.75 327.52C333.35 344.84 345.74 357.4 345.74 357.4Z" fill="black" fill-opacity="0.7"/>
<path d="M315.15 383.52H439.9C439.9 383.52 429.84 354.52 421.9 337.21C419.07 331.06 416.49 326.39 414.74 325.05C409.16 320.79 395.22 317.37 384.49 316.21C381.862 315.904 379.217 315.764 376.57 315.79C369.04 315.97 361.01 318.45 353.57 321.79C338.74 328.49 326.2 338.69 324.44 341.27C321.75 345.18 315.15 383.52 315.15 383.52Z" stroke="#263238" stroke-linecap="round" stroke-linejoin="round"/>
<path d="M371.54 312.5C371.54 312.5 380.69 313.15 385.44 318.36C390.19 323.57 371.54 347.31 371.54 347.31L364.47 341.31L358.11 355.45L349.44 341.31L343.7 346.92C343.7 346.92 334.3 322.39 371.54 312.5Z" fill="#BFBFBF" stroke="#263238" stroke-linecap="round" stroke-linejoin="round"/>
<path d="M339.68 321.79C343.76 328.71 346.96 334.08 349.68 337.03C350.245 337.669 350.879 338.242 351.57 338.74L358.13 351.66L362 337.55C372.67 331.21 376.57 318.3 376.57 318.3C368.46 312.43 369.65 302.8 369.65 302.8L340.81 321.09L339.68 321.79Z" fill="white" stroke="#263238" stroke-linecap="round" stroke-linejoin="round"/>
<path d="M339.681 321.79C343.761 328.71 346.961 334.08 349.681 337.03C360.811 331.19 358.131 317.61 358.131 317.61C358.131 317.61 350.001 319.26 340.801 321.09L339.681 321.79Z" fill="#263238"/>
<path d="M413.14 324C413.14 324 398.79 331.12 395.33 343.75C389.59 364.75 430.74 374.69 430.74 374.69C430.74 374.69 451.12 372.47 453.09 365.55C459.46 343.15 438 333.74 413.14 324Z" fill="#BFBFBF" stroke="#263238" stroke-linecap="round" stroke-linejoin="round"/>
<path d="M400.34 361.68C400.34 361.68 406.45 373.31 422.49 376.48" stroke="#263238" stroke-linecap="round" stroke-linejoin="round"/>
<path d="M358.11 355.44C361.57 360.63 361.57 362.57 361.04 365.55C360.51 368.53 366.32 376.48 366.32 376.48" stroke="#263238" stroke-linecap="round" stroke-linejoin="round"/>
<path d="M329.151 364.05C329.151 364.05 330.981 377.66 340.341 383.52" stroke="#263238" stroke-linecap="round" stroke-linejoin="round"/>
<path d="M326.711 373.79C327.948 375.825 329.589 377.584 331.532 378.96C333.476 380.336 335.681 381.299 338.011 381.79" stroke="#263238" stroke-linecap="round" stroke-linejoin="round"/>
<path d="M370.93 307.09C374.93 295.61 381.88 267.68 359.33 255.67C346.27 248.67 316.21 258.39 313.44 271C310.67 283.61 319.97 325.29 329.86 332.41C336.86 337.48 359.86 327.13 360.52 317.51" fill="white"/>
<path d="M370.93 307.09C374.93 295.61 381.88 267.68 359.33 255.67C346.27 248.67 316.21 258.39 313.44 271C310.67 283.61 319.97 325.29 329.86 332.41C336.86 337.48 359.86 327.13 360.52 317.51" stroke="#263238" stroke-linecap="round" stroke-linejoin="round"/>
<path d="M334.411 290.93C334.411 290.93 342.521 288.99 346.271 290.93" stroke="#263238" stroke-width="2" stroke-linecap="round" stroke-linejoin="round"/>
<path d="M322.141 290.93C322.141 290.93 316.011 288.15 314.141 290.14" stroke="#263238" stroke-width="2" stroke-linecap="round" stroke-linejoin="round"/>
<path d="M338.461 301.5C338.761 303.11 339.841 304.26 340.881 304.07C341.921 303.88 342.521 302.42 342.221 300.81C341.921 299.2 340.841 298.04 339.801 298.24C338.761 298.44 338.161 299.89 338.461 301.5Z" fill="#263238"/>
<path d="M320.82 302.13C321.12 303.74 322.21 304.89 323.25 304.7C324.29 304.51 324.88 303.05 324.58 301.44C324.28 299.83 323.2 298.67 322.16 298.87C321.12 299.07 320.53 300.52 320.82 302.13Z" fill="#263238"/>
<path d="M326.231 301.78C326.401 302.4 324.031 308.88 324.031 308.88C324.031 308.88 321.861 311.88 322.141 312.49C322.931 314.21 326.491 315.13 329.261 314.49" fill="white"/>
<path d="M326.231 301.78C326.401 302.4 324.031 308.88 324.031 308.88C324.031 308.88 321.861 311.88 322.141 312.49C322.931 314.21 326.491 315.13 329.261 314.49" stroke="#263238" stroke-linecap="round" stroke-linejoin="round"/>
<path d="M339.681 318.3C339.681 319.48 336.171 321.3 333.551 321.67C329.791 322.21 329.151 321.73 329.151 321.73" fill="white"/>
<path d="M339.681 318.3C339.681 319.48 336.171 321.3 333.551 321.67C329.791 322.21 329.151 321.73 329.151 321.73" stroke="#263238" stroke-linecap="round" stroke-linejoin="round"/>
<path d="M322.701 257.19C322.701 257.19 311.461 261.46 309.621 273.33C307.781 285.2 312.941 287.84 312.941 287.84C311.35 284.282 310.748 280.361 311.201 276.49C311.201 276.49 312.851 286.78 322.701 286.49C322.701 286.49 321.051 281.74 322.061 278.05C322.061 278.05 325.181 285.17 334.411 284.9C334.411 284.9 328.521 282.53 326.711 279.23C326.711 279.23 335.391 283.85 344.791 282.53C344.791 282.53 354.711 286.82 356.301 293.64L360.521 296.24C360.521 296.24 361.521 285.43 365.261 285.7C369.001 285.97 371.331 287.81 371.591 296.24C371.851 304.67 367.591 308.24 367.591 308.24L371.021 308.93C371.021 308.93 378.141 303.13 378.141 285.99C378.141 268.85 372.071 258.32 364.141 255.67C364.211 255.67 346.341 242.37 322.701 257.19Z" fill="#263238"/>
<path d="M324.751 256C360.581 251.11 377.141 276.24 377.281 275.31C377.364 274.757 377.407 274.199 377.411 273.64C377.427 272.39 377.283 271.143 376.981 269.93C376.831 269.3 376.651 268.67 376.441 268.06C375.769 266.166 374.897 264.349 373.841 262.64C372.678 260.714 371.339 258.899 369.841 257.22C369.841 257.22 370.041 254.77 365.891 251.8C361.741 248.83 360.611 251.11 360.611 251.11C351.241 247.74 343.411 248.11 337.491 249.58C335.765 250.019 334.076 250.595 332.441 251.3C332.031 251.48 331.641 251.65 331.271 251.83C329.981 252.445 328.735 253.146 327.541 253.93C326.553 254.539 325.62 255.232 324.751 256Z" fill="#26E0AC"/>
<g opacity="0.7">
<path opacity="0.7" d="M331.22 251.8C338.85 251.86 350.07 253.07 360.76 258.39C369 262.51 374 266.57 377 269.9C377.302 271.113 377.447 272.36 377.43 273.61C374.97 270.16 370.08 265.25 359.89 260.18C347.77 254.18 334.62 253.62 327.51 253.9C328.698 253.117 329.938 252.415 331.22 251.8Z" fill="white"/>
</g>
<g opacity="0.7">
<path opacity="0.7" d="M332.39 251.27C339.39 251.55 353.22 252.7 362.3 257.34C367.656 259.951 372.457 263.57 376.44 268C375.768 266.106 374.897 264.289 373.84 262.58C370.593 259.812 367.024 257.445 363.21 255.53C355.57 251.63 345.03 250.11 337.46 249.53C335.727 249.975 334.032 250.557 332.39 251.27V251.27Z" fill="white"/>
</g>
<path d="M324.751 256C360.581 251.11 377.141 276.24 377.281 275.31C377.364 274.757 377.407 274.199 377.411 273.64C377.427 272.39 377.283 271.143 376.981 269.93C376.831 269.3 376.651 268.67 376.441 268.06C375.769 266.166 374.897 264.349 373.841 262.64C372.678 260.714 371.339 258.899 369.841 257.22C369.841 257.22 370.041 254.77 365.891 251.8C361.741 248.83 360.611 251.11 360.611 251.11C351.241 247.74 343.411 248.11 337.491 249.58C335.765 250.019 334.076 250.595 332.441 251.3C332.031 251.48 331.641 251.65 331.271 251.83C329.981 252.445 328.735 253.146 327.541 253.93C326.553 254.539 325.62 255.232 324.751 256Z" stroke="#263238" stroke-linecap="round" stroke-linejoin="round"/>
<g opacity="0.3">
<path opacity="0.3" d="M318.791 273.35C318.793 274.944 318.988 276.532 319.371 278.08" stroke="white" stroke-linecap="round" stroke-linejoin="round"/>
<path opacity="0.3" d="M324.661 260.3C321.449 263.195 319.404 267.164 318.911 271.46" stroke="white" stroke-linecap="round" stroke-linejoin="round"/>
<path opacity="0.3" d="M327.521 265.3C327.391 271.83 334.331 274.96 339.681 276.37" stroke="white" stroke-linecap="round" stroke-linejoin="round"/>
<path opacity="0.3" d="M329.261 259.67C328.576 260.768 328.076 261.97 327.781 263.23" stroke="white" stroke-linecap="round" stroke-linejoin="round"/>
<path opacity="0.3" d="M349.591 269C351.072 269.158 352.561 269.232 354.051 269.22" stroke="white" stroke-linecap="round" stroke-linejoin="round"/>
<path opacity="0.3" d="M334.411 259.67C336.201 264.91 342.151 267.67 347.171 268.61" stroke="white" stroke-linecap="round" stroke-linejoin="round"/>
</g>
<path d="M431.46 341.3C427.75 336.68 377.39 329.24 375.15 331.35L365.53 330.99C365.53 330.99 362.01 345.59 364.43 351.66L370 353L383.19 359.19C387.41 361.19 422.02 375.5 430.73 374.71" fill="#BFBFBF"/>
<path d="M431.46 341.3C427.75 336.68 377.39 329.24 375.15 331.35L365.53 330.99C365.53 330.99 362.01 345.59 364.43 351.66L370 353L383.19 359.19C387.41 361.19 422.02 375.5 430.73 374.71" stroke="#263238" stroke-linecap="round" stroke-linejoin="round"/>
<path d="M333.551 342.82C333.291 342.76 327.681 344.6 325.901 344.47C324.121 344.34 323.391 349.55 331.441 348.23" fill="white"/>
<path d="M333.551 342.82C333.291 342.76 327.681 344.6 325.901 344.47C324.121 344.34 323.391 349.55 331.441 348.23" stroke="#263238" stroke-linecap="round" stroke-linejoin="round"/>
<path d="M366.45 332.8C366.45 332.8 352.45 332.21 349.66 332.58C346.87 332.95 338.81 336.29 336.18 336.39C333.55 336.49 332.18 345.67 330.92 348.46C329.66 351.25 334.26 351.98 334.26 351.98C335.46 355.15 338.02 354.58 338.02 354.58C338.766 355.462 339.73 356.133 340.816 356.524C341.903 356.916 343.073 357.014 344.21 356.81C345.81 358.05 354.45 358.58 352.21 353.23C352.21 353.23 361.21 353.72 361.92 349.65L366.13 350.1C368.243 344.546 368.356 338.429 366.45 332.8V332.8Z" fill="white" stroke="#263238" stroke-linecap="round" stroke-linejoin="round"/>
<path d="M352.261 353.23L350.261 351.66C350.261 351.66 348.941 354.38 347.761 354.82" stroke="#263238" stroke-linecap="round" stroke-linejoin="round"/>
<path d="M344.21 356.81C342.85 354.96 343.11 353.18 343.7 349.65" stroke="#263238" stroke-linecap="round" stroke-linejoin="round"/>
<path d="M338.001 354.58C337.831 353.77 339.471 346.91 339.471 346.91" stroke="#263238" stroke-linecap="round" stroke-linejoin="round"/>
<path d="M334.26 352C334.26 349.31 336.04 342.84 336.04 342.84" stroke="#263238" stroke-linecap="round" stroke-linejoin="round"/>
<path d="M300.8 368C300.795 368.053 300.795 368.107 300.8 368.16L300.9 369.16L301.7 377.32V377.78C301.71 377.996 301.763 378.208 301.857 378.403C301.95 378.597 302.083 378.771 302.246 378.913C302.409 379.054 302.6 379.161 302.806 379.227C303.012 379.293 303.229 379.316 303.444 379.295C303.659 379.273 303.868 379.209 304.057 379.104C304.246 379 304.412 378.858 304.545 378.687C304.678 378.516 304.774 378.32 304.828 378.111C304.882 377.902 304.893 377.684 304.86 377.47V377.17L304.17 370.3L303.93 367.87C303.91 367.451 303.725 367.057 303.415 366.775C303.261 366.635 303.081 366.527 302.886 366.457C302.69 366.386 302.483 366.355 302.275 366.365C302.068 366.375 301.864 366.425 301.676 366.514C301.488 366.602 301.32 366.727 301.18 366.881C301.04 367.034 300.932 367.214 300.862 367.41C300.792 367.605 300.761 367.813 300.77 368.02L300.8 368Z" fill="#26E0AC"/>
<path opacity="0.3" d="M300.91 369.12L301.71 377.28L304.89 377.13L304.2 370.26C303.198 369.648 302.076 369.259 300.91 369.12Z" fill="black" fill-opacity="0.7"/>
<path d="M300.8 368C300.795 368.053 300.795 368.107 300.8 368.16L300.9 369.16L301.7 377.32V377.78C301.71 377.996 301.763 378.208 301.857 378.403C301.95 378.597 302.083 378.771 302.246 378.913C302.409 379.054 302.6 379.161 302.806 379.227C303.012 379.293 303.229 379.316 303.444 379.295C303.659 379.273 303.868 379.209 304.057 379.104C304.246 379 304.412 378.858 304.545 378.687C304.678 378.516 304.774 378.32 304.828 378.111C304.882 377.902 304.893 377.684 304.86 377.47V377.17L304.17 370.3L303.93 367.87C303.91 367.451 303.725 367.057 303.415 366.775C303.261 366.635 303.081 366.527 302.886 366.457C302.69 366.386 302.483 366.355 302.275 366.365C302.068 366.375 301.864 366.425 301.676 366.514C301.488 366.602 301.32 366.727 301.18 366.881C301.04 367.034 300.932 367.214 300.862 367.41C300.792 367.605 300.761 367.813 300.77 368.02L300.8 368Z" stroke="#263238" stroke-linecap="round" stroke-linejoin="round"/>
<path d="M293 379.14L293.39 383.14C293.65 385.75 294.593 388.245 296.124 390.374C297.655 392.503 299.719 394.192 302.11 395.27L305.03 396.59L305.21 396.67L307.98 394.67C310.109 393.14 311.798 391.078 312.878 388.689C313.957 386.3 314.389 383.669 314.13 381.06L313.73 377.06C313.677 376.52 313.455 376.01 313.096 375.603C312.737 375.195 312.259 374.911 311.73 374.79L303.73 372.93C303.4 372.862 303.06 372.862 302.73 372.93C302.495 372.963 302.266 373.03 302.05 373.13L294.53 376.54C294.034 376.758 293.62 377.126 293.345 377.593C293.071 378.06 292.95 378.601 293 379.14V379.14Z" fill="#26E0AC"/>
<path opacity="0.3" d="M293 379.14L293.39 383.14C293.65 385.75 294.593 388.245 296.124 390.374C297.655 392.503 299.719 394.192 302.11 395.27L305.03 396.59L302.71 372.89C302.475 372.923 302.246 372.99 302.03 373.09L294.51 376.5C294.011 376.723 293.596 377.099 293.325 377.574C293.054 378.048 292.94 378.597 293 379.14V379.14Z" fill="black" fill-opacity="0.7"/>
<path d="M293 379.14L293.39 383.14C293.65 385.75 294.593 388.245 296.124 390.374C297.655 392.503 299.719 394.192 302.11 395.27L305.03 396.59L305.21 396.67L307.98 394.67C310.109 393.14 311.798 391.078 312.878 388.689C313.957 386.3 314.389 383.669 314.13 381.06L313.73 377.06C313.677 376.52 313.455 376.01 313.096 375.603C312.737 375.195 312.259 374.911 311.73 374.79L303.73 372.93C303.4 372.862 303.06 372.862 302.73 372.93C302.495 372.963 302.266 373.03 302.05 373.13L294.53 376.54C294.034 376.758 293.62 377.126 293.345 377.593C293.071 378.06 292.95 378.601 293 379.14V379.14Z" stroke="#263238" stroke-linecap="round" stroke-linejoin="round"/>
<path d="M299.35 377.06C299.35 377.06 297.56 378.97 295.93 379.13L296.6 385.83H296.19L297.59 387.51L300.96 386.51L299.41 385.03L297.41 385.64L296.85 380.83C296.85 380.83 299.07 380.78 299.6 379.52C299.741 379.117 299.792 378.687 299.749 378.262C299.706 377.837 299.57 377.427 299.35 377.06V377.06Z" fill="#263238"/>
<path d="M311.78 377.55C311.85 378.29 306.46 376.35 306.46 376.35L305.41 377.35L306.81 379.82L306.61 383.58L307.84 385.17C308.152 384.84 308.343 384.413 308.38 383.96C308.32 383.39 307.87 379.72 307.87 379.72L306.74 378.26C306.74 378.26 311.48 379.52 311.96 379.31C312.44 379.1 311.78 377.55 311.78 377.55Z" fill="#263238"/>
<path d="M310.56 381.1C310.809 381.991 310.904 382.917 310.84 383.84L311.84 384.84L311.5 381.44L310.56 381.1Z" fill="#263238"/>
<path d="M305 394.17C305 394.44 305 394.7 305.08 394.97Z" fill="white"/>
<path d="M305 394.17C305 394.44 305 394.7 305.08 394.97" stroke="#263238" stroke-linecap="round" stroke-linejoin="round"/>
<path d="M304.63 390.57C304.69 391.11 304.74 391.65 304.79 392.19Z" fill="white"/>
<path d="M304.63 390.57C304.69 391.11 304.74 391.65 304.79 392.19" stroke="#263238" stroke-linecap="round" stroke-linejoin="round"/>
<path d="M303 374.47C303.473 379.237 303.947 384.007 304.42 388.78Z" fill="white"/>
<path d="M303 374.47C303.473 379.237 303.947 384.007 304.42 388.78" stroke="#263238" stroke-linecap="round" stroke-linejoin="round"/>
<path d="M290.22 384.76H291.22" stroke="#263238" stroke-linecap="round" stroke-linejoin="round"/>
<path d="M284.86 384.05C285.823 384.41 286.834 384.619 287.86 384.67" stroke="#263238" stroke-linecap="round" stroke-linejoin="round"/>
<path d="M303.42 374.33C300.96 374.68 281.92 378.95 283.77 383.12" stroke="#263238" stroke-linecap="round" stroke-linejoin="round"/>
<path d="M324.08 379C327.61 375.45 321.27 374.24 318.97 374C315.238 373.627 311.482 373.563 307.74 373.81" stroke="#263238" stroke-linecap="round" stroke-linejoin="round"/>
<path d="M319.16 381.62C320.416 381.178 321.636 380.64 322.81 380.01" stroke="#263238" stroke-linecap="round" stroke-linejoin="round"/>
<path d="M293.28 394.21C293.94 394.21 294.38 394.21 294.38 394.21" stroke="#263238" stroke-linecap="round" stroke-linejoin="round"/>
<path d="M296.36 389.4C291.72 390.26 288.68 391.4 288.12 392.57C287.68 393.49 289.06 393.9 290.63 394.08" stroke="#263238" stroke-linecap="round" stroke-linejoin="round"/>
<path d="M312.521 387.92C310.981 387.92 309.281 388 307.441 388.11C304.541 388.29 301.851 388.56 299.441 388.9" stroke="#263238" stroke-linecap="round" stroke-linejoin="round"/>
<path d="M317.43 388.09C316.86 388.03 316.23 387.99 315.56 387.96" stroke="#263238" stroke-linecap="round" stroke-linejoin="round"/>
<path d="M321.68 390.78C322.62 389.83 322.13 389.1 320.48 388.61" stroke="#263238" stroke-linecap="round" stroke-linejoin="round"/>
<path d="M297.35 363.06C294.02 364.19 293.07 366.06 295.49 366.64" stroke="#263238" stroke-linecap="round" stroke-linejoin="round"/>
<path d="M307.74 362.52C305.671 362.05 303.534 361.952 301.43 362.23" stroke="#263238" stroke-linecap="round" stroke-linejoin="round"/>
<path d="M308.77 364.75C309.26 364.37 309.44 363.98 309.35 363.63" stroke="#263238" stroke-linecap="round" stroke-linejoin="round"/>
<path d="M212.331 385.61H212.481L213.381 385.76L220.861 387L221.281 387.07C221.665 387.135 222.06 387.045 222.378 386.819C222.695 386.593 222.911 386.25 222.976 385.865C223.041 385.48 222.95 385.086 222.724 384.768C222.498 384.45 222.155 384.235 221.771 384.17H221.491L215.191 383.17L212.961 382.79C212.596 382.743 212.227 382.834 211.927 383.045C211.626 383.257 211.415 383.573 211.336 383.932C211.257 384.29 211.316 384.666 211.5 384.984C211.684 385.302 211.98 385.54 212.331 385.65V385.61Z" fill="#26E0AC"/>
<path opacity="0.3" d="M213.38 385.79L220.86 387L221.49 384.13L215.19 383.13C214.397 383.871 213.778 384.78 213.38 385.79V385.79Z" fill="black" fill-opacity="0.7"/>
<path d="M212.331 385.61H212.481L213.381 385.76L220.861 387L221.281 387.07C221.665 387.135 222.06 387.045 222.378 386.819C222.695 386.593 222.911 386.25 222.976 385.865C223.041 385.48 222.95 385.086 222.724 384.768C222.498 384.45 222.155 384.235 221.771 384.17H221.491L215.191 383.17L212.961 382.79C212.596 382.743 212.227 382.834 211.927 383.045C211.626 383.257 211.415 383.573 211.336 383.932C211.257 384.29 211.316 384.666 211.5 384.984C211.684 385.302 211.98 385.54 212.331 385.65V385.61Z" stroke="#263238" stroke-linecap="round" stroke-linejoin="round"/>
<path d="M220.42 395.24L224.1 395.86C226.488 396.251 228.936 396.008 231.2 395.155C233.464 394.302 235.464 392.869 237 391L238.89 388.71L239 388.57L237.89 385.57C237.039 383.3 235.606 381.294 233.735 379.753C231.864 378.212 229.621 377.19 227.23 376.79L223.55 376.18C223.053 376.099 222.544 376.176 222.093 376.4C221.643 376.625 221.275 376.985 221.04 377.43L217.44 384.15C217.292 384.419 217.197 384.715 217.16 385.02C217.13 385.236 217.13 385.454 217.16 385.67L218.39 393.21C218.461 393.723 218.698 394.199 219.064 394.566C219.431 394.932 219.907 395.169 220.42 395.24Z" fill="#26E0AC"/>
<path opacity="0.3" d="M220.42 395.24L224.1 395.86C226.487 396.251 228.935 396.008 231.199 395.155C233.463 394.302 235.464 392.869 237 391L238.89 388.71L217.16 385.06C217.13 385.276 217.13 385.494 217.16 385.71L218.39 393.25C218.469 393.756 218.709 394.223 219.075 394.581C219.441 394.94 219.912 395.171 220.42 395.24V395.24Z" fill="black" fill-opacity="0.7"/>
<path d="M220.42 395.24L224.1 395.86C226.488 396.251 228.936 396.008 231.2 395.155C233.464 394.302 235.464 392.869 237 391L238.89 388.71L239 388.57L237.89 385.57C237.039 383.3 235.606 381.294 233.735 379.753C231.864 378.212 229.621 377.19 227.23 376.79L223.55 376.18C223.053 376.099 222.544 376.176 222.093 376.4C221.643 376.625 221.275 376.985 221.04 377.43L217.44 384.15C217.292 384.419 217.197 384.715 217.16 385.02C217.13 385.236 217.13 385.454 217.16 385.67L218.39 393.21C218.461 393.723 218.698 394.199 219.064 394.566C219.431 394.932 219.907 395.169 220.42 395.24Z" stroke="#263238" stroke-linecap="round" stroke-linejoin="round"/>
<path d="M220.09 389.09C220.09 389.09 221.36 391.15 221.09 392.65L227.24 393.65L227.18 394.03L229 393.2L228.91 389.95L227.21 390.95L227.28 392.88L222.84 392.22C222.84 392.22 223.34 390.22 222.35 389.44C222.021 389.222 221.649 389.077 221.258 389.017C220.868 388.957 220.47 388.981 220.09 389.09V389.09Z" fill="#263238"/>
<path d="M223.53 378.12C224.21 378.23 221.17 382.58 221.17 382.58L221.85 383.77L224.4 383.11L227.7 384.2L229.41 383.49C229.41 383.49 228.99 382.8 228.47 382.71C227.95 382.62 224.56 382.14 224.56 382.14L222.98 382.8C222.98 382.8 225.26 378.87 225.18 378.39C225.1 377.91 223.53 378.12 223.53 378.12Z" fill="#263238"/>
<path d="M226.4 380.06C227.255 380.053 228.104 380.196 228.91 380.48L230.03 379.81L226.9 379.3L226.4 380.06Z" fill="#263238"/>
<path d="M236.73 388.19L237.46 388.31Z" fill="white"/>
<path d="M236.73 388.19L237.46 388.31" stroke="#263238" stroke-linecap="round" stroke-linejoin="round"/>
<path d="M233.42 387.64L234.92 387.89Z" fill="white"/>
<path d="M233.42 387.64L234.92 387.89" stroke="#263238" stroke-linecap="round" stroke-linejoin="round"/>
<path d="M218.66 385.19L231.79 387.37Z" fill="white"/>
<path d="M218.66 385.19L231.79 387.37" stroke="#263238" stroke-linecap="round" stroke-linejoin="round"/>
<path d="M366.32 394.52V396.25C366.32 397.15 363.66 397.87 360.38 397.87C357.1 397.87 354.45 397.15 354.45 396.25V394.52" fill="#26E0AC"/>
<path opacity="0.2" d="M366.32 394.52V396.25C366.32 397.15 363.66 397.87 360.38 397.87C357.1 397.87 354.45 397.15 354.45 396.25V394.52" fill="black" fill-opacity="0.7"/>
<path d="M366.32 394.52V396.25C366.32 397.15 363.66 397.87 360.38 397.87C357.1 397.87 354.45 397.15 354.45 396.25V394.52" stroke="#263238" stroke-linecap="round" stroke-linejoin="round"/>
<path d="M360.381 396.14C357.106 396.14 354.451 395.415 354.451 394.52C354.451 393.625 357.106 392.9 360.381 392.9C363.656 392.9 366.311 393.625 366.311 394.52C366.311 395.415 363.656 396.14 360.381 396.14Z" fill="#26E0AC" stroke="#263238" stroke-linecap="round" stroke-linejoin="round"/>
<path d="M348.58 403.82V405.55C348.58 406.45 345.92 407.17 342.64 407.17C339.36 407.17 336.71 406.45 336.71 405.55V403.82" fill="#26E0AC"/>
<path opacity="0.2" d="M348.58 403.82V405.55C348.58 406.45 345.92 407.17 342.64 407.17C339.36 407.17 336.71 406.45 336.71 405.55V403.82" fill="black" fill-opacity="0.7"/>
<path d="M348.58 403.82V405.55C348.58 406.45 345.92 407.17 342.64 407.17C339.36 407.17 336.71 406.45 336.71 405.55V403.82" stroke="#263238" stroke-linecap="round" stroke-linejoin="round"/>
<path d="M336.71 403.82C336.71 404.71 339.37 405.44 342.64 405.44C345.91 405.44 348.58 404.71 348.58 403.82C348.58 402.93 345.92 402.2 342.64 402.2C339.36 402.2 336.71 402.93 336.71 403.82Z" fill="#26E0AC" stroke="#263238" stroke-linecap="round" stroke-linejoin="round"/>
<path d="M372.25 408.41V410.14C372.25 411.04 369.6 411.76 366.32 411.76C363.04 411.76 360.38 411.04 360.38 410.14V408.41" fill="#26E0AC"/>
<path opacity="0.2" d="M372.25 408.41V410.14C372.25 411.04 369.6 411.76 366.32 411.76C363.04 411.76 360.38 411.04 360.38 410.14V408.41" fill="black" fill-opacity="0.7"/>
<path d="M372.25 408.41V410.14C372.25 411.04 369.6 411.76 366.32 411.76C363.04 411.76 360.38 411.04 360.38 410.14V408.41" stroke="#263238" stroke-linecap="round" stroke-linejoin="round"/>
<path d="M360.38 408.41C360.38 409.31 363.04 410.03 366.32 410.03C369.6 410.03 372.25 409.31 372.25 408.41C372.25 407.51 369.6 406.79 366.32 406.79C363.04 406.79 360.38 407.52 360.38 408.41Z" fill="#26E0AC" stroke="#263238" stroke-linecap="round" stroke-linejoin="round"/>
<path d="M342.09 396.14V397.87C342.09 398.77 339.43 399.49 336.15 399.49C332.87 399.49 330.22 398.77 330.22 397.87V396.14" fill="#26E0AC"/>
<path opacity="0.2" d="M342.09 396.14V397.87C342.09 398.77 339.43 399.49 336.15 399.49C332.87 399.49 330.22 398.77 330.22 397.87V396.14" fill="black" fill-opacity="0.7"/>
<path d="M342.09 396.14V397.87C342.09 398.77 339.43 399.49 336.15 399.49C332.87 399.49 330.22 398.77 330.22 397.87V396.14" stroke="#263238" stroke-linecap="round" stroke-linejoin="round"/>
<path d="M330.22 396.14C330.22 397.04 332.88 397.76 336.15 397.76C339.42 397.76 342.09 397.04 342.09 396.14C342.09 395.24 339.43 394.52 336.15 394.52C332.87 394.52 330.22 395.25 330.22 396.14Z" fill="#26E0AC" stroke="#263238" stroke-linecap="round" stroke-linejoin="round"/>
<path d="M200.72 400V401.73C200.72 402.63 198.06 403.35 194.78 403.35C191.5 403.35 188.85 402.63 188.85 401.73V400" fill="#26E0AC"/>
<path opacity="0.2" d="M200.72 400V401.73C200.72 402.63 198.06 403.35 194.78 403.35C191.5 403.35 188.85 402.63 188.85 401.73V400" fill="black" fill-opacity="0.7"/>
<path d="M200.72 400V401.73C200.72 402.63 198.06 403.35 194.78 403.35C191.5 403.35 188.85 402.63 188.85 401.73V400" stroke="#263238" stroke-linecap="round" stroke-linejoin="round"/>
<path d="M194.78 401.6C191.505 401.6 188.85 400.875 188.85 399.98C188.85 399.085 191.505 398.36 194.78 398.36C198.055 398.36 200.71 399.085 200.71 399.98C200.71 400.875 198.055 401.6 194.78 401.6Z" fill="#26E0AC" stroke="#263238" stroke-linecap="round" stroke-linejoin="round"/>
<path d="M249.86 399.12V400.85C249.86 401.74 247.21 402.47 243.93 402.47C240.65 402.47 237.99 401.74 237.99 400.85V399.12" fill="#26E0AC"/>
<path opacity="0.2" d="M249.86 399.12V400.85C249.86 401.74 247.21 402.47 243.93 402.47C240.65 402.47 237.99 401.74 237.99 400.85V399.12" fill="black" fill-opacity="0.7"/>
<path d="M249.86 399.12V400.85C249.86 401.74 247.21 402.47 243.93 402.47C240.65 402.47 237.99 401.74 237.99 400.85V399.12" stroke="#263238" stroke-linecap="round" stroke-linejoin="round"/>
<path d="M238 399.12C238 400.01 240.66 400.74 243.94 400.74C247.22 400.74 249.87 400.01 249.87 399.12C249.87 398.23 247.22 397.5 243.94 397.5C240.66 397.5 238 398.22 238 399.12Z" fill="#26E0AC" stroke="#263238" stroke-linecap="round" stroke-linejoin="round"/>
<path d="M399.58 395.28V397C399.58 397.89 396.92 398.62 393.65 398.62C390.38 398.62 387.71 397.89 387.71 397V395.27" fill="#26E0AC"/>
<path opacity="0.2" d="M399.58 395.28V397C399.58 397.89 396.92 398.62 393.65 398.62C390.38 398.62 387.71 397.89 387.71 397V395.27" fill="black" fill-opacity="0.7"/>
<path d="M399.58 395.28V397C399.58 397.89 396.92 398.62 393.65 398.62C390.38 398.62 387.71 397.89 387.71 397V395.27" stroke="#263238" stroke-linecap="round" stroke-linejoin="round"/>
<path d="M387.71 395.28C387.71 396.17 390.37 396.9 393.65 396.9C396.93 396.9 399.58 396.17 399.58 395.28C399.58 394.39 396.92 393.66 393.65 393.66C390.38 393.66 387.71 394.38 387.71 395.28Z" fill="#26E0AC" stroke="#263238" stroke-linecap="round" stroke-linejoin="round"/>
<path d="M214.93 412.88V414.61C214.93 415.51 212.28 416.23 209 416.23C205.72 416.23 203.07 415.51 203.07 414.61V412.88" fill="#26E0AC"/>
<path opacity="0.2" d="M214.93 412.88V414.61C214.93 415.51 212.28 416.23 209 416.23C205.72 416.23 203.07 415.51 203.07 414.61V412.88" fill="black" fill-opacity="0.7"/>
<path d="M214.93 412.88V414.61C214.93 415.51 212.28 416.23 209 416.23C205.72 416.23 203.07 415.51 203.07 414.61V412.88" stroke="#263238" stroke-linecap="round" stroke-linejoin="round"/>
<path d="M209 414.5C205.725 414.5 203.07 413.775 203.07 412.88C203.07 411.985 205.725 411.26 209 411.26C212.275 411.26 214.93 411.985 214.93 412.88C214.93 413.775 212.275 414.5 209 414.5Z" fill="#26E0AC" stroke="#263238" stroke-linecap="round" stroke-linejoin="round"/>
<path d="M183 409.28V411C183 411.89 180.34 412.62 177.06 412.62C173.78 412.62 171.13 411.89 171.13 411V409.27" fill="#26E0AC"/>
<path opacity="0.2" d="M183 409.28V411C183 411.89 180.34 412.62 177.06 412.62C173.78 412.62 171.13 411.89 171.13 411V409.27" fill="black" fill-opacity="0.7"/>
<path d="M183 409.28V411C183 411.89 180.34 412.62 177.06 412.62C173.78 412.62 171.13 411.89 171.13 411V409.27" stroke="#263238" stroke-linecap="round" stroke-linejoin="round"/>
<path d="M171.11 409.28C171.11 410.17 173.76 410.9 177.04 410.9C180.32 410.9 182.98 410.17 182.98 409.28C182.98 408.39 180.32 407.66 177.04 407.66C173.76 407.66 171.11 408.38 171.11 409.28Z" fill="#26E0AC" stroke="#263238" stroke-linecap="round" stroke-linejoin="round"/>
<path d="M176.49 401.6V403.33C176.49 404.23 173.83 404.95 170.55 404.95C167.27 404.95 164.62 404.23 164.62 403.33V401.6" fill="#26E0AC"/>
<path opacity="0.2" d="M176.49 401.6V403.33C176.49 404.23 173.83 404.95 170.55 404.95C167.27 404.95 164.62 404.23 164.62 403.33V401.6" fill="black" fill-opacity="0.7"/>
<path d="M176.49 401.6V403.33C176.49 404.23 173.83 404.95 170.55 404.95C167.27 404.95 164.62 404.23 164.62 403.33V401.6" stroke="#263238" stroke-linecap="round" stroke-linejoin="round"/>
<path d="M164.62 401.6C164.62 402.49 167.28 403.22 170.55 403.22C173.82 403.22 176.49 402.49 176.49 401.6C176.49 400.71 173.83 399.98 170.55 399.98C167.27 399.98 164.62 400.71 164.62 401.6Z" fill="#26E0AC" stroke="#263238" stroke-linecap="round" stroke-linejoin="round"/>
<path d="M250.801 409.28H316.561V421.09H250.801V409.28Z" fill="#757575" stroke="#263238" stroke-linecap="round" stroke-linejoin="round"/>
<path d="M256.801 403.82H310.561L316.561 409.28H250.801L256.801 403.82Z" fill="#999999" stroke="#263238" stroke-linecap="round" stroke-linejoin="round"/>
<path d="M316.561 413.75H298.351" stroke="#263238" stroke-linecap="round" stroke-linejoin="round"/>
<path d="M295.38 413.75H293.2" stroke="#263238" stroke-linecap="round" stroke-linejoin="round"/>
<path d="M287.36 413.75H281.86" stroke="#263238" stroke-linecap="round" stroke-linejoin="round"/>
<path d="M277.9 413.75H260.67" stroke="#263238" stroke-linecap="round" stroke-linejoin="round"/>
<path d="M257.25 413.75H250.8" stroke="#263238" stroke-linecap="round" stroke-linejoin="round"/>
</svg>
