<svg width="547" height="538" viewBox="0 0 547 538" fill="none" xmlns="http://www.w3.org/2000/svg">
<path d="M275.141 501.052C413.805 501.052 526.214 485.378 526.214 466.044C526.214 446.71 413.805 431.036 275.141 431.036C136.477 431.036 24.0679 446.71 24.0679 466.044C24.0679 485.378 136.477 501.052 275.141 501.052Z" fill="#26E0AC"/>
<path opacity="0.5" d="M275.141 501.052C413.805 501.052 526.214 485.378 526.214 466.044C526.214 446.71 413.805 431.036 275.141 431.036C136.477 431.036 24.0679 446.71 24.0679 466.044C24.0679 485.378 136.477 501.052 275.141 501.052Z" fill="white"/>
<path d="M382.758 98.0662C380.307 103.93 371.347 108.306 360.681 108.306C350.014 108.306 341.055 103.93 338.604 98.0771" stroke="#263238" stroke-miterlimit="10"/>
<path d="M382.758 98.0661C383.197 97.0277 383.424 95.9117 383.425 94.7841C383.425 91.7209 381.697 88.8984 378.776 86.6448" stroke="#263238" stroke-miterlimit="10"/>
<path d="M338.604 98.0661C338.159 97.0293 337.932 95.9123 337.937 94.7841C337.937 91.7209 339.665 88.8984 342.575 86.6448" stroke="#263238" stroke-miterlimit="10"/>
<path d="M338.604 98.0662C335.836 100.44 334.228 103.274 334.228 106.315C334.228 114.586 346.076 121.292 360.692 121.292C375.308 121.292 387.145 114.586 387.145 106.315C387.145 103.274 385.537 100.44 382.769 98.0662" stroke="#263238" stroke-miterlimit="10"/>
<path d="M345.967 93.8761C349.249 96.9831 354.62 99.007 360.681 99.007C366.742 99.007 372.102 96.9831 375.384 93.8761" stroke="#263238" stroke-miterlimit="10"/>
<path d="M378.776 86.6886C378.776 83.4832 376.96 80.5731 374.006 78.3851" stroke="#263238" stroke-miterlimit="10"/>
<path d="M375.384 93.8761C376.414 92.98 377.247 91.881 377.833 90.6481C378.418 89.4151 378.743 88.0746 378.787 86.7104V86.7104" stroke="#263238" stroke-miterlimit="10"/>
<path d="M345.967 93.8761C344.939 92.9794 344.107 91.8801 343.523 90.6471C342.94 89.4141 342.617 88.0739 342.575 86.7104V86.7104" stroke="#263238" stroke-miterlimit="10"/>
<path d="M347.345 78.3851C344.391 80.5731 342.586 83.4832 342.575 86.6886" stroke="#263238" stroke-miterlimit="10"/>
<path d="M347.345 78.385C347.345 78.2538 347.345 78.1334 347.345 78.0021C347.345 75.0483 349.194 72.4118 352.093 70.6395" stroke="#263238" stroke-miterlimit="10"/>
<path d="M371.96 83.144C373.159 81.8337 373.88 80.1567 374.006 78.3851" stroke="#263238" stroke-miterlimit="10"/>
<path d="M349.402 83.144C351.765 85.8353 355.966 87.6404 360.681 87.6404C365.396 87.6404 369.597 85.8353 371.96 83.144" stroke="#263238" stroke-miterlimit="10"/>
<path d="M349.402 83.144C348.195 81.8377 347.47 80.1591 347.345 78.3851" stroke="#263238" stroke-miterlimit="10"/>
<path d="M369.291 70.6395C372.19 72.4118 374.039 75.0155 374.039 78.0021C374.039 78.1334 374.039 78.2538 374.039 78.385" stroke="#263238" stroke-miterlimit="10"/>
<path d="M352.465 75.7485C353.11 77.4035 354.239 78.8255 355.705 79.8287C357.171 80.8319 358.905 81.3696 360.681 81.3717" stroke="#263238" stroke-miterlimit="10"/>
<path d="M369.291 70.6396C368.857 68.679 367.768 66.9251 366.202 65.6678C364.637 64.4105 362.689 63.7252 360.681 63.7252C358.673 63.7252 356.725 64.4105 355.16 65.6678C353.594 66.9251 352.505 68.679 352.071 70.6396" stroke="#263238" stroke-miterlimit="10"/>
<path d="M368.886 75.7485C368.243 77.4027 367.116 78.8243 365.652 79.8275C364.188 80.8308 362.456 81.3689 360.681 81.3717" stroke="#263238" stroke-miterlimit="10"/>
<path d="M369.291 70.6395C369.427 71.2687 369.496 71.9104 369.499 72.554C369.499 73.648 369.291 74.7321 368.886 75.7485" stroke="#263238" stroke-miterlimit="10"/>
<path d="M352.465 75.7485C352.069 74.7299 351.865 73.6468 351.863 72.554C351.866 71.9104 351.935 71.2687 352.071 70.6395" stroke="#263238" stroke-miterlimit="10"/>
<path d="M480.047 103.722L493.044 111.468C493.923 111.994 494.897 112.342 495.91 112.491C496.924 112.641 497.957 112.588 498.95 112.337C499.943 112.086 500.877 111.641 501.697 111.028C502.518 110.415 503.21 109.646 503.733 108.765C503.787 108.678 503.82 108.59 503.875 108.514" stroke="#263238" stroke-miterlimit="10"/>
<path d="M491.206 92.2133L476.514 83.4503" stroke="#263238" stroke-miterlimit="10"/>
<path d="M451.582 85.4851C452.246 86.7047 453.224 87.7245 454.415 88.4389L462.729 93.3947" stroke="#263238" stroke-miterlimit="10"/>
<path d="M451.582 85.4851C450.754 83.986 450.444 82.2559 450.698 80.5627C450.953 78.8694 451.759 77.3072 452.99 76.1177C454.222 74.9283 455.812 74.1779 457.513 73.9826C459.214 73.7873 460.932 74.158 462.401 75.0374L476.514 83.4503" stroke="#263238" stroke-miterlimit="10"/>
<path d="M491.206 92.2133L501.052 98.0662C502.786 99.1007 504.052 100.768 504.582 102.716C505.113 104.665 504.867 106.743 503.896 108.514" stroke="#263238" stroke-miterlimit="10"/>
<path d="M451.582 85.4851C450.607 87.2541 450.358 89.3324 450.887 91.2816C451.415 93.2308 452.68 94.8984 454.415 95.9328L458.047 98.1208" stroke="#263238" stroke-miterlimit="10"/>
<path d="M475.026 108.218L493.044 118.961C494.514 119.836 496.231 120.203 497.93 120.006C499.629 119.809 501.216 119.059 502.447 117.871C503.678 116.684 504.485 115.125 504.742 113.434C505 111.743 504.695 110.014 503.875 108.514" stroke="#263238" stroke-miterlimit="10"/>
<path d="M455.936 106.577C456.086 107.122 456.284 107.653 456.526 108.164" stroke="#263238" stroke-miterlimit="10"/>
<path d="M492.3 74.545C491.709 74.7967 491.14 75.0483 490.615 75.3108" stroke="#263238" stroke-miterlimit="10"/>
<path d="M496.337 85.9337C494.849 87.9357 493.055 90.069 491.206 92.2133" stroke="#263238" stroke-miterlimit="10"/>
<path d="M474.38 108.755L475.026 108.218L480.047 103.722L462.762 93.3948L458.08 98.099C457.173 99.1375 456.435 100.311 455.892 101.578" stroke="#263238" stroke-miterlimit="10"/>
<path d="M468.123 112.605C465.413 113.386 462.507 113.108 459.994 111.829" stroke="#263238" stroke-miterlimit="10"/>
<path d="M500.298 79.6104C500.841 78.6012 501.13 77.4746 501.14 76.3284C501.139 75.8678 501.041 75.4125 500.853 74.9922C500.664 74.5718 500.389 74.1959 500.046 73.8888" stroke="#263238" stroke-miterlimit="10"/>
<path d="M476.514 83.4503C482.574 79.6213 487.585 76.8863 487.585 76.8863C487.585 76.8863 488.832 76.1205 490.572 75.2781" stroke="#263238" stroke-miterlimit="10"/>
<path d="M500.024 73.8669C500.078 71.0225 500.024 62.1283 497.442 62.1283C495.56 62.1283 493.536 69.119 492.256 74.5452" stroke="#263238" stroke-miterlimit="10"/>
<path d="M500.024 73.8669C500.024 74.403 500.024 74.7312 500.024 74.7312L490.955 80.781C490.955 80.781 491.469 77.9804 492.278 74.5452" stroke="#263238" stroke-miterlimit="10"/>
<path d="M500.297 79.6104L500.133 79.4681L494.357 84.9381C494.357 84.9381 495.156 85.3757 496.337 85.9337" stroke="#263238" stroke-miterlimit="10"/>
<path d="M496.337 85.9337C499.324 87.3449 504.815 89.5111 506.686 87.3996C507.671 86.3056 501.369 80.5621 500.297 79.6104" stroke="#263238" stroke-miterlimit="10"/>
<path d="M490.572 75.311C487.41 74.4139 479.697 72.3681 480.19 73.845C480.802 75.6939 483.887 78.768 483.887 78.768" stroke="#263238" stroke-miterlimit="10"/>
<path d="M455.936 106.577C456.34 106.96 456.723 107.299 457.03 107.606" stroke="#263238" stroke-miterlimit="10"/>
<path d="M455.903 101.578C453.912 97.0049 451.122 92.3554 448.54 94.2809C445.707 96.4032 452.074 103.033 455.935 106.577" stroke="#263238" stroke-miterlimit="10"/>
<path d="M455.903 101.578C456.833 103.689 457.577 105.79 458.091 107.201" stroke="#263238" stroke-miterlimit="10"/>
<path d="M460.651 109.509C463.933 108.864 470.814 107.715 474.381 108.754" stroke="#263238" stroke-miterlimit="10"/>
<path d="M460.574 110.494C463.037 111.323 465.542 112.021 468.079 112.584" stroke="#263238" stroke-miterlimit="10"/>
<path d="M474.38 108.755C475.857 109.181 476.776 109.98 476.568 111.347C476.273 113.688 472.192 113.47 468.09 112.605" stroke="#263238" stroke-miterlimit="10"/>
<path d="M457.205 112.277C455.881 117.528 454.153 126.729 458.299 126.499C461.789 126.324 460.301 117.594 459.108 112.419" stroke="#263238" stroke-miterlimit="10"/>
<path d="M457.205 112.277C456.819 112.012 456.505 111.656 456.291 111.24C456.077 110.823 455.97 110.36 455.98 109.892C455.976 109.273 456.168 108.668 456.527 108.164" stroke="#263238" stroke-miterlimit="10"/>
<path d="M456.526 108.164C456.673 107.95 456.854 107.761 457.062 107.606" stroke="#263238" stroke-miterlimit="10"/>
<path d="M460.574 110.494C460.482 110.978 460.267 111.43 459.951 111.807" stroke="#263238" stroke-miterlimit="10"/>
<path d="M458.058 107.212C458.149 107.206 458.241 107.206 458.332 107.212C458.937 107.254 459.506 107.514 459.933 107.945C460.36 108.376 460.615 108.948 460.651 109.553" stroke="#263238" stroke-miterlimit="10"/>
<path d="M460.574 110.494C460.618 110.289 460.64 110.08 460.64 109.87C460.64 109.739 460.64 109.619 460.64 109.488" stroke="#263238" stroke-miterlimit="10"/>
<path d="M457.205 112.277C457.533 112.485 457.91 112.602 458.299 112.616C458.578 112.614 458.853 112.555 459.108 112.441" stroke="#263238" stroke-miterlimit="10"/>
<path d="M459.141 112.441C459.471 112.309 459.764 112.099 459.994 111.829" stroke="#263238" stroke-miterlimit="10"/>
<path d="M457.062 107.606C457.354 107.387 457.697 107.248 458.058 107.201" stroke="#263238" stroke-miterlimit="10"/>
<path d="M370.002 421.135L343.308 408.335V374.892L370.002 387.692V421.135Z" stroke="#263238" stroke-linejoin="round"/>
<path d="M370.002 387.692L396.214 378.83V410.403L370.002 421.135V387.692Z" stroke="#263238" stroke-linejoin="round"/>
<path d="M343.308 374.892L369.148 366.621L396.214 378.83L370.002 387.692L343.308 374.892Z" stroke="#263238" stroke-linejoin="round"/>
<path d="M365.845 398.325V411.694C365.845 412.132 365.604 412.263 365.166 412.077L360.889 410.25C360.689 410.178 360.517 410.045 360.395 409.871C360.274 409.696 360.209 409.489 360.211 409.276V408.314C360.211 408.117 360.09 408.018 359.926 408.117C358.69 408.926 356.841 408.806 354.456 407.756C350.54 406.038 347.619 402.876 347.619 398.752C347.619 394.628 350.54 393.556 355.933 395.919L359.981 397.691C360.101 397.691 360.222 397.691 360.222 397.549V396.717C360.177 395.774 359.846 394.867 359.274 394.117C358.701 393.367 357.914 392.808 357.016 392.516C355.419 391.805 354.336 391.893 353.975 392.702C353.822 393.03 353.581 393.085 353.176 392.866L348.735 390.361C348.341 390.142 348.056 389.825 348.1 389.519C348.494 386.379 352.06 385.493 356.852 387.615C362.169 389.88 365.845 394.453 365.845 398.325ZM360.211 402.701V401.29C360.205 401.217 360.18 401.147 360.137 401.087C360.095 401.028 360.037 400.98 359.97 400.951L357.126 399.704C354.73 398.61 353.242 398.927 353.242 400.601C353.327 401.404 353.64 402.167 354.144 402.799C354.648 403.43 355.322 403.905 356.086 404.167C358.329 405.196 360.211 404.703 360.211 402.745V402.701Z" stroke="#263238" stroke-miterlimit="10"/>
<path d="M393.731 398.402C393.758 400.122 393.529 401.836 393.052 403.489C392.511 405.478 391.538 407.324 390.204 408.895C388.869 410.466 387.204 411.724 385.329 412.58C383.206 413.466 381.773 413.226 380.767 412.329C380.646 412.219 380.493 412.329 380.493 412.525V413.619C380.498 413.833 380.434 414.042 380.309 414.216C380.185 414.39 380.008 414.518 379.804 414.582L375.526 416.365C375.089 416.551 374.848 416.365 374.848 415.972V389.311C374.846 389.099 374.91 388.893 375.032 388.72C375.154 388.547 375.327 388.417 375.526 388.348L379.804 386.565C380.253 386.379 380.493 386.565 380.493 386.959V395.197C380.493 395.404 380.646 395.415 380.767 395.197C381.825 393.446 383.427 392.09 385.329 391.335C389.015 389.803 391.816 390.875 392.987 393.752C393.547 395.236 393.8 396.818 393.731 398.402V398.402ZM387.812 400.995C387.912 399.655 387.574 398.319 386.849 397.188C386.493 396.817 386.021 396.58 385.511 396.517C385.001 396.453 384.485 396.566 384.049 396.838C382.859 397.376 381.906 398.328 381.368 399.518C380.775 400.929 380.488 402.451 380.526 403.981C380.437 405.244 380.714 406.505 381.325 407.613C381.625 408.032 382.071 408.324 382.574 408.431C383.078 408.538 383.604 408.453 384.049 408.193C385.364 407.629 386.411 406.579 386.97 405.261C387.541 403.912 387.827 402.46 387.812 400.995V400.995Z" stroke="#263238" stroke-miterlimit="10"/>
<path d="M363.897 381.193C362.436 380.725 361.036 380.082 359.729 379.279C358.666 378.714 357.731 377.935 356.983 376.992C355.605 374.99 357.279 372.966 361.578 371.654C365.822 370.376 370.339 370.312 374.618 371.468C375.044 371.583 375.457 371.737 375.855 371.927C376.194 372.091 376.128 372.277 375.789 372.43L372.048 374.006C371.876 374.084 371.689 374.124 371.501 374.124C371.312 374.124 371.125 374.084 370.954 374.006L370.428 373.798C368.695 373.276 366.845 373.276 365.112 373.798C363.394 374.334 362.869 375.111 363.482 375.92C364.03 376.581 364.703 377.127 365.462 377.528C366.351 378.078 367.297 378.529 368.284 378.874C370.016 379.451 371.884 379.481 373.634 378.962C375.319 378.447 375.931 377.616 375.319 376.774C375.291 376.733 375.258 376.696 375.22 376.664C375.133 376.588 375.1 376.27 375.603 376.172L380.296 375.165C380.48 375.114 380.674 375.103 380.862 375.133C381.051 375.163 381.231 375.234 381.39 375.34C381.579 375.465 381.742 375.625 381.872 375.811C383.37 377.78 381.401 379.804 377.233 381.084C372.889 382.39 368.262 382.428 363.897 381.193V381.193Z" stroke="#263238" stroke-miterlimit="10"/>
<path d="M191.45 384.979L199.01 377.9C199.201 377.724 199.347 377.502 199.432 377.256C199.518 377.01 199.542 376.747 199.502 376.489L198.014 366.249C197.971 365.955 198.011 365.654 198.129 365.382C198.248 365.109 198.44 364.874 198.685 364.705C198.929 364.535 199.216 364.438 199.513 364.422C199.81 364.407 200.106 364.475 200.366 364.619L209.435 369.619C209.665 369.74 209.92 369.804 210.179 369.804C210.439 369.804 210.694 369.74 210.923 369.619L220.189 364.991C220.456 364.857 220.755 364.8 221.052 364.827C221.349 364.854 221.633 364.964 221.871 365.144C222.109 365.324 222.291 365.567 222.398 365.845C222.505 366.124 222.532 366.427 222.476 366.72L220.518 376.894C220.464 377.148 220.476 377.411 220.55 377.659C220.625 377.908 220.76 378.133 220.944 378.316L228.208 385.69C228.42 385.902 228.567 386.169 228.634 386.461C228.701 386.753 228.684 387.057 228.586 387.34C228.488 387.623 228.312 387.873 228.079 388.061C227.846 388.248 227.565 388.367 227.268 388.403L216.995 389.683C216.738 389.714 216.492 389.807 216.279 389.954C216.066 390.1 215.891 390.296 215.77 390.525L211 399.726C210.862 399.99 210.653 400.211 210.396 400.363C210.139 400.515 209.845 400.592 209.546 400.585C209.248 400.579 208.957 400.488 208.708 400.325C208.458 400.161 208.259 399.931 208.134 399.66L203.758 390.284C203.649 390.05 203.484 389.846 203.278 389.689C203.072 389.533 202.831 389.429 202.576 389.387L192.358 387.692C192.066 387.647 191.791 387.523 191.565 387.332C191.339 387.142 191.17 386.893 191.076 386.612C190.982 386.332 190.967 386.031 191.033 385.743C191.099 385.455 191.244 385.19 191.45 384.979V384.979Z" stroke="#263238" stroke-miterlimit="10"/>
<path d="M221.732 418.313L225.364 414.921C225.455 414.836 225.525 414.729 225.566 414.611C225.608 414.493 225.621 414.367 225.605 414.243L224.861 409.331C224.843 409.194 224.863 409.055 224.918 408.928C224.972 408.801 225.061 408.691 225.173 408.611C225.285 408.53 225.417 408.481 225.555 408.469C225.692 408.457 225.831 408.483 225.955 408.543L230.331 410.939C230.442 410.999 230.566 411.03 230.692 411.03C230.818 411.03 230.942 410.999 231.053 410.939L235.495 408.751C235.623 408.687 235.766 408.66 235.908 408.674C236.051 408.687 236.186 408.74 236.3 408.827C236.414 408.913 236.502 409.03 236.552 409.163C236.603 409.297 236.616 409.442 236.589 409.583L235.648 414.473C235.625 414.594 235.632 414.719 235.668 414.837C235.705 414.956 235.769 415.063 235.856 415.151L239.345 418.696C239.447 418.797 239.518 418.925 239.55 419.065C239.583 419.205 239.575 419.351 239.528 419.487C239.481 419.622 239.397 419.742 239.286 419.833C239.174 419.923 239.039 419.98 238.897 419.997L233.963 420.61C233.838 420.626 233.719 420.673 233.616 420.745C233.513 420.818 233.43 420.914 233.372 421.026L231.086 425.402C231.023 425.531 230.925 425.64 230.803 425.717C230.681 425.793 230.54 425.834 230.397 425.834C230.253 425.834 230.112 425.793 229.99 425.717C229.868 425.64 229.77 425.531 229.707 425.402L227.596 420.895C227.543 420.781 227.464 420.682 227.365 420.606C227.266 420.53 227.15 420.479 227.027 420.457L222.126 419.647C221.983 419.622 221.851 419.558 221.743 419.462C221.635 419.365 221.556 419.241 221.515 419.102C221.474 418.963 221.473 418.816 221.511 418.677C221.549 418.537 221.626 418.411 221.732 418.313V418.313Z" stroke="#263238" stroke-miterlimit="10"/>
<path d="M77.4446 247.528L69.7319 254.453C69.5388 254.625 69.3909 254.842 69.3013 255.084C69.2116 255.326 69.1829 255.587 69.2177 255.843L70.5414 266.115C70.5795 266.411 70.5342 266.711 70.4106 266.982C70.287 267.254 70.09 267.485 69.8419 267.65C69.5938 267.815 69.3045 267.907 69.0066 267.916C68.7088 267.925 68.4143 267.851 68.1565 267.702L59.1967 262.56C58.9736 262.426 58.7208 262.35 58.461 262.339C58.2013 262.327 57.9427 262.381 57.7088 262.494L48.3551 266.936C48.0849 267.062 47.785 267.11 47.4889 267.075C47.1929 267.04 46.9123 266.924 46.6785 266.739C46.4448 266.554 46.267 266.308 46.1651 266.028C46.0632 265.748 46.0412 265.445 46.1015 265.153L48.2895 255.022C48.3425 254.768 48.3335 254.506 48.263 254.256C48.1925 254.006 48.0627 253.778 47.8847 253.589L40.7737 246.062C40.5664 245.847 40.424 245.578 40.363 245.286C40.302 244.993 40.3248 244.689 40.4289 244.409C40.5329 244.129 40.7139 243.884 40.951 243.703C41.1881 243.521 41.4718 243.41 41.7692 243.382L52.0747 242.288C52.3315 242.261 52.5779 242.172 52.7931 242.029C53.0083 241.886 53.1859 241.694 53.3109 241.468L58.2668 232.376C58.4094 232.114 58.6228 231.896 58.8828 231.749C59.1427 231.602 59.4388 231.53 59.7374 231.543C60.036 231.555 60.3251 231.651 60.5718 231.82C60.8185 231.989 61.0129 232.223 61.133 232.497L65.334 241.96C65.4356 242.197 65.5949 242.406 65.7974 242.566C65.9999 242.727 66.2392 242.834 66.4936 242.879L76.6788 244.793C76.9662 244.852 77.2318 244.989 77.4465 245.189C77.6612 245.389 77.8166 245.645 77.8957 245.927C77.9749 246.21 77.9746 246.509 77.895 246.791C77.8154 247.074 77.6596 247.329 77.4446 247.528V247.528Z" stroke="#263238" stroke-miterlimit="10"/>
<path d="M47.8736 213.571L44.1759 216.853C44.083 216.935 44.0115 217.039 43.9677 217.155C43.9238 217.272 43.9089 217.397 43.9243 217.52L44.5697 222.454C44.5875 222.596 44.5651 222.74 44.5052 222.87C44.4452 223 44.35 223.11 44.2304 223.189C44.1108 223.268 43.9716 223.311 43.8286 223.315C43.6855 223.318 43.5443 223.281 43.421 223.209L39.1216 220.725C39.0105 220.666 38.8865 220.635 38.7606 220.635C38.6347 220.635 38.5106 220.666 38.3996 220.725L33.9142 222.87C33.7844 222.936 33.6385 222.963 33.4935 222.95C33.3485 222.936 33.2105 222.881 33.0957 222.791C32.9808 222.702 32.8939 222.581 32.8451 222.444C32.7963 222.307 32.7877 222.158 32.8202 222.016L33.8595 217.148C33.8854 217.026 33.881 216.899 33.8466 216.779C33.8123 216.659 33.7491 216.549 33.6626 216.459L30.2493 212.849C30.1501 212.745 30.0821 212.615 30.0532 212.474C30.0243 212.333 30.0356 212.187 30.0859 212.052C30.1361 211.918 30.2232 211.8 30.3372 211.713C30.4512 211.625 30.5876 211.571 30.7306 211.558L35.6755 211.044C35.7991 211.028 35.9176 210.984 36.0218 210.916C36.1261 210.848 36.2134 210.757 36.2772 210.65L38.6512 206.274C38.7189 206.147 38.8211 206.041 38.946 205.969C39.071 205.898 39.2136 205.863 39.3576 205.868C39.5015 205.874 39.641 205.92 39.7599 206.002C39.8787 206.083 39.9722 206.196 40.0296 206.328L42.0426 210.869C42.0946 210.983 42.1734 211.084 42.2724 211.162C42.3714 211.24 42.4877 211.293 42.6115 211.317L47.4907 212.236C47.6348 212.259 47.7694 212.322 47.8787 212.419C47.988 212.515 48.0674 212.641 48.1076 212.781C48.1478 212.921 48.1472 213.07 48.1057 213.21C48.0643 213.35 47.9837 213.475 47.8736 213.571V213.571Z" stroke="#263238" stroke-miterlimit="10"/>
<path d="M246.325 124.235L239.17 122.79C238.991 122.751 238.805 122.758 238.629 122.81C238.453 122.861 238.293 122.956 238.164 123.086L232.924 128.162C232.778 128.323 232.587 128.437 232.377 128.489C232.166 128.541 231.945 128.53 231.741 128.456C231.537 128.382 231.359 128.249 231.231 128.074C231.102 127.899 231.029 127.69 231.02 127.473L230.178 120.22C230.159 120.038 230.096 119.863 229.992 119.712C229.889 119.561 229.75 119.439 229.587 119.355L223.176 115.964C222.981 115.875 222.816 115.73 222.703 115.548C222.589 115.366 222.532 115.154 222.538 114.939C222.543 114.725 222.612 114.517 222.735 114.341C222.859 114.165 223.031 114.03 223.231 113.951L229.871 110.91C230.04 110.837 230.188 110.722 230.301 110.577C230.413 110.431 230.488 110.26 230.517 110.078L231.742 102.836C231.764 102.619 231.85 102.414 231.989 102.246C232.128 102.078 232.315 101.956 232.524 101.895C232.733 101.834 232.956 101.836 233.164 101.903C233.371 101.969 233.554 102.096 233.689 102.267L238.623 107.65C238.745 107.785 238.899 107.889 239.071 107.95C239.243 108.011 239.428 108.028 239.608 108L246.839 106.982C247.047 106.95 247.259 106.978 247.45 107.063C247.642 107.148 247.805 107.287 247.921 107.462C248.036 107.637 248.098 107.842 248.101 108.052C248.103 108.261 248.045 108.467 247.933 108.645L244.345 115.012C244.264 115.173 244.222 115.351 244.222 115.532C244.222 115.712 244.264 115.89 244.345 116.051L247.55 122.615C247.663 122.803 247.717 123.019 247.705 123.237C247.693 123.455 247.617 123.665 247.485 123.839C247.353 124.013 247.172 124.144 246.966 124.215C246.759 124.285 246.536 124.292 246.325 124.235V124.235Z" stroke="#263238" stroke-miterlimit="10"/>
<path d="M253.086 93.2307L249.651 92.5305C249.565 92.515 249.477 92.5197 249.393 92.5444C249.31 92.5691 249.233 92.6131 249.169 92.6727L246.653 95.1123C246.58 95.1819 246.489 95.2297 246.39 95.2506C246.291 95.2714 246.188 95.2645 246.093 95.2305C245.998 95.1965 245.914 95.1368 245.851 95.058C245.787 94.9792 245.747 94.8844 245.734 94.7841L245.33 91.3052C245.325 91.2179 245.297 91.1333 245.249 91.0602C245.201 90.9872 245.134 90.9282 245.056 90.8895L241.949 89.2376C241.859 89.1934 241.783 89.1249 241.73 89.0398C241.677 88.9547 241.649 88.8565 241.649 88.7562C241.649 88.6559 241.677 88.5577 241.73 88.4726C241.783 88.3875 241.859 88.319 241.949 88.2748L245.144 86.8089C245.222 86.7722 245.291 86.7174 245.344 86.6489C245.398 86.5804 245.434 86.5003 245.45 86.415L246.052 82.958C246.071 82.8601 246.117 82.7693 246.184 82.6956C246.252 82.6219 246.338 82.568 246.434 82.5398C246.53 82.5116 246.631 82.5102 246.728 82.5357C246.824 82.5612 246.912 82.6127 246.981 82.6845L249.432 85.2663C249.491 85.3309 249.564 85.3806 249.646 85.411C249.728 85.4415 249.816 85.4519 249.902 85.4414L253.381 84.9491C253.48 84.9376 253.581 84.9533 253.671 84.9946C253.762 85.0358 253.84 85.1011 253.896 85.1833C253.952 85.2655 253.985 85.3615 253.991 85.461C253.996 85.5604 253.975 85.6596 253.928 85.7477L252.2 88.8109C252.16 88.8887 252.139 88.9749 252.139 89.0625C252.139 89.1501 252.16 89.2364 252.2 89.3141L253.742 92.4539C253.794 92.5505 253.816 92.6605 253.804 92.7695C253.793 92.8785 253.749 92.9815 253.678 93.0652C253.607 93.1489 253.513 93.2094 253.407 93.2389C253.302 93.2684 253.19 93.2656 253.086 93.2307V93.2307Z" stroke="#263238" stroke-miterlimit="10"/>
<path d="M384.53 309.854L377.43 308.399C377.251 308.367 377.067 308.377 376.892 308.428C376.718 308.48 376.557 308.571 376.424 308.694L371.183 313.77C371.038 313.93 370.849 314.044 370.639 314.097C370.429 314.15 370.209 314.139 370.005 314.066C369.801 313.994 369.624 313.862 369.495 313.689C369.366 313.516 369.291 313.308 369.28 313.092L368.437 305.839C368.419 305.657 368.355 305.482 368.252 305.331C368.149 305.18 368.009 305.058 367.847 304.974L361.403 301.55C361.204 301.462 361.036 301.318 360.92 301.134C360.804 300.951 360.746 300.737 360.751 300.52C360.757 300.303 360.828 300.092 360.953 299.916C361.079 299.739 361.255 299.603 361.458 299.526L368.098 296.496C368.267 296.423 368.415 296.308 368.528 296.163C368.64 296.017 368.715 295.846 368.744 295.664L370.002 288.477C370.024 288.26 370.11 288.054 370.249 287.887C370.388 287.719 370.574 287.597 370.784 287.536C370.993 287.474 371.216 287.477 371.423 287.544C371.631 287.61 371.814 287.737 371.949 287.908L376.883 293.279C377.007 293.413 377.161 293.515 377.332 293.578C377.503 293.64 377.687 293.662 377.868 293.64L385.099 292.612C385.308 292.578 385.522 292.606 385.716 292.691C385.91 292.777 386.074 292.916 386.19 293.093C386.306 293.271 386.368 293.478 386.368 293.689C386.369 293.901 386.308 294.108 386.193 294.286L382.605 300.642C382.514 300.81 382.466 300.998 382.466 301.189C382.466 301.38 382.514 301.568 382.605 301.736L385.81 308.3C385.909 308.49 385.95 308.706 385.927 308.919C385.905 309.132 385.82 309.334 385.683 309.5C385.547 309.665 385.365 309.787 385.16 309.85C384.955 309.913 384.736 309.914 384.53 309.854V309.854Z" stroke="#263238" stroke-miterlimit="10"/>
<path d="M391.291 278.839L387.856 278.15C387.77 278.131 387.681 278.135 387.597 278.159C387.513 278.184 387.436 278.23 387.374 278.292L384.858 280.72C384.786 280.79 384.695 280.838 384.597 280.859C384.499 280.881 384.397 280.874 384.302 280.842C384.207 280.809 384.123 280.751 384.059 280.673C383.995 280.596 383.954 280.503 383.939 280.403L383.534 276.913C383.527 276.825 383.496 276.741 383.447 276.668C383.397 276.595 383.329 276.537 383.25 276.498L380.154 274.857C380.064 274.811 379.989 274.741 379.937 274.655C379.884 274.569 379.856 274.47 379.856 274.37C379.856 274.269 379.884 274.17 379.937 274.084C379.989 273.999 380.064 273.929 380.154 273.883L383.338 272.428C383.418 272.393 383.489 272.338 383.544 272.27C383.6 272.201 383.638 272.12 383.655 272.034L384.257 268.577C384.276 268.479 384.322 268.388 384.389 268.315C384.457 268.241 384.543 268.187 384.639 268.159C384.735 268.131 384.836 268.129 384.933 268.155C385.029 268.18 385.117 268.232 385.186 268.304L387.56 270.885C387.619 270.95 387.693 271 387.774 271.03C387.856 271.06 387.944 271.071 388.031 271.06L391.51 270.568C391.61 270.552 391.712 270.565 391.805 270.605C391.898 270.645 391.978 270.711 392.035 270.795C392.093 270.878 392.125 270.976 392.129 271.078C392.133 271.179 392.108 271.279 392.057 271.367L390.328 274.419C390.288 274.497 390.267 274.583 390.267 274.671C390.267 274.758 390.288 274.844 390.328 274.922L391.86 278.073C391.903 278.161 391.922 278.26 391.913 278.358C391.904 278.457 391.868 278.55 391.809 278.63C391.751 278.709 391.671 278.77 391.58 278.807C391.488 278.844 391.388 278.855 391.291 278.839V278.839Z" stroke="#263238" stroke-miterlimit="10"/>
<path d="M119.552 108.733L122.725 109.586" stroke="#263238" stroke-miterlimit="10"/>
<path d="M137.1 113.459L140.634 114.411" stroke="#263238" stroke-miterlimit="10"/>
<path d="M140.306 118.852L135.033 117.43" stroke="#263238" stroke-miterlimit="10"/>
<path d="M99.3354 107.814L103.252 108.864" stroke="#263238" stroke-miterlimit="10"/>
<path d="M101.348 103.832L105.177 104.86" stroke="#263238" stroke-miterlimit="10"/>
<path d="M117.54 112.715L121.686 113.842" stroke="#263238" stroke-miterlimit="10"/>
<path d="M113.098 89.2157L109.663 87.4106" stroke="#263238" stroke-miterlimit="10"/>
<path d="M148.325 102.847L143.347 100.221" stroke="#263238" stroke-miterlimit="10"/>
<path d="M125.996 96.0204L128.84 97.5192" stroke="#263238" stroke-miterlimit="10"/>
<path d="M131.258 93.8433L127.976 92.1147" stroke="#263238" stroke-miterlimit="10"/>
<path d="M144.889 105.976L141.739 104.313" stroke="#263238" stroke-miterlimit="10"/>
<path d="M111.643 83.505L115.078 85.321" stroke="#263238" stroke-miterlimit="10"/>
<path d="M111.643 83.5049L113.514 79.8619C114.294 78.1496 114.381 76.202 113.757 74.4268C113.133 72.6516 111.847 71.1866 110.168 70.3383C108.488 69.4901 106.546 69.3245 104.747 69.8761C102.948 70.4278 101.432 71.654 100.517 73.2979L84.5009 104.827C83.6687 106.547 83.5459 108.526 84.1588 110.336C84.7717 112.146 86.0713 113.643 87.7775 114.504C89.4837 115.365 91.4599 115.521 93.2801 114.939C95.1004 114.357 96.6189 113.082 97.5085 111.391L99.3355 107.792" stroke="#263238" stroke-miterlimit="10"/>
<path d="M99.3354 107.814L101.348 103.832" stroke="#263238" stroke-miterlimit="10"/>
<path d="M111.643 83.505L109.663 87.4106" stroke="#263238" stroke-miterlimit="10"/>
<path d="M109.663 87.4106L101.348 103.832" stroke="#263238" stroke-miterlimit="10"/>
<path d="M117.54 112.715L119.553 108.733" stroke="#263238" stroke-miterlimit="10"/>
<path d="M127.976 92.1147L125.996 96.0203" stroke="#263238" stroke-miterlimit="10"/>
<path d="M125.996 96.0204L119.552 108.733" stroke="#263238" stroke-miterlimit="10"/>
<path d="M113.098 89.2157L105.177 104.86" stroke="#263238" stroke-miterlimit="10"/>
<path d="M127.998 92.1148L128.283 91.5568C128.733 90.7009 129.008 89.7638 129.093 88.8004C129.177 87.8369 129.068 86.8663 128.774 85.9452C128.479 85.024 128.004 84.1708 127.376 83.4351C126.748 82.6995 125.98 82.0963 125.117 81.6606C124.253 81.2249 123.312 80.9654 122.347 80.8973C121.382 80.8293 120.414 80.954 119.498 81.2641C118.581 81.5743 117.736 82.0637 117.011 82.7039C116.286 83.3441 115.696 84.1222 115.275 84.9928L115.1 85.3429" stroke="#263238" stroke-miterlimit="10"/>
<path d="M115.078 85.321L113.098 89.2157" stroke="#263238" stroke-miterlimit="10"/>
<path d="M105.177 104.86L103.668 107.846C103.499 108.173 103.36 108.513 103.252 108.864" stroke="#263238" stroke-miterlimit="10"/>
<path d="M103.252 108.864C102.692 110.605 102.808 112.492 103.575 114.151C104.343 115.811 105.706 117.121 107.395 117.822C109.083 118.523 110.974 118.564 112.691 117.936C114.408 117.308 115.826 116.057 116.664 114.432L117.539 112.715" stroke="#263238" stroke-miterlimit="10"/>
<path d="M143.314 100.221C143.503 98.7534 143.239 97.2629 142.559 95.9487C141.878 94.6345 140.813 93.5591 139.505 92.8661C138.198 92.173 136.71 91.8953 135.24 92.0699C133.771 92.2445 132.389 92.8631 131.28 93.8433" stroke="#263238" stroke-miterlimit="10"/>
<path d="M141.739 104.313L142.636 102.552C143.006 101.822 143.246 101.033 143.347 100.221" stroke="#263238" stroke-miterlimit="10"/>
<path d="M131.28 93.8433C130.614 94.4475 130.062 95.1664 129.65 95.9656L128.862 97.5191" stroke="#263238" stroke-miterlimit="10"/>
<path d="M141.739 104.313L137.1 113.459" stroke="#263238" stroke-miterlimit="10"/>
<path d="M135.033 117.43C135.188 117.197 135.33 116.956 135.459 116.708L137.1 113.426" stroke="#263238" stroke-miterlimit="10"/>
<path d="M121.686 113.842C121.61 112.555 121.878 111.271 122.463 110.122L122.725 109.586" stroke="#263238" stroke-miterlimit="10"/>
<path d="M122.725 109.586L128.841 97.5192" stroke="#263238" stroke-miterlimit="10"/>
<path d="M121.686 113.842C121.757 115.045 122.125 116.211 122.757 117.237C123.389 118.263 124.266 119.116 125.309 119.72C126.352 120.324 127.528 120.659 128.732 120.697C129.937 120.735 131.132 120.473 132.21 119.935C133.357 119.365 134.331 118.501 135.033 117.43" stroke="#263238" stroke-miterlimit="10"/>
<path d="M140.306 118.852C140.649 120.304 141.432 121.616 142.546 122.608C143.66 123.601 145.053 124.227 146.535 124.401C148.017 124.576 149.517 124.29 150.831 123.583C152.146 122.876 153.211 121.782 153.882 120.449L157.744 112.791C158.418 111.453 158.663 109.94 158.445 108.457C158.228 106.975 157.558 105.596 156.529 104.507C155.499 103.419 154.159 102.675 152.691 102.376C151.223 102.077 149.698 102.237 148.325 102.836" stroke="#263238" stroke-miterlimit="10"/>
<path d="M144.889 105.976L144.747 106.238L140.885 113.896C140.79 114.073 140.706 114.256 140.634 114.443" stroke="#263238" stroke-miterlimit="10"/>
<path d="M148.325 102.836C146.872 103.48 145.666 104.578 144.89 105.965" stroke="#263238" stroke-miterlimit="10"/>
<path d="M140.306 118.852C139.945 117.374 140.06 115.82 140.634 114.411" stroke="#263238" stroke-miterlimit="10"/>
<path d="M94.9375 103.711C95.1208 104.039 95.2016 104.415 95.1696 104.789C95.1375 105.164 94.994 105.52 94.7576 105.812C94.5212 106.105 94.2027 106.319 93.8431 106.429C93.4836 106.538 93.0995 106.538 92.7403 106.427C92.3811 106.316 92.0633 106.1 91.8279 105.807C91.5925 105.514 91.4502 105.158 91.4194 104.783C91.3886 104.408 91.4707 104.033 91.6552 103.706C91.8396 103.378 92.1179 103.113 92.4541 102.945C92.6672 102.831 92.9007 102.76 93.1413 102.737C93.3819 102.714 93.6247 102.738 93.8557 102.81C94.0867 102.881 94.3013 102.997 94.487 103.152C94.6726 103.307 94.8258 103.497 94.9375 103.711Z" stroke="#263238" stroke-miterlimit="10"/>
<path d="M114.083 107.836C114.186 108.055 114.244 108.293 114.255 108.535C114.265 108.778 114.228 109.02 114.144 109.248C114.061 109.476 113.933 109.685 113.769 109.863C113.604 110.041 113.406 110.185 113.185 110.286C112.759 110.498 112.266 110.532 111.814 110.38C111.363 110.228 110.991 109.903 110.779 109.477C110.567 109.05 110.533 108.557 110.685 108.106C110.837 107.654 111.162 107.282 111.588 107.07C112.021 106.845 112.526 106.799 112.992 106.942C113.459 107.085 113.851 107.406 114.083 107.836Z" stroke="#263238" stroke-miterlimit="10"/>
<path d="M130.875 112.923C131.061 113.366 131.071 113.863 130.904 114.313C130.736 114.763 130.404 115.133 129.974 115.347C129.544 115.562 129.049 115.604 128.588 115.467C128.128 115.33 127.737 115.022 127.495 114.607C127.309 114.164 127.299 113.667 127.467 113.217C127.634 112.767 127.967 112.397 128.397 112.183C128.826 111.968 129.322 111.926 129.782 112.063C130.242 112.2 130.633 112.508 130.875 112.923V112.923Z" stroke="#263238" stroke-miterlimit="10"/>
<path d="M106.633 78.768C106.818 79.0977 106.9 79.4755 106.869 79.8525C106.838 80.2296 106.694 80.5886 106.457 80.8832C106.219 81.1778 105.899 81.3945 105.538 81.5054C105.176 81.6162 104.789 81.6161 104.427 81.5051C104.066 81.3941 103.746 81.1772 103.509 80.8824C103.271 80.5877 103.128 80.2286 103.097 79.8516C103.066 79.4745 103.148 79.0968 103.334 78.7671C103.519 78.4375 103.8 78.171 104.138 78.0022C104.571 77.774 105.076 77.7265 105.544 77.87C106.011 78.0135 106.403 78.3364 106.633 78.768V78.768Z" stroke="#263238" stroke-miterlimit="10"/>
<path d="M123.907 89.7079C124.093 90.0377 124.176 90.416 124.146 90.7937C124.115 91.1714 123.971 91.5311 123.734 91.8264C123.496 92.1217 123.176 92.3388 122.813 92.4497C122.451 92.5607 122.064 92.5603 121.702 92.4486C121.339 92.3369 121.019 92.1191 120.782 91.8234C120.545 91.5277 120.403 91.1676 120.373 90.7899C120.343 90.4121 120.427 90.034 120.614 89.7046C120.801 89.3752 121.083 89.1096 121.423 88.9421C121.636 88.8279 121.87 88.7571 122.11 88.7338C122.351 88.7106 122.594 88.7352 122.825 88.8065C123.056 88.8777 123.27 88.9941 123.456 89.1488C123.642 89.3035 123.795 89.4936 123.907 89.7079V89.7079Z" stroke="#263238" stroke-miterlimit="10"/>
<path d="M138.938 98.46C139.124 98.7897 139.206 99.1675 139.175 99.5445C139.143 99.9216 139 100.281 138.762 100.575C138.525 100.87 138.205 101.087 137.843 101.197C137.481 101.308 137.095 101.308 136.733 101.197C136.371 101.086 136.051 100.869 135.814 100.574C135.577 100.28 135.434 99.9206 135.402 99.5436C135.371 99.1665 135.454 98.7888 135.64 98.4592C135.825 98.1295 136.105 97.8631 136.444 97.6942C136.876 97.466 137.382 97.4185 137.849 97.562C138.317 97.7055 138.708 98.0284 138.938 98.46Z" stroke="#263238" stroke-miterlimit="10"/>
<path d="M152.843 106.599C153.028 106.929 153.111 107.307 153.079 107.684C153.048 108.061 152.905 108.42 152.667 108.714C152.43 109.009 152.11 109.226 151.748 109.337C151.386 109.448 151 109.447 150.638 109.336C150.276 109.225 149.956 109.008 149.719 108.714C149.482 108.419 149.338 108.06 149.307 107.683C149.276 107.306 149.359 106.928 149.544 106.598C149.73 106.269 150.01 106.002 150.349 105.833C150.781 105.605 151.286 105.558 151.754 105.701C152.221 105.845 152.613 106.168 152.843 106.599V106.599Z" stroke="#263238" stroke-miterlimit="10"/>
<path d="M147.69 118.01C147.876 118.339 147.958 118.717 147.927 119.094C147.895 119.471 147.752 119.83 147.514 120.125C147.277 120.42 146.957 120.636 146.595 120.747C146.233 120.858 145.847 120.858 145.485 120.747C145.123 120.636 144.803 120.419 144.566 120.124C144.329 119.829 144.186 119.47 144.154 119.093C144.123 118.716 144.206 118.339 144.391 118.009C144.577 117.679 144.857 117.413 145.196 117.244C145.41 117.129 145.644 117.059 145.885 117.035C146.127 117.012 146.371 117.036 146.602 117.107C146.834 117.179 147.05 117.295 147.236 117.45C147.423 117.605 147.577 117.795 147.69 118.01V118.01Z" stroke="#263238" stroke-miterlimit="10"/>
<path d="M80.7263 117.878C80.2819 117.861 79.8378 117.92 79.4134 118.053C78.9866 118.186 78.5866 118.394 78.2319 118.666" stroke="#263238" stroke-miterlimit="10"/>
<path d="M78.2322 118.666C77.4288 119.246 76.8582 120.093 76.6225 121.055C76.3869 122.017 76.5017 123.032 76.9464 123.917C77.391 124.802 78.1364 125.5 79.049 125.886C79.9615 126.271 80.9816 126.319 81.9262 126.021C82.8709 125.723 83.6784 125.098 84.2041 124.258C84.7297 123.418 84.9391 122.419 84.7947 121.439C84.6503 120.459 84.1615 119.562 83.416 118.91C82.6705 118.257 81.717 117.892 80.7265 117.878" stroke="#263238" stroke-miterlimit="10"/>
<path d="M80.7266 117.878C80.7318 117.802 80.7318 117.725 80.7266 117.649L68.7582 79.9932C68.6503 79.6571 68.4135 79.3774 68.0998 79.2154C67.7861 79.0534 67.421 79.0223 67.0844 79.129C66.9184 79.1812 66.7643 79.2658 66.6309 79.3777C66.4976 79.4896 66.3876 79.6267 66.3074 79.7811C66.2271 79.9356 66.1781 80.1044 66.1631 80.2778C66.1481 80.4512 66.1675 80.6259 66.2202 80.7918L78.1448 118.447C78.1673 118.523 78.1966 118.596 78.2323 118.666" stroke="#263238" stroke-miterlimit="10"/>
<path d="M144.124 84.7631C144.032 84.3276 143.869 83.91 143.642 83.5269C143.404 83.1515 143.109 82.8156 142.767 82.5314" stroke="#263238" stroke-miterlimit="10"/>
<path d="M142.767 82.5313C142.008 81.888 141.043 81.5369 140.048 81.5413C139.052 81.5457 138.091 81.9053 137.337 82.5553C136.583 83.2053 136.086 84.1031 135.935 85.087C135.785 86.071 135.99 87.0764 136.514 87.9225C137.039 88.7685 137.848 89.3995 138.797 89.7019C139.745 90.0043 140.77 89.9583 141.688 89.572C142.605 89.1858 143.355 88.4848 143.801 87.5952C144.248 86.7055 144.362 85.6857 144.124 84.7193" stroke="#263238" stroke-miterlimit="10"/>
<path d="M144.124 84.7631C144.196 84.7369 144.265 84.704 144.332 84.6646L178.027 64.0427C178.175 63.9515 178.305 63.8319 178.407 63.6907C178.51 63.5495 178.583 63.3895 178.624 63.2199C178.665 63.0502 178.671 62.8742 178.644 62.7019C178.617 62.5297 178.556 62.3644 178.464 62.2157C178.373 62.0671 178.253 61.9378 178.112 61.8353C177.971 61.7329 177.811 61.6592 177.641 61.6186C177.472 61.5779 177.296 61.5711 177.124 61.5985C176.951 61.6259 176.786 61.6869 176.637 61.7782L142.942 82.3891L142.767 82.5313" stroke="#263238" stroke-miterlimit="10"/>
<path d="M464.819 145.699C464.819 145.699 461.723 129.431 440.805 131.761C419.888 134.092 407.887 161.967 409.079 170.489C410.272 179.011 411.016 208.779 411.016 208.779L452.85 227.377L480.703 211.142L481.863 170.467C481.863 170.467 482.64 142.986 464.819 145.699Z" fill="#263238" stroke="#263238" stroke-linecap="round" stroke-linejoin="round"/>
<path d="M414.856 444.722C414.856 444.722 408.653 450.925 400.13 458.67C391.608 466.416 398.588 472.619 409.429 470.704C420.271 468.79 426.857 457.139 426.857 457.139C426.857 457.139 433.06 454.437 433.06 449.01C433.06 443.584 419.505 441.243 414.856 444.722Z" fill="white" stroke="#263238" stroke-linecap="round" stroke-linejoin="round"/>
<path d="M474.96 444.722C474.96 444.722 481.163 450.925 489.685 458.67C498.208 466.416 491.228 472.619 480.386 470.704C469.545 468.79 462.959 457.139 462.959 457.139C462.959 457.139 456.756 454.437 456.756 449.01C456.756 443.584 470.311 441.243 474.96 444.722Z" fill="white" stroke="#263238" stroke-linecap="round" stroke-linejoin="round"/>
<path d="M407.887 309.153C407.887 309.153 412.142 378.874 412.919 390.886C413.696 402.898 415.632 433.104 415.632 433.104C415.632 433.104 412.525 438.147 412.525 440.083C412.525 442.02 412.919 447.052 412.919 447.052C412.919 447.052 419.483 449.765 422.601 450.148C425.719 450.531 433.443 451.702 433.443 451.702C433.443 451.702 434.996 445.138 434.219 441.243C433.443 437.348 432.677 433.104 432.677 433.104C432.677 433.104 434.613 427.295 434.613 423.805C434.613 420.315 434.219 418.389 434.219 416.059C434.219 413.729 442.359 337.433 442.359 337.433H446.231C446.231 337.433 452.795 420.326 453.2 421.868C453.605 423.411 452.423 428.071 453.583 430.784C454.513 433.187 455.292 435.646 455.913 438.147C455.033 440.374 454.509 442.726 454.36 445.116C454.466 447.478 454.859 449.818 455.53 452.085C458.356 452.397 461.199 452.529 464.042 452.478C469.862 452.478 477.607 447.435 477.607 447.435C477.607 447.435 476.437 438.147 476.054 435.401C475.671 432.655 474.894 428.837 474.894 427.262V416.42C474.894 414.867 475.277 408.281 475.277 408.281L478.767 309.897L440.422 289.757L407.887 309.153Z" fill="#263238" stroke="#263238" stroke-linecap="round" stroke-linejoin="round"/>
<path d="M436.506 204.184C436.506 204.184 422.174 200.705 414.812 203.418C407.449 206.131 396.607 216.973 393.894 220.069C391.181 223.165 383.053 234.4 383.053 234.4L393.894 244.082L412.875 233.241L415.588 254.158L391.652 300.631C391.652 300.631 408.685 318.452 440.882 319.612C473.078 320.772 498.207 303.344 498.207 303.344L474.117 252.605L474.5 228.208L497.77 244.859L509.366 228.974C509.366 228.974 495.417 213.483 487.289 208.057C479.161 202.631 466.755 203.801 458.626 203.801C450.498 203.801 438.092 204.578 438.092 204.578L436.506 204.184Z" fill="#8083FF"/>
<path d="M397.461 194.874V326.001" stroke="white" stroke-linecap="round" stroke-linejoin="round"/>
<path d="M400.546 194.874V326.001" stroke="white" stroke-linecap="round" stroke-linejoin="round"/>
<path d="M408.904 194.874V326.001" stroke="white" stroke-linecap="round" stroke-linejoin="round"/>
<path d="M418.586 194.874V326.001" stroke="white" stroke-linecap="round" stroke-linejoin="round"/>
<path d="M421.66 194.874V326.001" stroke="white" stroke-linecap="round" stroke-linejoin="round"/>
<path d="M430.029 194.874V326.001" stroke="white" stroke-linecap="round" stroke-linejoin="round"/>
<path d="M439.711 194.874V326.001" stroke="white" stroke-linecap="round" stroke-linejoin="round"/>
<path d="M442.785 194.874V326.001" stroke="white" stroke-linecap="round" stroke-linejoin="round"/>
<path d="M451.144 194.874V326.001" stroke="white" stroke-linecap="round" stroke-linejoin="round"/>
<path d="M460.826 194.874V326.001" stroke="white" stroke-linecap="round" stroke-linejoin="round"/>
<path d="M463.911 194.874V326.001" stroke="white" stroke-linecap="round" stroke-linejoin="round"/>
<path d="M472.269 194.874V326.001" stroke="white" stroke-linecap="round" stroke-linejoin="round"/>
<path d="M481.951 194.874V326.001" stroke="white" stroke-linecap="round" stroke-linejoin="round"/>
<path d="M485.036 194.874V326.001" stroke="white" stroke-linecap="round" stroke-linejoin="round"/>
<path d="M493.394 194.874V326.001" stroke="white" stroke-linecap="round" stroke-linejoin="round"/>
<path d="M509.235 210.715H378.097" stroke="white" stroke-linecap="round" stroke-linejoin="round"/>
<path d="M509.235 213.79H378.097" stroke="white" stroke-linecap="round" stroke-linejoin="round"/>
<path d="M509.235 222.159H378.097" stroke="white" stroke-linecap="round" stroke-linejoin="round"/>
<path d="M509.235 230.517H378.097" stroke="white" stroke-linecap="round" stroke-linejoin="round"/>
<path d="M509.235 233.591H378.097" stroke="white" stroke-linecap="round" stroke-linejoin="round"/>
<path d="M509.235 241.96H378.097" stroke="white" stroke-linecap="round" stroke-linejoin="round"/>
<path d="M509.235 250.318H378.097" stroke="white" stroke-linecap="round" stroke-linejoin="round"/>
<path d="M509.235 253.392H378.097" stroke="white" stroke-linecap="round" stroke-linejoin="round"/>
<path d="M509.235 261.761H378.097" stroke="white" stroke-linecap="round" stroke-linejoin="round"/>
<path d="M509.235 270.12H378.097" stroke="white" stroke-linecap="round" stroke-linejoin="round"/>
<path d="M509.235 273.205H378.097" stroke="white" stroke-linecap="round" stroke-linejoin="round"/>
<path d="M509.235 281.563H378.097" stroke="white" stroke-linecap="round" stroke-linejoin="round"/>
<path d="M509.235 289.921H378.097" stroke="white" stroke-linecap="round" stroke-linejoin="round"/>
<path d="M509.235 293.006H378.097" stroke="white" stroke-linecap="round" stroke-linejoin="round"/>
<path d="M509.235 301.364H378.097" stroke="white" stroke-linecap="round" stroke-linejoin="round"/>
<path d="M509.235 309.722H378.097" stroke="white" stroke-linecap="round" stroke-linejoin="round"/>
<path d="M509.235 312.807H378.097" stroke="white" stroke-linecap="round" stroke-linejoin="round"/>
<path d="M509.235 321.166H378.097" stroke="white" stroke-linecap="round" stroke-linejoin="round"/>
<path d="M436.506 204.184C436.506 204.184 422.174 200.705 414.812 203.418C407.449 206.131 396.607 216.973 393.894 220.069C391.181 223.165 383.053 234.4 383.053 234.4L393.894 244.082L412.875 233.241L415.588 254.158L391.652 300.631C391.652 300.631 408.685 318.452 440.882 319.612C473.078 320.772 498.207 303.344 498.207 303.344L474.117 252.605L474.5 228.208L497.77 244.859L509.366 228.974C509.366 228.974 495.417 213.483 487.289 208.057C479.161 202.631 466.755 203.801 458.626 203.801C450.498 203.801 438.092 204.578 438.092 204.578L436.506 204.184Z" stroke="#263238" stroke-linecap="round" stroke-linejoin="round"/>
<path d="M467.663 179.974C467.663 179.974 471.766 172.513 475.124 178.486C478.483 184.459 472.138 190.422 469.151 192.292C466.164 194.163 467.663 179.974 467.663 179.974Z" fill="white" stroke="#263238" stroke-linecap="round" stroke-linejoin="round"/>
<path d="M434.613 203.418L436.156 220.452C437.085 222.796 438.704 224.802 440.798 226.207C442.892 227.611 445.362 228.347 447.883 228.318C457.281 228.318 459.403 218.472 459.403 218.472L461.34 200.661C461.34 200.661 445.838 204.961 434.613 203.418Z" fill="white" stroke="#263238" stroke-linecap="round" stroke-linejoin="round"/>
<path d="M451.548 163.542C451.548 163.542 431.014 172.13 422.437 174.362L423.181 181.079C423.181 181.079 418.707 175.489 415.348 180.335C411.989 185.181 415.72 190.783 419.079 193.397C422.437 196.012 424.669 193.769 424.669 193.769C424.669 193.769 428.41 205.716 438.486 210.573C448.562 215.431 460.235 212.98 465.453 201.033C468.101 194.995 469.928 184.766 469.348 175.171C458.638 174.745 451.548 163.542 451.548 163.542Z" fill="white" stroke="#263238" stroke-linecap="round" stroke-linejoin="round"/>
<path d="M443.671 187.227C443.671 187.227 446.658 191.341 451.887 187.227" stroke="#263238" stroke-linecap="round" stroke-linejoin="round"/>
<path d="M439.383 183.65C440.205 183.65 440.871 182.494 440.871 181.068C440.871 179.642 440.205 178.486 439.383 178.486C438.561 178.486 437.895 179.642 437.895 181.068C437.895 182.494 438.561 183.65 439.383 183.65Z" fill="#263238"/>
<path d="M453.692 183.65C454.514 183.65 455.18 182.494 455.18 181.068C455.18 179.642 454.514 178.486 453.692 178.486C452.871 178.486 452.205 179.642 452.205 181.068C452.205 182.494 452.871 183.65 453.692 183.65Z" fill="#263238"/>
<path d="M431.802 175.664C431.802 175.664 435.904 171.55 441.134 173.049" stroke="#263238" stroke-linecap="round" stroke-linejoin="round"/>
<path d="M451.887 173.049C451.887 173.049 458.232 170.434 460.847 176.035" stroke="#263238" stroke-linecap="round" stroke-linejoin="round"/>
<path d="M442.03 192.938C442.03 192.938 443.256 200.826 447.008 201.865C452.478 203.385 453.758 192.828 453.758 192.828L442.03 192.938Z" fill="#263238" stroke="#263238" stroke-linecap="round" stroke-linejoin="round"/>
<path d="M429.723 187.763C429.723 187.763 429.384 188.004 428.837 188.431C427.054 189.831 423.039 193.222 421.179 196.603C418.794 200.979 417.437 211.24 415.709 213.625C413.98 216.01 386.182 226.556 381.051 230.637C375.92 234.718 375.581 247.999 385.821 248.338C396.061 248.677 399.769 244.257 405.513 240.177C411.256 236.096 420.49 224.172 420.49 224.172C420.49 224.172 430.018 220.091 432.064 215.671C434.11 211.251 434.734 202.171 435.466 201.373C438.256 198.331 440.565 194.229 440.565 191.166C440.565 188.102 436.189 184.35 429.723 187.763Z" fill="white" stroke="#263238" stroke-linecap="round" stroke-linejoin="round"/>
<path d="M440.324 190.673C440.324 190.673 439.394 188.956 437.83 190.673C436.265 192.391 430.172 197.861 429.701 198.802" stroke="#263238" stroke-linecap="round" stroke-linejoin="round"/>
<path d="M438.3 187.698C438.3 187.698 436.571 186.768 435.641 187.698C434.711 188.627 428.443 193.485 427.513 195.202C427.064 195.944 426.697 196.733 426.419 197.555" stroke="#263238" stroke-linecap="round" stroke-linejoin="round"/>
<path d="M430.325 187.698C430.325 187.698 425.478 192.074 423.443 196.296" stroke="#263238" stroke-linecap="round" stroke-linejoin="round"/>
<path d="M464.764 187.763C464.764 187.763 465.103 188.004 465.65 188.431C467.433 189.831 471.448 193.222 473.308 196.603C475.693 200.979 477.05 211.24 478.778 213.625C480.507 216.01 508.382 226.556 513.491 230.637C518.6 234.718 518.961 247.999 508.721 248.338C498.481 248.677 494.772 244.257 489.029 240.177C483.285 236.096 474.052 224.172 474.052 224.172C474.052 224.172 464.523 220.091 462.477 215.671C460.432 211.251 459.808 202.171 459.075 201.373C456.285 198.331 453.977 194.229 453.977 191.166C453.977 188.102 458.298 184.35 464.764 187.763Z" fill="white" stroke="#263238" stroke-linecap="round" stroke-linejoin="round"/>
<path d="M454.163 190.673C454.163 190.673 455.093 188.956 456.657 190.673C458.222 192.391 464.315 197.861 464.786 198.802" stroke="#263238" stroke-linecap="round" stroke-linejoin="round"/>
<path d="M456.198 187.698C456.198 187.698 457.926 186.768 458.856 187.698C459.786 188.627 466.055 193.485 466.985 195.202C467.434 195.944 467.801 196.733 468.079 197.555" stroke="#263238" stroke-linecap="round" stroke-linejoin="round"/>
<path d="M464.162 187.698C464.162 187.698 469.009 192.074 471.043 196.296" stroke="#263238" stroke-linecap="round" stroke-linejoin="round"/>
<path d="M247.244 286.541L235.002 320.061C235.002 320.061 242.791 327.62 242.222 330.487C241.654 333.353 241.61 337.619 240.855 339.239C240.1 340.858 238.733 342.925 236.326 341.427C233.919 339.928 236.162 335.103 236.162 335.103L235.341 333.539L230.615 346.907C230.022 347.493 229.254 347.867 228.428 347.974C227.602 348.081 226.764 347.914 226.042 347.498C223.165 346.153 225.156 343.571 225.156 343.571L220.988 340.825C220.988 340.825 216.316 337.455 215.791 335.256C215.266 333.057 218.45 321.264 219.653 318.704C220.444 316.985 221.142 315.225 221.743 313.431C221.743 313.431 226.206 287.011 229.094 278.007L247.244 286.541Z" fill="white" stroke="#263238" stroke-linecap="round" stroke-linejoin="round"/>
<path d="M225.156 343.571L227.322 330.88" stroke="#263238" stroke-linecap="round" stroke-linejoin="round"/>
<path d="M220.966 340.825L222.027 330.738" stroke="#263238" stroke-linecap="round" stroke-linejoin="round"/>
<path d="M217.148 336.832L218.472 329.742" stroke="#263238" stroke-linecap="round" stroke-linejoin="round"/>
<path d="M255.898 444.076C255.898 444.076 244.279 454.765 240.1 460.333C235.921 465.902 242.43 470.551 251.719 471.022C261.007 471.492 268.435 461.734 274.474 458.473C280.513 455.213 282.372 454.765 282.372 444.536C282.372 434.307 255.898 444.076 255.898 444.076Z" fill="white" stroke="#263238" stroke-linecap="round" stroke-linejoin="round"/>
<path d="M274.473 458.474C279.035 456.023 281.212 455.192 282 450.465C278.97 451.579 276.146 453.187 273.642 455.224C269.944 458.681 260.514 468.615 251.248 467.685C241.982 466.755 239.214 462.839 239.214 462.839L238.929 462.729C237.912 467.193 243.776 470.628 251.696 471.022C261.006 471.514 268.434 461.734 274.473 458.474Z" fill="white" stroke="#263238" stroke-linecap="round" stroke-linejoin="round"/>
<path d="M258.687 327.018L255.897 424.1L251.718 431.036L254.038 445.903C254.038 445.903 257.757 448.693 266.072 450.542C271.906 451.761 277.822 452.555 283.772 452.916C283.772 452.916 286.551 432.939 285.621 428.29C284.691 423.64 284.232 419.932 284.232 419.932L286.092 341.886L286.551 330.279L258.687 327.018Z" fill="#263238" stroke="#263238" stroke-linecap="round" stroke-linejoin="round"/>
<path d="M325.476 444.076C325.476 444.076 337.094 454.765 341.273 460.333C345.452 465.902 338.943 470.551 329.655 471.022C320.367 471.492 312.939 461.734 306.9 458.473C300.861 455.213 299.001 454.765 299.001 444.536C299.001 434.307 325.476 444.076 325.476 444.076Z" fill="white" stroke="#263238" stroke-linecap="round" stroke-linejoin="round"/>
<path d="M306.9 458.474C302.338 456.023 300.161 455.192 299.362 450.465C302.397 451.577 305.225 453.185 307.731 455.224C311.418 458.681 320.859 468.615 330.126 467.685C339.392 466.755 342.16 462.839 342.16 462.839L342.444 462.729C343.461 467.193 337.598 470.628 329.677 471.022C320.367 471.514 312.939 461.734 306.9 458.474Z" fill="white" stroke="#263238" stroke-linecap="round" stroke-linejoin="round"/>
<path d="M322.73 327.018L325.52 424.1L329.699 431.069L327.379 445.936C327.379 445.936 323.66 448.726 315.345 450.575C309.484 451.787 303.543 452.569 297.568 452.916C297.568 452.916 294.789 432.939 295.708 428.29C296.627 423.64 297.108 419.932 297.108 419.932L295.249 341.886L294.789 330.279L322.73 327.018Z" fill="#263238" stroke="#263238" stroke-linecap="round" stroke-linejoin="round"/>
<path d="M278.707 219.095C278.707 219.095 250.953 226.042 249.41 228.351C247.868 230.659 230.134 275.765 230.134 275.765L247.102 282.712L255.996 266.936L254.453 328.616L285.293 349.817L291.857 340.945L296.102 349.817L326.942 329.382L322.314 261.149L338.505 270.787L346.218 252.287C346.218 252.287 326.942 222.213 321.155 221.448C315.367 220.682 298.027 217.586 290.315 217.98C286.425 218.098 282.548 218.471 278.707 219.095Z" fill="#26E0AC" stroke="#263238" stroke-linecap="round" stroke-linejoin="round"/>
<path d="M293.476 239.181L292.579 335.628" stroke="#263238" stroke-linecap="round" stroke-linejoin="round"/>
<path d="M255.963 266.903L253.731 239.63" stroke="#263238" stroke-linecap="round" stroke-linejoin="round"/>
<path d="M322.271 261.116L322.052 235.166" stroke="#263238" stroke-linecap="round" stroke-linejoin="round"/>
<path d="M297.491 245.876C297.494 246.144 297.416 246.405 297.269 246.628C297.122 246.851 296.912 247.025 296.666 247.128C296.42 247.232 296.148 247.259 295.886 247.208C295.624 247.156 295.383 247.028 295.194 246.839C295.006 246.65 294.877 246.409 294.826 246.147C294.774 245.885 294.802 245.614 294.905 245.367C295.008 245.121 295.182 244.911 295.405 244.764C295.628 244.617 295.89 244.54 296.157 244.542C296.51 244.545 296.848 244.686 297.097 244.936C297.347 245.186 297.489 245.523 297.491 245.876Z" fill="#263238"/>
<path d="M297.491 276.246C297.491 276.513 297.412 276.773 297.263 276.995C297.115 277.216 296.904 277.389 296.658 277.49C296.411 277.592 296.14 277.618 295.879 277.565C295.618 277.512 295.378 277.383 295.19 277.194C295.002 277.004 294.875 276.763 294.824 276.502C294.774 276.24 294.802 275.969 294.905 275.723C295.009 275.478 295.183 275.268 295.406 275.122C295.629 274.975 295.89 274.898 296.156 274.9C296.333 274.9 296.507 274.935 296.67 275.003C296.832 275.071 296.98 275.17 297.104 275.295C297.228 275.42 297.326 275.569 297.393 275.732C297.459 275.895 297.492 276.07 297.491 276.246Z" fill="#263238"/>
<path d="M297.491 306.604C297.494 306.872 297.416 307.133 297.269 307.356C297.122 307.579 296.912 307.753 296.666 307.856C296.42 307.96 296.148 307.987 295.886 307.936C295.624 307.884 295.383 307.756 295.194 307.567C295.006 307.378 294.877 307.137 294.826 306.875C294.774 306.613 294.802 306.342 294.905 306.095C295.008 305.849 295.182 305.639 295.405 305.492C295.628 305.345 295.89 305.268 296.157 305.27C296.51 305.273 296.848 305.414 297.097 305.664C297.347 305.914 297.489 306.251 297.491 306.604Z" fill="#263238"/>
<path d="M297.491 336.952C297.491 337.219 297.412 337.479 297.263 337.701C297.115 337.922 296.904 338.095 296.658 338.196C296.411 338.298 296.14 338.324 295.879 338.271C295.618 338.218 295.378 338.089 295.19 337.9C295.002 337.71 294.875 337.469 294.824 337.208C294.774 336.946 294.802 336.675 294.905 336.429C295.009 336.184 295.183 335.974 295.406 335.828C295.629 335.681 295.89 335.604 296.156 335.606C296.333 335.606 296.507 335.641 296.67 335.709C296.832 335.777 296.98 335.876 297.104 336.001C297.228 336.126 297.326 336.275 297.393 336.438C297.459 336.601 297.492 336.776 297.491 336.952Z" fill="#263238"/>
<path d="M285.261 212.159C285.261 212.159 278.697 212.542 278.697 214.468C278.697 216.393 272.526 222.957 272.526 222.957C272.526 222.957 273.686 243.743 274.846 244.925C276.005 246.106 294.538 229.893 294.538 229.893C294.538 229.893 310.729 243.776 311.889 244.115C313.048 244.454 311.112 225.605 309.186 221.371C307.261 217.137 302.622 212.498 299.165 212.116C295.708 211.733 285.261 212.159 285.261 212.159Z" fill="white" stroke="#263238" stroke-linecap="round" stroke-linejoin="round"/>
<path d="M281.41 205.989C281.41 205.989 282.175 220.638 283.335 223.34C284.495 226.042 292.973 238.755 294.899 237.989C296.824 237.223 303.771 223.767 303.771 221.415C303.771 219.063 305.314 207.532 305.314 207.532C305.314 207.532 290.271 209.457 281.41 205.989Z" fill="white" stroke="#263238" stroke-linecap="round" stroke-linejoin="round"/>
<path d="M304.701 212.236C305.029 209.632 305.314 207.51 305.314 207.51C305.314 207.51 290.271 209.435 281.41 205.967C281.41 205.967 281.541 208.44 281.771 211.536C282.157 211.755 282.551 211.962 282.952 212.159C289.833 215.518 298.235 215.912 304.701 212.236Z" fill="#263238" stroke="#263238" stroke-linecap="round" stroke-linejoin="round"/>
<path d="M227.967 270.371L226.283 283.094L249.476 289.264L253.261 277.307L227.967 270.371Z" fill="white" stroke="#263238" stroke-linecap="round" stroke-linejoin="round"/>
<path d="M343.658 245.198C343.658 245.198 336.055 252.856 333.254 257.593C331.17 261.354 329.3 265.229 327.653 269.201L338.057 276.859L354.062 251.697C354.062 251.697 344.861 244.793 343.658 245.198Z" fill="white" stroke="#263238" stroke-linecap="round" stroke-linejoin="round"/>
<path d="M354.587 229.401C354.587 229.401 351.589 222.727 351.589 219.391C351.589 216.054 355.594 205.048 355.594 204.075C355.594 203.101 358.591 200.738 359.258 204.075C359.636 206.507 359.636 208.983 359.258 211.415L360.265 214.413L367.343 202.39C367.593 201.838 368.011 201.378 368.538 201.078C369.064 200.777 369.672 200.651 370.275 200.716C372.791 201.001 371.675 204.348 371.675 204.348L367.989 214.544L367.934 214.687L374.935 201.679C374.935 201.679 377.758 200.465 379.311 202.259C380.57 203.659 379.038 205.617 379.038 205.617L373.207 218.023L380.427 207.805C380.631 207.508 380.913 207.273 381.243 207.127C381.573 206.982 381.937 206.931 382.294 206.981C382.651 207.031 382.987 207.18 383.264 207.411C383.541 207.641 383.748 207.945 383.862 208.287V208.352C384.53 210.693 378.196 220.025 378.196 220.025L382.9 216.393C382.9 216.393 385.241 213.724 385.908 216.721C386.064 217.518 385.944 218.343 385.569 219.063C384.858 220.157 376.565 227.727 376.565 227.727C376.565 227.727 370.57 232.398 369.564 233.066C368.403 233.589 367.166 233.926 365.899 234.061C365.899 234.061 361.359 264.398 359.029 269.397C356.698 274.397 349.675 278.839 345.222 278.401C340.77 277.964 333.823 273.008 336.821 264.004C339.818 255 354.587 229.401 354.587 229.401Z" fill="white" stroke="#263238" stroke-linecap="round" stroke-linejoin="round"/>
<path d="M360.265 214.424C360.265 214.424 362.924 219.095 363.263 221.426C363.602 223.756 362.256 227.76 362.256 227.76" fill="white"/>
<path d="M360.265 214.424C360.265 214.424 362.924 219.095 363.263 221.426C363.602 223.756 362.256 227.76 362.256 227.76" stroke="#263238" stroke-linecap="round" stroke-linejoin="round"/>
<path d="M316.1 145.502C316.1 145.502 316.877 138.172 309.536 132.374C302.196 126.576 296.813 126.587 297.207 128.906C297.522 130.444 298.181 131.891 299.132 133.14C299.132 133.14 282.164 126.576 270.601 132.046C259.037 137.516 256.74 146.596 259.048 146.596C260.252 146.534 261.45 146.798 262.516 147.362C262.516 147.362 252.878 159.319 252.495 165.478C252.112 171.638 258.282 173.191 258.282 173.191L261.75 181.67C261.75 181.67 269.408 186.297 271.771 183.595C274.134 180.893 270.995 174.734 272.931 173.574C274.867 172.414 292.623 164.33 292.623 164.33C293.951 165.586 295.532 166.545 297.26 167.143C298.988 167.741 300.823 167.964 302.644 167.798C309.208 167.415 311.123 163.936 311.123 163.936L314.208 175.499C314.208 175.499 323.08 171.649 323.846 166.255C324.227 162.385 323.968 158.478 323.08 154.692C323.08 154.692 330.738 154.692 326.931 149.287C323.124 143.883 316.1 145.502 316.1 145.502Z" fill="#263238" stroke="#263238" stroke-linecap="round" stroke-linejoin="round"/>
<path d="M313.475 177.162C313.475 177.162 317.709 169.45 321.133 175.62C324.557 181.79 318.048 187.949 314.963 189.842C311.878 191.734 313.475 177.162 313.475 177.162Z" fill="white" stroke="#263238" stroke-linecap="round" stroke-linejoin="round"/>
<path d="M313.409 155.107C313.409 155.107 309.547 162.82 302.611 165.128C295.675 167.437 296.824 160.884 296.824 160.884C296.824 160.884 275.622 169.756 266.761 172.064L267.527 179.011C267.527 179.011 262.899 173.224 259.431 178.234C255.963 183.245 259.825 189.032 263.293 191.723C266.761 194.415 269.069 192.117 269.069 192.117C269.069 192.117 272.931 204.447 283.291 209.457C293.651 214.468 307.578 212.936 312.971 200.596C318.365 188.255 313.409 155.107 313.409 155.107Z" fill="white" stroke="#263238" stroke-linecap="round" stroke-linejoin="round"/>
<path d="M289.243 185.039C289.243 185.039 292.328 189.284 297.721 185.039" stroke="#263238" stroke-linecap="round" stroke-linejoin="round"/>
<path d="M286.934 178.683C286.934 180.707 285.982 182.348 284.812 182.348C283.641 182.348 282.689 180.707 282.689 178.683C282.689 176.659 283.641 175.018 284.812 175.018C285.982 175.018 286.934 176.659 286.934 178.683Z" fill="#263238"/>
<path d="M303.311 179.263C303.311 181.287 302.371 182.928 301.2 182.928C300.029 182.928 299.078 181.287 299.078 179.263C299.078 177.239 300.029 175.598 301.2 175.598C302.371 175.598 303.311 177.228 303.311 179.263Z" fill="#263238"/>
<path d="M279.222 173.093C279.222 173.093 283.466 168.848 288.86 170.391" stroke="#263238" stroke-width="2" stroke-linecap="round" stroke-linejoin="round"/>
<path d="M297.721 170.39C297.721 170.39 304.285 167.699 306.976 173.476" stroke="#263238" stroke-width="2" stroke-linecap="round" stroke-linejoin="round"/>
<path d="M287.722 191.592C287.722 191.592 294.669 194.677 299.679 190.826" stroke="#263238" stroke-linecap="round" stroke-linejoin="round"/>
<path d="M55.3782 433.126C55.3782 433.126 49.5253 440.237 47.0091 442.326C44.4929 444.416 32.3713 453.2 27.7656 459.48C23.1599 465.76 28.1923 472.444 39.0666 470.77C49.941 469.096 48.2672 464.086 54.5467 462.018C60.8263 459.95 64.163 457.423 65.0054 449.897C65.8477 442.37 65.8368 435.675 65.8368 435.675L55.3782 433.126Z" fill="white" stroke="#263238" stroke-linecap="round" stroke-linejoin="round"/>
<path d="M59.1414 448.606L57.0519 443.584C54.9623 438.563 49.5252 441.079 49.5252 441.079L48.5077 440.915C48.0431 441.41 47.5538 441.881 47.0418 442.326C44.5365 444.427 32.4041 453.2 27.7983 459.48C23.1926 465.76 28.225 472.444 39.0993 470.77C49.9737 469.096 48.2999 464.086 54.5794 462.018C60.859 459.95 64.1957 457.423 65.0381 449.897C65.1584 448.803 65.2569 447.709 65.3553 446.615L59.1414 448.606Z" fill="#8083FF" stroke="#263238" stroke-linecap="round" stroke-linejoin="round"/>
<path d="M64.2288 453.693C61.3191 455.012 58.5012 456.525 55.794 458.222C49.9411 461.985 48.2673 465.76 37.393 466.974C31.2775 467.685 27.9408 465.213 26.1904 462.915C25.2277 467.915 30.2054 472.105 39.0668 470.737C49.9411 469.074 48.2673 464.053 54.5469 461.985C59.6012 460.3 62.7628 458.386 64.2288 453.693Z" fill="white" stroke="#263238" stroke-linecap="round" stroke-linejoin="round"/>
<path d="M177.075 433.126C177.075 433.126 182.939 440.237 185.444 442.326C187.949 444.416 200.082 453.2 204.687 459.48C209.293 465.76 204.272 472.444 193.397 470.77C182.523 469.096 184.186 464.086 177.917 462.018C171.649 459.95 168.29 457.423 167.459 449.897C166.627 442.37 166.616 435.675 166.616 435.675L177.075 433.126Z" fill="white" stroke="#263238" stroke-linecap="round" stroke-linejoin="round"/>
<path d="M173.311 448.606L175.401 443.584C177.501 438.563 182.938 441.079 182.938 441.079L183.956 440.915C184.514 441.484 185.05 442.009 185.444 442.326C187.96 444.427 200.081 453.2 204.687 459.48C209.293 465.76 204.271 472.444 193.397 470.77C182.523 469.096 184.186 464.086 177.917 462.018C171.648 459.95 168.29 457.423 167.458 449.897C167.338 448.803 167.229 447.709 167.141 446.615L173.311 448.606Z" fill="#8083FF" stroke="#263238" stroke-linecap="round" stroke-linejoin="round"/>
<path d="M168.235 453.693C171.143 455.01 173.957 456.523 176.659 458.222C182.512 461.985 184.186 465.76 195.071 466.974C201.187 467.685 204.523 465.213 206.274 462.915C207.225 467.915 202.259 472.105 193.397 470.737C182.512 469.074 184.186 464.053 177.917 461.985C172.852 460.3 169.701 458.386 168.235 453.693Z" fill="white" stroke="#263238" stroke-linecap="round" stroke-linejoin="round"/>
<path d="M90.9768 295.435L52.457 428.104L73.3634 431.867L122.834 337.969L134.124 339.643L164.143 441.91L185.476 439.821L169.209 313.836L130.722 295.85L90.9768 295.435Z" fill="#263238" stroke="#263238" stroke-linecap="round" stroke-linejoin="round"/>
<path d="M164.603 205.497C164.603 205.497 145.36 197.544 135.317 195.87C125.274 194.196 118.59 195.038 114.411 197.959C110.231 200.88 107.3 215.113 109.389 220.135C110.477 222.552 111.317 225.074 111.894 227.661C111.894 227.661 101.851 272.406 101.436 274.933C101.02 277.46 92.2351 279.955 92.2351 282.044C92.2351 284.134 89.708 297.109 89.708 297.109C89.708 297.109 106.02 304.635 132.374 310.488C158.728 316.341 170.019 315.958 170.019 315.958C170.019 315.958 170.434 307.6 170.861 301.736C171.288 295.872 169.187 291.704 169.187 290.446C169.187 289.188 184.241 248.196 184.241 248.196L197.631 268.697L193.868 310.948C193.868 310.948 181.735 315.127 180.893 318.474C180.051 321.822 177.972 326.417 177.972 328.517C177.972 330.618 178.388 333.528 181.735 333.112C185.083 332.696 185.083 326.417 185.083 326.417L186.757 325.17L185.083 341.897C185.422 342.821 186.055 343.609 186.885 344.138C187.715 344.668 188.696 344.911 189.678 344.829C193.452 344.829 192.61 341.065 192.61 341.065L198.463 340.223C198.463 340.223 205.158 338.976 206.832 336.875C208.505 334.775 211.011 320.564 211.011 317.183C211.029 314.946 211.172 312.71 211.437 310.488C211.437 310.488 222.727 269.912 221.469 265.317C220.211 260.722 203.484 224.27 200.202 220.135C196.92 215.999 180.51 209.26 175.521 208.418C171.814 207.72 168.164 206.744 164.603 205.497Z" fill="#B2B2B2" stroke="#263238" stroke-linecap="round" stroke-linejoin="round"/>
<path d="M192.631 341.033L196.69 326.362" stroke="#263238" stroke-linecap="round" stroke-linejoin="round"/>
<path d="M198.484 340.19L202.434 328.867" stroke="#263238" stroke-linecap="round" stroke-linejoin="round"/>
<path d="M204.589 337.838L206.733 329.589" stroke="#263238" stroke-linecap="round" stroke-linejoin="round"/>
<path d="M200.202 220.135C196.854 215.956 180.51 209.26 175.521 208.418C171.829 207.718 168.194 206.741 164.647 205.497C164.647 205.497 145.404 197.544 135.361 195.87C125.318 194.196 118.633 195.038 114.454 197.959C110.275 200.88 107.343 215.113 109.433 220.135C110.521 222.552 111.36 225.074 111.938 227.661C111.938 227.661 101.851 272.406 101.436 274.933C101.02 277.46 92.2351 279.955 92.2351 282.044C92.2351 284.134 89.708 297.109 89.708 297.109C89.708 297.109 106.02 304.635 132.374 310.488C158.728 316.341 170.019 315.958 170.019 315.958C170.019 315.958 170.434 307.6 170.861 301.736C171.288 295.872 169.187 291.704 169.187 290.446C169.187 289.188 184.241 248.196 184.241 248.196L193.397 262.221L213.779 247.342C208.495 235.724 202.095 222.552 200.202 220.135Z" fill="white" stroke="#263238" stroke-linecap="round" stroke-linejoin="round"/>
<path d="M193.419 262.188L213.8 247.31C212.159 243.71 210.409 239.969 208.713 236.435L208.604 236.206C208.319 235.615 208.035 235.035 207.761 234.455C207.696 234.313 207.63 234.171 207.553 234.039L206.81 232.497L206.591 232.048C206.339 231.545 206.109 231.064 205.869 230.593L205.661 230.178L204.895 228.635C204.854 228.564 204.818 228.491 204.786 228.416C204.501 227.847 204.217 227.322 203.943 226.764L203.856 226.6C203.626 226.152 203.396 225.725 203.188 225.309L202.937 224.85C202.784 224.544 202.62 224.248 202.466 223.975C202.313 223.701 202.302 223.657 202.215 223.515L201.821 222.793L201.58 222.377L201.23 221.765L201.022 221.426L200.705 220.911L200.552 220.682C200.432 220.492 200.3 220.309 200.158 220.135C196.81 215.956 180.466 209.26 175.477 208.418C171.785 207.718 168.15 206.741 164.603 205.497C164.603 205.497 145.36 197.544 135.317 195.87C125.274 194.196 118.589 195.038 114.41 197.959C110.231 200.88 107.299 215.113 109.389 220.135C110.477 222.552 111.316 225.074 111.894 227.661C111.894 227.661 110.384 234.411 108.514 242.802C120.055 239.378 152.503 228.854 163.772 215.529L166.693 215.956C166.693 215.956 166.003 246.259 176.199 270.316C180.127 259.376 184.262 248.163 184.262 248.163L193.419 262.188Z" fill="#8083FF" stroke="#263238" stroke-linecap="round" stroke-linejoin="round"/>
<path d="M111.894 227.661C111.894 227.661 121.74 227.585 124.672 211.995L111.894 227.661Z" fill="#8083FF"/>
<path d="M111.894 227.661C111.894 227.661 121.74 227.585 124.672 211.995" stroke="#263238" stroke-linecap="round" stroke-linejoin="round"/>
<path d="M191.625 230.528L184.262 248.163L198.78 231.37" fill="#8083FF"/>
<path d="M191.625 230.528L184.262 248.163L198.78 231.37" stroke="#263238" stroke-linecap="round" stroke-linejoin="round"/>
<path d="M177.852 208.954C176.233 208.659 174.57 208.298 172.775 207.86C168.575 206.886 164.603 205.475 164.603 205.475C164.603 205.475 158.258 202.85 150.961 200.301C150.666 210.289 150.961 229.478 157.525 234.215C164.921 239.685 181.735 219.566 187.326 212.455C184.239 211.103 181.076 209.934 177.852 208.954Z" fill="white" stroke="#263238" stroke-linecap="round" stroke-linejoin="round"/>
<path d="M155.818 198.014C155.818 198.014 152.471 223.953 159.166 229.39C165.861 234.827 184.689 211.82 184.689 211.82C184.689 211.82 163.345 210.934 155.818 198.014Z" fill="#B2B2B2" stroke="#263238" stroke-linecap="round" stroke-linejoin="round"/>
<path d="M155.238 170.533C155.238 170.533 151.026 163.061 147.755 170.533C144.484 178.005 149.167 183.661 152.897 184.087C156.628 184.514 155.238 170.533 155.238 170.533Z" fill="#B2B2B2" stroke="#263238" stroke-linecap="round" stroke-linejoin="round"/>
<path d="M201.383 182.326C201.383 182.326 208.735 177.95 207.893 186.013C207.05 194.076 200.235 196.701 196.745 195.268C193.255 193.835 201.383 182.326 201.383 182.326Z" fill="#B2B2B2" stroke="#263238" stroke-linecap="round" stroke-linejoin="round"/>
<path d="M157.536 156.048C157.536 156.048 151.464 177.075 151.935 190.159C152.405 203.243 160.807 213.057 168.345 215.857C175.882 218.658 189.842 209.785 194.984 200.913C200.125 192.041 208.112 171.003 207.127 160.72C206.142 150.436 191.242 142.023 180.029 141.564C168.815 141.104 159.44 144.835 157.536 156.048Z" fill="#B2B2B2" stroke="#263238" stroke-linecap="round" stroke-linejoin="round"/>
<path d="M161.781 175.675C165.304 175.27 168.844 176.277 171.627 178.475" stroke="#263238" stroke-width="2" stroke-linecap="round" stroke-linejoin="round"/>
<path d="M161.31 168.192C165.355 166.551 169.879 166.551 173.924 168.192" stroke="#263238" stroke-linecap="round" stroke-linejoin="round"/>
<path d="M182.807 182.698C182.807 182.698 189.82 182.228 192.653 186.899" stroke="#263238" stroke-width="2" stroke-linecap="round" stroke-linejoin="round"/>
<path d="M186.549 173.804C188.541 173.777 190.505 174.283 192.236 175.27C193.967 176.257 195.403 177.688 196.395 179.416" stroke="#263238" stroke-linecap="round" stroke-linejoin="round"/>
<path d="M170.193 183.617C170.193 183.617 168.793 187.358 173.475 189.229C174.673 189.804 176.038 189.932 177.322 189.589C178.606 189.246 179.725 188.455 180.477 187.358" stroke="#263238" stroke-linecap="round" stroke-linejoin="round"/>
<path d="M181.757 193.638C180.333 194.43 178.747 194.885 177.12 194.968C175.492 195.052 173.868 194.761 172.37 194.119C168.804 192.653 168.53 190.028 165.402 188.343C162.273 186.658 159.625 189.065 160.829 194.36C162.032 199.655 168.29 202.773 174.296 203.495C180.302 204.217 185.367 201.088 185.608 197.237C185.848 193.386 181.757 193.638 181.757 193.638Z" fill="white" stroke="#263238" stroke-linecap="round" stroke-linejoin="round"/>
<path d="M160.818 189.339C163.26 193.69 167.186 197.018 171.878 198.714C176.26 200.326 181.1 200.153 185.356 198.233" stroke="#263238" stroke-linecap="round" stroke-linejoin="round"/>
<path d="M207.105 160.72C206.175 150.436 191.22 142.023 180.007 141.564C168.793 141.104 159.439 144.846 157.569 156.048C157.569 156.048 156.081 161.212 154.637 168.017C155.552 166.861 156.619 165.835 157.809 164.964C162.273 161.617 163.389 162.361 163.389 157.897C163.389 153.434 166.375 148.215 169.723 147.843C173.071 147.471 176.057 148.587 183.124 151.935C190.192 155.282 197.653 154.539 201 157.153C204.348 159.768 205.847 163.848 202.094 168.695C198.342 173.541 200.607 176.517 200.607 178.749C200.607 180.98 199.863 185.444 201.701 185.827C205.048 176.878 207.663 166.879 207.105 160.72Z" fill="#263238"/>
<path d="M90.561 200.06C90.561 200.06 90.9768 215.113 93.9087 221.393C96.8406 227.672 106.457 230.145 113.601 224.74C120.744 219.336 118.622 209.26 116.117 204.239C113.612 199.217 111.927 196.296 111.927 196.296L90.561 200.06Z" fill="#B2B2B2" stroke="#263238" stroke-linecap="round" stroke-linejoin="round"/>
<path d="M116.5 200.891L129.464 191.275C131.138 190.017 132.811 185.805 130.306 184.164C127.801 182.523 124.836 185.411 124.836 185.411C124.836 185.411 115.625 190.017 113.896 190.017C112.168 190.017 109.717 184.995 108.426 182.906C107.135 180.816 104.367 166.594 103.525 164.1C102.683 161.606 97.2564 162.426 97.2564 166.19C97.2564 169.953 99.7616 180.838 99.7616 180.838L93.9087 181.67C93.9087 181.67 88.8873 169.57 87.6292 167.01C86.3711 164.45 80.9448 165.336 81.7763 168.684C82.6077 172.032 87.2463 184.164 87.2463 184.164H83.8658C83.8658 184.164 75.9234 174.537 74.2496 174.121C72.5757 173.705 70.9019 176.211 73.8338 180.39C76.7657 184.569 80.5182 189.142 80.5182 189.142C80.5182 189.142 71.7662 188.31 70.4862 187.895C69.2062 187.479 66.2962 190.815 69.6438 192.489C72.8965 193.869 76.255 194.985 79.6867 195.826C79.6867 195.826 85.5396 203.779 91.4035 202.937C94.7014 202.509 97.9322 201.667 101.02 200.432C101.02 200.432 106.873 205.081 116.5 200.891Z" fill="#B2B2B2" stroke="#263238" stroke-linecap="round" stroke-linejoin="round"/>
<path d="M158.291 430.194L162.885 442.326L186.735 440.237V422.251L158.291 430.194Z" fill="white" stroke="#263238" stroke-linecap="round" stroke-linejoin="round"/>
<path d="M51.6147 422.251L49.9409 433.968L70.4425 440.652L80.0587 426.43L51.6147 422.251Z" fill="white" stroke="#263238" stroke-linecap="round" stroke-linejoin="round"/>
</svg>
