<svg width="500" height="500" viewBox="0 0 500 500" fill="none" xmlns="http://www.w3.org/2000/svg">
<path d="M124.21 73.6599V279.11H252.35V73.6599H124.21ZM191.07 78.6599H247.67V124H191.07V78.6599ZM191.07 129.02H247.67V173.92H191.07V129.02ZM191.07 178.9H247.67V224.75H191.07V178.9ZM186.39 274.15H128.89V229.71H186.39V274.15ZM186.39 224.75H128.89V178.88H186.39V224.75ZM186.39 173.92H128.89V129H186.39V173.92ZM186.39 124.04H128.89V78.6399H186.39V124.04ZM191.07 274.15V229.71H247.67V274.13L191.07 274.15Z" stroke="#263238" stroke-miterlimit="10"/>
<path d="M423 100.51C423 100.51 423.15 96.32 419.58 89.96C417.251 85.9069 414.437 82.1526 411.2 78.78C411.2 78.78 413.38 78.78 416.94 82.35C419.062 84.4648 420.937 86.8131 422.53 89.35C422.53 89.35 422.84 85.01 418.19 77.35C413.54 69.69 409.65 64.63 409.65 64.63C409.65 64.63 417.88 68.51 421.76 74.71C423.701 77.6059 425.374 80.6718 426.76 83.87V72.57C426.76 67.76 427.23 60.78 427.23 60.78C428.594 64.791 429.428 68.963 429.71 73.19C430.18 80.19 430.33 85.92 430.33 85.92C430.518 81.624 431.144 77.3584 432.2 73.19C433.486 68.6583 435.159 64.2454 437.2 60C437.2 60 437.67 71.33 436.43 77.69C435.19 84.05 433.63 89.49 433.63 89.49C434.382 87.1929 435.522 85.0418 437 83.13C438.712 80.7522 440.729 78.6104 443 76.76C443 76.76 437.57 87.63 437 91.66C436.598 94.4919 436.338 97.3421 436.22 100.2" fill="#26E0AC"/>
<path d="M399 112.62C399 112.62 395.59 108.27 395.59 105.62C395.59 102.97 398.22 106.86 398.22 106.86C398.22 106.86 392.64 96.62 393.1 92.43C393.56 88.24 397.76 99.72 397.76 99.72C397.76 99.72 396.36 76.13 398.69 76.91C401.02 77.69 403.97 99.91 403.97 101.28C403.97 102.65 405.97 91.5 407.54 94.76C409.11 98.02 409.09 105.76 409.09 105.76C409.09 105.76 411.09 93.96 412.66 98C414.23 102.04 410.8 112.74 410.8 112.74" fill="#26E0AC"/>
<path d="M357.35 113.08C357.35 113.08 358.75 110.44 355.96 106.41C354.066 103.735 351.991 101.192 349.75 98.7999C349.75 98.7999 355.65 100.98 357.35 102.8C359.05 104.62 360.61 106.99 360.46 106.52C360.31 106.05 357.98 101.71 355.46 96.7399C352.94 91.7699 350.68 86.9999 350.68 86.9999C352.825 89.7971 355.165 92.4402 357.68 94.9099C360.081 97.2918 362.122 100.01 363.74 102.98C363.74 102.98 362 93.9999 362 89.9999C362 85.9999 362.78 79.1299 362.78 79.1299C362.78 79.1299 365.57 85.9599 366.19 90.9299C366.81 95.8999 366.97 101.48 366.97 101.48C366.97 101.48 367.28 99.9299 368.52 94.6499C369.616 90.437 370.951 86.2903 372.52 82.2299C372.52 82.2299 372.84 88.1299 372.68 94.0299C372.52 99.9299 370.04 106.91 370.04 106.91C370.04 106.91 372.37 104.27 374.23 101.79C375.187 100.551 376.069 99.2552 376.87 97.9099C376.87 97.9099 372.87 107.53 372.37 108.62C371.87 109.71 370.97 113.28 370.97 113.28L357.35 113.08Z" fill="#26E0AC"/>
<path d="M444.08 132.25H349.43V139.89H444.08V132.25Z" stroke="#263238" stroke-linecap="round" stroke-linejoin="round"/>
<path d="M372.23 113.03H355.72V118.6H372.23V113.03Z" stroke="#263238" stroke-linecap="round" stroke-linejoin="round"/>
<path d="M370.23 132.19H357.72L351.46 118.63H376.49L370.23 132.19Z" stroke="#263238" stroke-linecap="round" stroke-linejoin="round"/>
<path d="M389.74 97.4399H379.98V132.24H389.74V97.4399Z" stroke="#263238" stroke-linecap="round" stroke-linejoin="round"/>
<path d="M414.82 122.93V132.24H395.72V122.13" stroke="#263238" stroke-linecap="round" stroke-linejoin="round"/>
<path d="M414.79 121.64V112.72H395.69V122.93C395.689 123.231 395.747 123.529 395.862 123.808C395.976 124.086 396.145 124.339 396.358 124.552C396.571 124.765 396.824 124.934 397.102 125.048C397.38 125.163 397.679 125.221 397.98 125.22H398.09C398.391 125.221 398.689 125.163 398.968 125.048C399.246 124.934 399.499 124.765 399.712 124.552C399.925 124.339 400.094 124.086 400.208 123.808C400.323 123.529 400.381 123.231 400.38 122.93V121.64H400.5V122.93C400.5 123.537 400.741 124.12 401.171 124.549C401.6 124.979 402.183 125.22 402.79 125.22H402.91C403.517 125.22 404.1 124.979 404.529 124.549C404.959 124.12 405.2 123.537 405.2 122.93V121.64H405.32V122.93C405.319 123.231 405.377 123.529 405.492 123.808C405.606 124.086 405.775 124.339 405.988 124.552C406.201 124.765 406.454 124.934 406.732 125.048C407.01 125.163 407.309 125.221 407.61 125.22H407.72C408.021 125.221 408.319 125.163 408.598 125.048C408.876 124.934 409.129 124.765 409.342 124.552C409.555 124.339 409.724 124.086 409.838 123.808C409.953 123.529 410.011 123.231 410.01 122.93V121.64H410.13V122.93C410.13 123.537 410.371 124.12 410.801 124.549C411.23 124.979 411.813 125.22 412.42 125.22H412.54C413.147 125.22 413.73 124.979 414.159 124.549C414.589 124.12 414.83 123.537 414.83 122.93V121.64H414.79Z" stroke="#263238" stroke-linecap="round" stroke-linejoin="round"/>
<path d="M437.71 99.99H419.32V125.13H437.71V99.99Z" stroke="#263238" stroke-linecap="round" stroke-linejoin="round"/>
<path d="M435.91 125.23H421.11V132.26H435.91V125.23Z" stroke="#263238" stroke-linecap="round" stroke-linejoin="round"/>
<path d="M381.14 86.6599C380.327 86.6599 379.533 86.901 378.857 87.3526C378.181 87.8042 377.654 88.4461 377.343 89.1971C377.032 89.9481 376.951 90.7745 377.109 91.5717C377.268 92.369 377.659 93.1013 378.234 93.6761C378.809 94.2509 379.541 94.6423 380.338 94.8009C381.136 94.9595 381.962 94.8781 382.713 94.5671C383.464 94.256 384.106 93.7292 384.558 93.0533C385.009 92.3774 385.25 91.5828 385.25 90.7699C385.25 89.6799 384.817 88.6345 384.046 87.8637C383.276 87.0929 382.23 86.6599 381.14 86.6599ZM381.14 92.4799C380.802 92.4799 380.471 92.3796 380.19 92.1917C379.909 92.0038 379.69 91.7368 379.56 91.4243C379.431 91.1118 379.397 90.768 379.463 90.4363C379.529 90.1046 379.692 89.7999 379.931 89.5608C380.17 89.3216 380.475 89.1587 380.807 89.0928C381.138 89.0268 381.482 89.0606 381.795 89.1901C382.107 89.3195 382.374 89.5387 382.562 89.8199C382.75 90.1011 382.85 90.4317 382.85 90.7699C382.848 91.2226 382.667 91.656 382.347 91.9762C382.026 92.2963 381.593 92.4773 381.14 92.4799V92.4799Z" fill="#26E0AC"/>
<path d="M385.23 83.5901C384.619 83.5901 384.022 83.7713 383.513 84.1109C383.005 84.4504 382.609 84.933 382.375 85.4976C382.141 86.0622 382.08 86.6835 382.2 87.2829C382.319 87.8823 382.613 88.4329 383.045 88.8651C383.477 89.2972 384.028 89.5915 384.627 89.7107C385.227 89.83 385.848 89.7688 386.413 89.5349C386.977 89.301 387.46 88.905 387.799 88.3968C388.139 87.8887 388.32 87.2913 388.32 86.6801C388.321 86.274 388.242 85.8715 388.088 85.4961C387.933 85.1206 387.705 84.7794 387.418 84.4922C387.131 84.205 386.79 83.9775 386.414 83.8226C386.039 83.6678 385.636 83.5888 385.23 83.5901ZM385.23 87.9601C384.891 87.9601 384.565 87.8253 384.325 87.5852C384.085 87.3452 383.95 87.0196 383.95 86.6801C383.95 86.3406 384.085 86.0151 384.325 85.775C384.565 85.535 384.891 85.4001 385.23 85.4001C385.57 85.4001 385.895 85.535 386.135 85.775C386.375 86.0151 386.51 86.3406 386.51 86.6801C386.51 87.0196 386.375 87.3452 386.135 87.5852C385.895 87.8253 385.57 87.9601 385.23 87.9601V87.9601Z" fill="#26E0AC"/>
<path d="M387.72 89.49C387.108 89.488 386.509 89.6678 386 90.0066C385.49 90.3454 385.092 90.8279 384.857 91.3929C384.622 91.9579 384.56 92.58 384.679 93.1804C384.798 93.7807 385.092 94.3322 385.525 94.765C385.958 95.1977 386.509 95.4922 387.11 95.6111C387.71 95.73 388.332 95.668 388.897 95.4329C389.462 95.1978 389.945 94.8002 390.284 94.2905C390.622 93.7808 390.802 93.182 390.8 92.57C390.8 91.7531 390.476 90.9697 389.898 90.3921C389.32 89.8145 388.537 89.49 387.72 89.49ZM387.72 93.86C387.465 93.862 387.214 93.788 387.001 93.6475C386.787 93.5069 386.62 93.3062 386.521 93.0706C386.422 92.8351 386.395 92.5754 386.444 92.3245C386.492 92.0736 386.614 91.8429 386.794 91.6614C386.974 91.48 387.204 91.3562 387.455 91.3056C387.705 91.255 387.965 91.2799 388.201 91.3773C388.438 91.4746 388.64 91.6399 388.782 91.8523C388.924 92.0646 389 92.3144 389 92.57C389.001 92.7389 388.969 92.9065 388.906 93.0629C388.842 93.2194 388.748 93.3617 388.629 93.4816C388.51 93.6015 388.368 93.6967 388.212 93.7616C388.056 93.8266 387.889 93.86 387.72 93.86V93.86Z" fill="#26E0AC"/>
<path d="M384.3 92.75C383.688 92.75 383.091 92.9315 382.582 93.2715C382.074 93.6115 381.678 94.0946 381.444 94.6598C381.211 95.2251 381.15 95.8469 381.27 96.4465C381.39 97.0462 381.685 97.5968 382.119 98.0285C382.552 98.4603 383.103 98.7538 383.703 98.8719C384.303 98.99 384.925 98.9273 385.489 98.6919C386.054 98.4565 386.536 98.0589 386.874 97.5494C387.212 97.04 387.392 96.4416 387.39 95.83C387.39 95.4247 387.31 95.0234 387.155 94.649C386.999 94.2747 386.771 93.9347 386.484 93.6486C386.197 93.3624 385.857 93.1358 385.482 92.9816C385.107 92.8274 384.705 92.7487 384.3 92.75ZM384.3 97.11C384.047 97.11 383.799 97.0349 383.589 96.8943C383.378 96.7536 383.214 96.5537 383.117 96.3198C383.021 96.086 382.995 95.8286 383.045 95.5803C383.094 95.332 383.216 95.1039 383.395 94.9249C383.574 94.7459 383.802 94.624 384.05 94.5746C384.299 94.5252 384.556 94.5506 384.79 94.6474C385.024 94.7443 385.224 94.9084 385.364 95.1189C385.505 95.3294 385.58 95.5769 385.58 95.83C385.58 96.1695 385.445 96.4951 385.205 96.7351C384.965 96.9752 384.639 97.11 384.3 97.11Z" fill="#26E0AC"/>
<path d="M385.23 75.0601C384.621 75.0621 384.027 75.2444 383.522 75.584C383.017 75.9236 382.623 76.4054 382.392 76.9683C382.16 77.5313 382.101 78.1503 382.221 78.7471C382.341 79.3439 382.635 79.8917 383.066 80.3215C383.497 80.7512 384.046 81.0436 384.643 81.1616C385.24 81.2796 385.859 81.2181 386.421 80.9847C386.983 80.7512 387.464 80.3565 387.802 79.8502C388.14 79.3439 388.32 78.7488 388.32 78.1401C388.32 77.7348 388.24 77.3334 388.085 76.9591C387.929 76.5848 387.702 76.2448 387.415 75.9586C387.127 75.6725 386.787 75.4458 386.412 75.2916C386.037 75.1375 385.635 75.0588 385.23 75.0601ZM385.23 79.4201C384.977 79.4201 384.73 79.345 384.519 79.2044C384.309 79.0637 384.144 78.8638 384.048 78.6299C383.951 78.396 383.925 78.1387 383.975 77.8904C384.024 77.6421 384.146 77.414 384.325 77.235C384.504 77.056 384.732 76.9341 384.98 76.8847C385.229 76.8353 385.486 76.8606 385.72 76.9575C385.954 77.0544 386.154 77.2185 386.294 77.4289C386.435 77.6394 386.51 77.8869 386.51 78.1401C386.51 78.4796 386.375 78.8051 386.135 79.0452C385.895 79.2852 385.57 79.4201 385.23 79.4201Z" fill="#26E0AC"/>
<path d="M383.84 79.0901C383.229 79.0881 382.63 79.2677 382.121 79.606C381.611 79.9443 381.214 80.4262 380.978 80.9907C380.743 81.5551 380.68 82.1767 380.798 82.7768C380.916 83.3768 381.21 83.9284 381.642 84.3615C382.073 84.7946 382.624 85.0899 383.224 85.21C383.823 85.33 384.445 85.2694 385.01 85.0358C385.576 84.8023 386.059 84.4062 386.399 83.8979C386.739 83.3895 386.92 82.7917 386.92 82.1801C386.92 81.3623 386.596 80.5779 386.019 79.9987C385.441 79.4195 384.658 79.0928 383.84 79.0901V79.0901ZM383.84 83.4601C383.587 83.4601 383.34 83.385 383.129 83.2444C382.919 83.1037 382.755 82.9038 382.658 82.6699C382.561 82.4361 382.535 82.1787 382.585 81.9304C382.634 81.6821 382.756 81.454 382.935 81.275C383.114 81.096 383.342 80.9741 383.591 80.9247C383.839 80.8753 384.096 80.9007 384.33 80.9975C384.564 81.0944 384.764 81.2585 384.905 81.469C385.045 81.6795 385.12 81.9269 385.12 82.1801C385.12 82.5196 384.985 82.8452 384.745 83.0852C384.505 83.3253 384.18 83.4601 383.84 83.4601V83.4601Z" fill="#26E0AC"/>
<path d="M379.65 77.8501C379.038 77.8481 378.439 78.0279 377.93 78.3667C377.42 78.7055 377.023 79.188 376.787 79.753C376.552 80.318 376.49 80.9402 376.609 81.5405C376.728 82.1408 377.023 82.6923 377.455 83.1251C377.888 83.5578 378.44 83.8523 379.04 83.9712C379.64 84.0901 380.262 84.0281 380.827 83.793C381.392 83.5579 381.875 83.1603 382.214 82.6506C382.552 82.1409 382.732 81.5421 382.73 80.9301C382.73 80.1132 382.406 79.3298 381.828 78.7522C381.251 78.1746 380.467 77.8501 379.65 77.8501ZM379.65 82.2101C379.311 82.2101 378.985 82.0753 378.745 81.8352C378.505 81.5952 378.37 81.2696 378.37 80.9301C378.37 80.5906 378.505 80.2651 378.745 80.025C378.985 79.785 379.311 79.6501 379.65 79.6501C379.99 79.6501 380.315 79.785 380.555 80.025C380.795 80.2651 380.93 80.5906 380.93 80.9301C380.93 81.2696 380.795 81.5952 380.555 81.8352C380.315 82.0753 379.99 82.2101 379.65 82.2101Z" fill="#26E0AC"/>
<path d="M389.11 79.5601C388.498 79.5601 387.901 79.7416 387.392 80.0815C386.884 80.4215 386.488 80.9047 386.254 81.4699C386.021 82.0351 385.96 82.6569 386.08 83.2566C386.2 83.8563 386.495 84.4068 386.929 84.8386C387.362 85.2703 387.913 85.5638 388.513 85.6819C389.113 85.8 389.735 85.7374 390.299 85.502C390.864 85.2666 391.346 84.869 391.684 84.3595C392.022 83.85 392.202 83.2516 392.2 82.6401C392.2 82.2348 392.12 81.8334 391.965 81.4591C391.809 81.0848 391.581 80.7448 391.294 80.4586C391.007 80.1725 390.667 79.9458 390.292 79.7916C389.917 79.6375 389.515 79.5588 389.11 79.5601V79.5601ZM389.11 83.9201C388.857 83.9201 388.609 83.845 388.399 83.7044C388.188 83.5637 388.024 83.3638 387.927 83.1299C387.831 82.896 387.805 82.6387 387.855 82.3904C387.904 82.1421 388.026 81.914 388.205 81.735C388.384 81.556 388.612 81.4341 388.86 81.3847C389.109 81.3353 389.366 81.3606 389.6 81.4575C389.834 81.5544 390.034 81.7185 390.174 81.9289C390.315 82.1394 390.39 82.3869 390.39 82.6401C390.39 82.9796 390.255 83.3051 390.015 83.5452C389.775 83.7852 389.449 83.9201 389.11 83.9201Z" fill="#26E0AC"/>
<path d="M402.23 242H419.6C424.811 242 429.81 244.07 433.495 247.755C437.18 251.44 439.25 256.438 439.25 261.65V306.65" stroke="#263238" stroke-miterlimit="10"/>
<path d="M271 306.68C261.17 308 252.17 305 242.17 308C235.17 310 229.17 317 229.17 324C227.17 348 228.17 375.13 228.31 399.43" stroke="#263238" stroke-miterlimit="10"/>
<path d="M308.42 306.68H303.35" stroke="#263238" stroke-miterlimit="10"/>
<path d="M308 353.01V306.68H303.35" stroke="#263238" stroke-miterlimit="10"/>
<path d="M271 306.68C260.17 307 251.17 317 250.17 327C249.17 350 250.17 375.71 250.56 399" stroke="#263238" stroke-miterlimit="10"/>
<path d="M270.98 306.68H307.98" stroke="#263238" stroke-miterlimit="10"/>
<path d="M402.23 242C404.81 242 407.365 242.508 409.748 243.496C412.132 244.484 414.297 245.931 416.121 247.756C417.945 249.581 419.391 251.747 420.378 254.131C421.364 256.515 421.871 259.07 421.87 261.65V306.65" stroke="#263238" stroke-miterlimit="10"/>
<path d="M308 306.68V261.68C307.995 259.099 308.498 256.543 309.482 254.156C310.465 251.77 311.909 249.601 313.731 247.774C315.553 245.946 317.718 244.495 320.101 243.505C322.484 242.514 325.039 242.003 327.62 242H345" stroke="#263238" stroke-miterlimit="10"/>
<path d="M344.99 242.01H402.23" stroke="#263238" stroke-miterlimit="10"/>
<path d="M307.98 353.01H308.42" stroke="#263238" stroke-miterlimit="10"/>
<path d="M308 353H269.85C264.24 353 257.54 352.58 256.97 360.15C256.69 363.81 256.97 367.6 256.97 371.27V399.15" stroke="#263238" stroke-miterlimit="10"/>
<path d="M325.35 353.01H330.68" stroke="#263238" stroke-miterlimit="10"/>
<path d="M336.88 353.01H330.68" stroke="#263238" stroke-miterlimit="10"/>
<path d="M308.42 353.01H325.35" stroke="#263238" stroke-miterlimit="10"/>
<path d="M308.42 380.99H330.68" stroke="#263238" stroke-miterlimit="10"/>
<path d="M330.68 380.99H336.53" stroke="#263238" stroke-miterlimit="10"/>
<path d="M308.42 380.99H257" stroke="#263238" stroke-miterlimit="10"/>
<path d="M336.88 399C337.17 384.56 337.17 370 336.88 355.9" stroke="#263238" stroke-miterlimit="10"/>
<path d="M379.55 306.68H357.29C354.609 306.68 351.954 307.208 349.477 308.235C347 309.261 344.75 310.765 342.854 312.661C340.959 314.558 339.456 316.809 338.431 319.286C337.406 321.764 336.879 324.419 336.88 327.1V353" stroke="#263238" stroke-miterlimit="10"/>
<path d="M336.88 353.01V355.91" stroke="#263238" stroke-miterlimit="10"/>
<path d="M439.25 306.68H421.87" stroke="#263238" stroke-miterlimit="10"/>
<path d="M359.13 353.01V355.91" stroke="#263238" stroke-miterlimit="10"/>
<path d="M359.13 399C359.13 384.56 359.13 370 359.13 355.9" stroke="#263238" stroke-miterlimit="10"/>
<path d="M379.55 306.68C374.134 306.68 368.94 308.831 365.111 312.661C361.281 316.49 359.13 321.684 359.13 327.1V353" stroke="#263238" stroke-miterlimit="10"/>
<path d="M439.25 355.91C439.17 370 439.17 384.57 439.25 399.01" stroke="#263238" stroke-miterlimit="10"/>
<path d="M416.99 306.68H421.87" stroke="#263238" stroke-miterlimit="10"/>
<path d="M439.25 355.91V306.68" stroke="#263238" stroke-miterlimit="10"/>
<path d="M379.55 306.68H416.99" stroke="#263238" stroke-miterlimit="10"/>
<path d="M222.66 403.36L183.71 430.74L240.01 432.67L276.64 405.29L222.66 403.36Z" fill="white" stroke="#263238" stroke-linecap="round" stroke-linejoin="round"/>
<path d="M183.71 430.74L184.1 433.82L240.01 436.91V432.67L183.71 430.74Z" fill="white" stroke="#263238" stroke-linecap="round" stroke-linejoin="round"/>
<path d="M240.01 436.91L277.41 407.6L276.64 405.29L240.01 432.67V436.91Z" fill="#263238" stroke="#263238" stroke-linecap="round" stroke-linejoin="round"/>
<path d="M223.68 404.84C223.68 404.84 220.68 401.43 218.81 405.1" stroke="#263238" stroke-linecap="round" stroke-linejoin="round"/>
<path d="M220.6 407.06C220.6 407.06 217.6 403.66 215.73 407.33" stroke="#263238" stroke-linecap="round" stroke-linejoin="round"/>
<path d="M217.52 409.29C217.52 409.29 214.52 405.88 212.65 409.55" stroke="#263238" stroke-linecap="round" stroke-linejoin="round"/>
<path d="M214.44 411.51C214.44 411.51 211.44 408.11 209.57 411.77" stroke="#263238" stroke-linecap="round" stroke-linejoin="round"/>
<path d="M211.36 413.74C211.36 413.74 208.36 410.33 206.5 414" stroke="#263238" stroke-linecap="round" stroke-linejoin="round"/>
<path d="M208.28 416C208.28 416 205.28 412.59 203.42 416.26" stroke="#263238" stroke-linecap="round" stroke-linejoin="round"/>
<path d="M205.2 418.18C205.2 418.18 202.2 414.78 200.34 418.45" stroke="#263238" stroke-linecap="round" stroke-linejoin="round"/>
<path d="M202.12 420.41C202.12 420.41 199.12 417 197.26 420.67" stroke="#263238" stroke-linecap="round" stroke-linejoin="round"/>
<path d="M199.05 422.63C199.05 422.63 196.05 419.23 194.18 422.9" stroke="#263238" stroke-linecap="round" stroke-linejoin="round"/>
<path d="M196 424.86C196 424.86 193 421.45 191.13 425.12" stroke="#263238" stroke-linecap="round" stroke-linejoin="round"/>
<path d="M192.89 427.08C192.89 427.08 189.89 423.68 188.02 427.34" stroke="#263238" stroke-linecap="round" stroke-linejoin="round"/>
<path d="M189.81 429.31C189.81 429.31 186.81 425.9 184.94 429.57" stroke="#263238" stroke-linecap="round" stroke-linejoin="round"/>
<path d="M176.03 451.38L182.06 452.4L176.19 454.37L176.03 451.38Z" fill="white" stroke="#263238" stroke-linecap="round" stroke-linejoin="round"/>
<path d="M124.85 457.13C124.452 457.141 124.067 456.993 123.778 456.719C123.489 456.445 123.321 456.068 123.31 455.67C123.299 455.272 123.447 454.886 123.721 454.598C123.995 454.309 124.372 454.141 124.77 454.13L176 451.38C176.397 451.363 176.784 451.503 177.079 451.768C177.375 452.033 177.554 452.404 177.58 452.8C177.599 453.196 177.46 453.584 177.194 453.878C176.928 454.172 176.556 454.349 176.16 454.37L124.91 457.12L124.85 457.13Z" fill="#26E0AC" stroke="#263238" stroke-linecap="round" stroke-linejoin="round"/>
<path d="M179.31 451.93C179.433 452.359 179.52 452.797 179.57 453.24L182.06 452.4L179.31 451.93Z" fill="white" stroke="#263238" stroke-linecap="round" stroke-linejoin="round"/>
<path d="M129.25 453.89L124.77 454.13C124.372 454.141 123.995 454.309 123.721 454.598C123.447 454.886 123.299 455.272 123.31 455.67C123.321 456.068 123.489 456.445 123.778 456.719C124.067 456.993 124.452 457.141 124.85 457.13H124.94L129.39 456.88C129.669 456.734 129.9 456.512 130.057 456.239C130.214 455.966 130.289 455.655 130.274 455.34C130.26 455.026 130.155 454.723 129.974 454.466C129.792 454.209 129.541 454.009 129.25 453.89V453.89Z" fill="white" stroke="#263238" stroke-linecap="round" stroke-linejoin="round"/>
<path d="M205.82 453.85L211.94 453.93L206.43 456.79L205.82 453.85Z" fill="white" stroke="#263238" stroke-linecap="round" stroke-linejoin="round"/>
<path d="M156.12 467.35C155.722 467.422 155.312 467.332 154.981 467.102C154.649 466.871 154.422 466.518 154.35 466.12C154.279 465.722 154.368 465.312 154.599 464.98C154.829 464.648 155.182 464.422 155.58 464.35L205.82 453.8C206.21 453.719 206.616 453.796 206.949 454.015C207.282 454.233 207.514 454.575 207.595 454.965C207.676 455.355 207.599 455.761 207.38 456.094C207.162 456.427 206.82 456.659 206.43 456.74L156.2 467.33L156.12 467.35Z" fill="#26E0AC" stroke="#263238" stroke-linecap="round" stroke-linejoin="round"/>
<path d="M209.14 453.9C209.331 454.302 209.485 454.72 209.6 455.15L211.94 453.93L209.14 453.9Z" fill="white" stroke="#263238" stroke-linecap="round" stroke-linejoin="round"/>
<path d="M160 463.48L155.61 464.4C155.212 464.472 154.859 464.698 154.628 465.03C154.398 465.362 154.308 465.772 154.38 466.17C154.452 466.568 154.678 466.921 155.01 467.152C155.342 467.382 155.752 467.472 156.15 467.4H156.23L160.59 466.47C160.861 466.289 161.073 466.032 161.198 465.731C161.323 465.429 161.356 465.098 161.293 464.778C161.23 464.458 161.073 464.164 160.843 463.933C160.613 463.702 160.32 463.544 160 463.48V463.48Z" fill="white" stroke="#263238" stroke-linecap="round" stroke-linejoin="round"/>
<path d="M403.12 442.93L409.24 443.02L403.74 445.87L403.12 442.93Z" fill="white" stroke="#263238" stroke-linecap="round" stroke-linejoin="round"/>
<path d="M353.42 456.43C353.037 456.482 352.648 456.384 352.336 456.157C352.023 455.929 351.81 455.59 351.742 455.209C351.674 454.828 351.755 454.436 351.969 454.114C352.183 453.792 352.513 453.565 352.89 453.48L403.12 442.93C403.509 442.853 403.914 442.931 404.246 443.147C404.579 443.364 404.813 443.703 404.9 444.09C404.941 444.283 404.943 444.482 404.907 444.676C404.871 444.87 404.797 445.055 404.689 445.221C404.582 445.386 404.442 445.529 404.279 445.64C404.116 445.751 403.933 445.83 403.74 445.87L353.5 456.42L353.42 456.43Z" fill="#26E0AC" stroke="#263238" stroke-linecap="round" stroke-linejoin="round"/>
<path d="M406.45 443C406.63 443.405 406.781 443.823 406.9 444.25L409.24 443.04L406.45 443Z" fill="white" stroke="#263238" stroke-linecap="round" stroke-linejoin="round"/>
<path d="M357.28 452.56L352.89 453.48C352.513 453.565 352.183 453.792 351.969 454.114C351.755 454.436 351.674 454.828 351.742 455.209C351.81 455.59 352.023 455.929 352.336 456.156C352.648 456.384 353.037 456.482 353.42 456.43H353.5L357.86 455.49C358.112 455.304 358.306 455.051 358.42 454.759C358.533 454.466 358.561 454.148 358.5 453.841C358.439 453.534 358.292 453.25 358.076 453.023C357.86 452.796 357.584 452.636 357.28 452.56V452.56Z" fill="white" stroke="#263238" stroke-linecap="round" stroke-linejoin="round"/>
<path d="M250.04 415.25L217.65 459.59L275.88 464.22L302.1 417.56L250.04 415.25Z" fill="#26E0AC" stroke="#263238" stroke-linecap="round" stroke-linejoin="round"/>
<path d="M217.65 459.59L219.19 462.29L275.88 466.92V464.22L217.65 459.59Z" fill="white" stroke="#263238" stroke-linecap="round" stroke-linejoin="round"/>
<path d="M275.88 466.92L301.71 421.03L302.1 417.56L275.88 464.22V466.92Z" fill="#263238" stroke="#263238" stroke-linecap="round" stroke-linejoin="round"/>
<path d="M250.39 418.34C250.39 418.34 246.39 416.09 245.87 420.15" stroke="#263238" stroke-linecap="round" stroke-linejoin="round"/>
<path d="M248.19 421.44C248.19 421.44 244.19 419.19 243.67 423.25" stroke="#263238" stroke-linecap="round" stroke-linejoin="round"/>
<path d="M246 424.53C246 424.53 242 422.29 241.48 426.35" stroke="#263238" stroke-linecap="round" stroke-linejoin="round"/>
<path d="M243.79 427.63C243.79 427.63 239.79 425.38 239.27 429.44" stroke="#263238" stroke-linecap="round" stroke-linejoin="round"/>
<path d="M241.59 430.73C241.59 430.73 237.59 428.48 237.07 432.54" stroke="#263238" stroke-linecap="round" stroke-linejoin="round"/>
<path d="M239.39 433.82C239.39 433.82 235.39 431.58 234.87 435.64" stroke="#263238" stroke-linecap="round" stroke-linejoin="round"/>
<path d="M237.19 436.92C237.19 436.92 233.19 434.67 232.67 438.73" stroke="#263238" stroke-linecap="round" stroke-linejoin="round"/>
<path d="M235 440C235 440 231 437.75 230.47 441.81" stroke="#263238" stroke-linecap="round" stroke-linejoin="round"/>
<path d="M232.8 443.11C232.8 443.11 228.8 440.87 228.28 444.93" stroke="#263238" stroke-linecap="round" stroke-linejoin="round"/>
<path d="M230.6 446.21C230.6 446.21 226.6 443.96 226.08 448.03" stroke="#263238" stroke-linecap="round" stroke-linejoin="round"/>
<path d="M228.4 449.31C228.4 449.31 224.4 447.06 223.88 451.12" stroke="#263238" stroke-linecap="round" stroke-linejoin="round"/>
<path d="M226.2 452.4C226.2 452.4 222.2 450.16 221.68 454.22" stroke="#263238" stroke-linecap="round" stroke-linejoin="round"/>
<path d="M27.6699 399.63H482.33" stroke="#263238" stroke-linecap="round" stroke-linejoin="round"/>
<path d="M266.46 399.32L271.32 373.53L365.4 379.31L367.12 399.32H266.46Z" fill="#263238" stroke="#263238" stroke-linecap="round" stroke-linejoin="round"/>
<path d="M318 221.6C318 221.6 305.27 217.36 292.93 221.6C280.59 225.84 277.93 238.95 274.42 247.05C270.91 255.15 254.42 288.31 254.42 288.31L283.73 298.72L271.39 373.53C271.39 373.53 291.44 379.31 308.79 381.63C326.14 383.95 366.63 379.31 366.63 379.31V279.83L376.63 307.21C376.63 307.21 387.81 306.82 395.91 301.81C401.202 298.354 405.891 294.054 409.79 289.08C409.79 289.08 375.47 242.42 372.79 235.87C370.11 229.32 354.28 222.76 347.73 221.6C341.18 220.44 318 221.6 318 221.6Z" fill="white"/>
<path d="M368.21 284.32L409.06 288.14L407.48 286L367.48 282.26L368.21 284.32Z" fill="#263238"/>
<path d="M366.56 315.62L282.06 308.37L281.74 310.35L366.56 317.63V315.62Z" fill="#263238"/>
<path d="M366.56 334.68L279.13 326.16L278.8 328.14L366.56 336.69V334.68Z" fill="#263238"/>
<path d="M366.56 282.16L262.24 272.42L261.29 274.34L366.56 284.17V282.16Z" fill="#263238"/>
<path d="M366.56 300.97V298.96L260.84 290.62L268.1 293.19L366.56 300.97Z" fill="#263238"/>
<path d="M396.6 301.33L373.78 299.53L374.53 301.6L393.53 303.1C394.33 302.71 395.12 302.28 395.88 301.81L396.6 301.33Z" fill="#263238"/>
<path d="M383.26 252.19L276 243.1C275.75 243.76 275.51 244.41 275.26 245.04L384.8 254.33L383.26 252.19Z" fill="#263238"/>
<path d="M366.56 375.39L273.18 362.21L272.86 364.18L366.56 377.41V375.39Z" fill="#263238"/>
<path d="M282.24 229.83L372.99 236.43L372.73 235.87C372.504 235.332 372.215 234.821 371.87 234.35L283.7 227.93C283.18 228.54 282.7 229.18 282.24 229.83Z" fill="#263238"/>
<path d="M275.67 347.16L366.56 358.96V356.94L275.99 345.19L275.67 347.16Z" fill="#263238"/>
<path d="M268.51 259.6L267.57 261.53L396.81 271.28L395.28 269.16L268.51 259.6Z" fill="#263238"/>
<path d="M283.66 298.72L292.91 252.06L280.47 294.81L283.51 295.24" fill="#263238"/>
<path d="M366.56 279.83L364.75 262.66L379.55 306.68L376.59 307.21L366.56 279.83Z" fill="#263238"/>
<path d="M318 221.6C318 221.6 305.27 217.36 292.93 221.6C280.59 225.84 277.93 238.95 274.42 247.05C270.91 255.15 254.42 288.31 254.42 288.31L283.73 298.72L271.39 373.53C271.39 373.53 291.44 379.31 308.79 381.63C326.14 383.95 366.63 379.31 366.63 379.31V279.83L376.63 307.21C376.63 307.21 387.81 306.82 395.91 301.81C401.202 298.354 405.891 294.054 409.79 289.08C409.79 289.08 375.47 242.42 372.79 235.87C370.11 229.32 354.28 222.76 347.73 221.6C341.18 220.44 318 221.6 318 221.6Z" stroke="#263238" stroke-miterlimit="10"/>
<path d="M314.89 221.62C311.174 225.197 308.849 229.978 308.33 235.11C307.56 243.6 305.64 265.58 305.64 265.58C305.64 265.58 314.5 259.41 317.98 257.86C321.46 256.31 327.62 256.32 327.62 256.32C327.62 256.32 336.48 258.25 338.8 259.79C341.12 261.33 351.52 267.51 351.52 267.51C351.52 267.51 349.21 240.9 346.9 232C344.59 223.1 338.41 220.43 328.39 220.43C318.37 220.43 314.89 221.62 314.89 221.62Z" fill="#263238" stroke="#263238" stroke-linecap="round" stroke-linejoin="round"/>
<path d="M314.89 220.06C311.174 223.637 308.849 228.418 308.33 233.55C307.56 242.04 305.64 264.02 305.64 264.02C305.64 264.02 314.5 257.85 317.98 256.31C321.46 254.77 327.62 254.76 327.62 254.76C327.62 254.76 336.48 256.69 338.8 258.23C341.12 259.77 351.52 266 351.52 266C351.52 266 349.21 239.39 346.9 230.52C344.59 221.65 338.41 218.95 328.39 218.95C318.37 218.95 314.89 220.06 314.89 220.06Z" fill="#26E0AC" stroke="#263238" stroke-linecap="round" stroke-linejoin="round"/>
<path d="M317.59 225.46C317.59 225.46 321.45 253.22 326.07 259.78C330.69 266.34 338.07 234.33 338.07 234.33L317.59 225.46Z" fill="white" stroke="#263238" stroke-linecap="round" stroke-linejoin="round"/>
<path d="M319.56 237.35C323.84 241.35 328.56 244.08 332.96 243.62C333.972 243.495 334.953 243.194 335.86 242.73C337.17 238.07 338.03 234.33 338.03 234.33L317.59 225.46C317.59 225.46 318.33 230.8 319.56 237.35Z" fill="#263238" stroke="#263238" stroke-linecap="round" stroke-linejoin="round"/>
<path d="M303.71 192.68C303.71 192.68 299.85 186.51 297.15 190.37C294.45 194.23 296 199.24 299.08 204.25C302.16 209.26 307.95 212.73 309.08 209.25C310.21 205.77 303.71 192.68 303.71 192.68Z" fill="white" stroke="#263238" stroke-linecap="round" stroke-linejoin="round"/>
<path d="M363 195.38C363 195.38 366.86 189.21 369.56 193.07C372.26 196.93 370.72 201.93 367.63 206.95C364.54 211.97 358.76 215.43 357.63 211.95C356.5 208.47 363 195.38 363 195.38Z" fill="white" stroke="#263238" stroke-linecap="round" stroke-linejoin="round"/>
<path d="M304.09 197.69C304.09 197.69 307.95 215.82 313.35 224.3C318.75 232.78 327.23 240.88 334.56 240.11C341.89 239.34 350.37 226.23 354.22 218.9C358.07 211.57 361.55 207.33 363.09 197.31C364.63 187.29 366.18 180.31 362.71 174.17C359.24 168.03 342.27 158.75 322.6 161.06C302.93 163.37 302.94 175.71 303.32 179.57C303.7 183.43 302.94 197.69 304.09 197.69Z" fill="white" stroke="#263238" stroke-linecap="round" stroke-linejoin="round"/>
<path d="M326.84 205.6C326.84 207.6 326.07 209.26 325.11 209.26C324.15 209.26 323.37 207.62 323.37 205.6C323.37 203.58 324.15 201.93 325.11 201.93C326.07 201.93 326.84 203.57 326.84 205.6Z" fill="#263238"/>
<path d="M343.42 206.27C343.31 208.27 342.42 209.89 341.48 209.83C340.54 209.77 339.84 208.1 339.96 206.08C340.08 204.06 340.96 202.46 341.9 202.52C342.84 202.58 343.54 204.25 343.42 206.27Z" fill="#263238"/>
<path d="M328.77 216.2C328.77 216.2 333.4 222.37 337.64 215.43" stroke="#263238" stroke-linecap="round" stroke-linejoin="round"/>
<path d="M324.92 220.83C324.92 220.83 328.77 227 334.92 225.83C341.07 224.66 343.79 218.89 343.79 218.89" stroke="#263238" stroke-linecap="round" stroke-linejoin="round"/>
<path d="M339.18 198.08C340.637 197.554 342.229 197.534 343.699 198.024C345.168 198.514 346.43 199.485 347.28 200.78" stroke="#263238" stroke-linecap="round" stroke-linejoin="round"/>
<path d="M325.69 198.46C325.69 198.46 319.13 194.61 316.43 202.71" stroke="#263238" stroke-linecap="round" stroke-linejoin="round"/>
<path d="M311 181.88C313.688 183.041 316.707 183.18 319.49 182.27C322.124 181.479 324.341 179.683 325.66 177.27C325.66 177.27 325.27 183.82 320.26 187.68C315.25 191.54 311 193.08 314.09 195C317.18 196.92 327.2 202.72 340.7 193.85C354.2 184.98 355 179.18 355 179.18C355 179.18 350.38 188.05 354.23 187.67C358.08 187.29 360.79 178.41 360.79 178.41C360.79 178.41 357.32 188.82 358.86 192.29C360.4 195.76 361.94 200.78 361.94 200.78C361.94 200.78 358.47 206.95 360.79 206.56C363.11 206.17 367 188.82 367 188.82C367 188.82 370.85 176.48 370.85 165.3C370.85 154.12 365.28 144.72 358.34 140.86C351.4 137 329.93 129.76 315.87 137.95C304.06 144.83 297.59 163.37 298.36 169.16C299.13 174.95 304.14 197.69 304.14 197.69C304.14 197.69 306.46 201.16 307.23 198.08C307.663 195.787 307.663 193.433 307.23 191.14C308.553 190.01 309.586 188.58 310.242 186.969C310.898 185.357 311.158 183.612 311 181.88Z" fill="#263238" stroke="#263238" stroke-linecap="round" stroke-linejoin="round"/>
<path d="M333.79 410.16L305.64 426.36L316.05 429.06L339.18 416.72L333.79 410.16Z" fill="#263238" stroke="#263238" stroke-linecap="round" stroke-linejoin="round"/>
<path d="M316.05 429.06C320.392 435.14 326.062 440.15 332.63 443.71C343.43 449.5 344.97 449.5 344.97 449.5L330.7 452.19C330.7 452.19 318.36 447.19 314.5 441.78C310.64 436.37 305.64 426.36 305.64 426.36L316.05 429.06Z" fill="#263238" stroke="#263238" stroke-linecap="round" stroke-linejoin="round"/>
<path d="M427.1 397.82L446.77 395.9L442.91 401.29L425.56 403.22L427.1 397.82Z" fill="#263238" stroke="#263238" stroke-linecap="round" stroke-linejoin="round"/>
<path d="M442.91 401.29L465.66 407.85L475.3 407.46L476.46 402.07C476.46 402.07 467.21 402.45 464.89 402.45C462.57 402.45 446.77 395.9 446.77 395.9L442.91 401.29Z" fill="#263238" stroke="#263238" stroke-linecap="round" stroke-linejoin="round"/>
<path d="M305.25 333.81C305.25 333.81 304.85 334.03 304.25 334.42C302.49 335.57 298.97 338.16 298.68 340.75C298.3 344.22 294.44 357.33 297.53 367.75C300.62 378.17 331.46 408.62 337.25 417.49C343.04 426.36 359.61 436.77 380.82 428.67C402.03 420.57 426.32 410.16 428.25 401.29C430.18 392.42 425.94 380.09 422.47 375.07C419 370.05 403.96 360.07 395.47 353.48C386.98 346.89 353.83 326.48 346.89 324.94C339.95 323.4 312.19 329.57 305.25 333.81Z" fill="#8083FF" stroke="#263238" stroke-linecap="round" stroke-linejoin="round"/>
<path d="M428.26 401.29C430.19 392.43 425.95 380.09 422.48 375.07C419.18 370.32 405.48 361.07 396.83 354.51C385.06 359.37 371.09 366.87 355.67 375.33C336.61 385.8 329.08 396.33 326.4 404.46C331.4 410.03 335.48 414.77 337.26 417.46C343.04 426.33 359.62 436.74 380.83 428.64C402.04 420.54 426.33 410.16 428.26 401.29Z" fill="#788084" stroke="black" stroke-miterlimit="10"/>
<path d="M301.78 328.8L301.54 331.26L315.06 355.14L315.49 352.98L301.78 328.8Z" fill="white" stroke="#263238" stroke-linecap="round" stroke-linejoin="round"/>
<path d="M325.3 370.83L301.78 328.8L355.76 311.83L376.2 350.39L325.3 370.83Z" fill="white" stroke="#263238" stroke-linecap="round" stroke-linejoin="round"/>
<path d="M304.37 329.94C304.37 329.94 300.8 331.31 303.32 334.71" stroke="#263238" stroke-linecap="round" stroke-linejoin="round"/>
<path d="M306 332.92C306 332.92 302.43 334.29 304.95 337.69" stroke="#263238" stroke-linecap="round" stroke-linejoin="round"/>
<path d="M307.66 335.91C307.66 335.91 304.09 337.28 306.61 340.68" stroke="#263238" stroke-linecap="round" stroke-linejoin="round"/>
<path d="M309.3 338.9C309.3 338.9 305.74 340.27 308.25 343.67" stroke="#263238" stroke-linecap="round" stroke-linejoin="round"/>
<path d="M311 341.88C311 341.88 307.43 343.25 309.95 346.65" stroke="#263238" stroke-linecap="round" stroke-linejoin="round"/>
<path d="M312.6 344.87C312.6 344.87 309.03 346.24 311.55 349.64" stroke="#263238" stroke-linecap="round" stroke-linejoin="round"/>
<path d="M314.24 347.86C314.24 347.86 310.67 349.23 313.19 352.63" stroke="#263238" stroke-linecap="round" stroke-linejoin="round"/>
<path d="M294.84 298.72C294.84 298.72 264.38 289.85 258.59 289.47C252.8 289.09 252.72 296.47 255.42 302.3C258.12 308.13 273.63 316.46 285.2 316.85C296.77 317.24 316.05 320.7 316.05 320.7C316.05 320.7 321.45 331.88 322.6 334.2C323.75 336.52 327.6 341.91 327.6 341.91L350.73 336.51C350.73 336.51 338.39 323.79 332.61 316.07C326.83 308.35 294.84 298.72 294.84 298.72Z" fill="white" stroke="#263238" stroke-linecap="round" stroke-linejoin="round"/>
<path d="M359.24 330.73C358.08 331.11 346.12 331.5 332.24 337.28C318.36 343.06 315.24 345.38 313.35 352.71C311.46 360.04 311.42 361.96 316.05 370.83C320.68 379.7 341.5 407.83 355.38 409.78C369.26 411.73 396.64 403.99 406.28 398.21C415.92 392.43 419.78 382.01 418.28 378.21C416.78 374.41 407.1 361.21 393.99 348.52C380.88 335.83 359.24 330.73 359.24 330.73Z" fill="#8083FF" stroke="#263238" stroke-linecap="round" stroke-linejoin="round"/>
<path d="M395.87 301.81C392.585 303.738 389.013 305.132 385.29 305.94L378.13 334.58C378.13 334.58 358.85 323.79 356.13 324.58C353.41 325.37 347.65 335.38 347.26 338.07C346.87 340.76 346.49 343.86 348.03 344.63C349.57 345.4 363.84 349.26 366.93 349.26C369.035 349.197 371.117 348.806 373.1 348.1L373.48 344.63C373.48 344.63 378.11 348.49 381.58 346.17C383.714 344.702 385.435 342.712 386.58 340.39C386.58 340.39 406.25 303.76 407.79 299.13C409.01 295.46 409.26 292.77 407.97 291.23C404.464 295.317 400.389 298.88 395.87 301.81V301.81Z" fill="white" stroke="#263238" stroke-linecap="round" stroke-linejoin="round"/>
<path d="M357.31 327.64C357.31 327.64 351.14 339.98 351.14 341.91C351.152 343.108 351.414 344.29 351.91 345.38" fill="white"/>
<path d="M357.31 327.64C357.31 327.64 351.14 339.98 351.14 341.91C351.152 343.108 351.414 344.29 351.91 345.38" stroke="#263238" stroke-linecap="round" stroke-linejoin="round"/>
<path d="M361.16 329.19C361.16 329.19 354.99 342.68 357.69 347.31Z" fill="white"/>
<path d="M361.16 329.19C361.16 329.19 354.99 342.68 357.69 347.31" stroke="#263238" stroke-linecap="round" stroke-linejoin="round"/>
<path d="M366.18 332.66C366.18 332.66 362.71 343.84 363.48 345C364.25 346.16 365.41 348.47 366.95 349.24" fill="white"/>
<path d="M366.18 332.66C366.18 332.66 362.71 343.84 363.48 345C364.25 346.16 365.41 348.47 366.95 349.24" stroke="#263238" stroke-linecap="round" stroke-linejoin="round"/>
<path d="M418.23 378.16C417.535 376.65 416.701 375.207 415.74 373.85C416.09 378.65 414.68 382.72 411.29 387.03C407.05 392.43 373.89 404.38 361.16 403.61C348.43 402.84 329.16 379.7 321.83 369.29C314.83 359.37 316.27 347.36 316.42 346.24C314.907 348.128 313.856 350.344 313.35 352.71C311.42 360.03 311.42 361.96 316.05 370.83C320.68 379.7 341.5 407.83 355.38 409.78C369.26 411.73 396.64 403.99 406.28 398.21C415.92 392.43 419.78 382 418.23 378.16Z" fill="white" stroke="#263238" stroke-linecap="round" stroke-linejoin="round"/>
<path d="M186.09 170.5C186.09 170.5 195.59 208.5 211.59 229C227.59 249.5 242.09 256 241.59 280.5C241.09 305 224.09 305.5 208.59 305.5C193.09 305.5 182.59 290.5 167.59 289.5C152.59 288.5 149.09 280 151.59 261.5C154.09 243 170.4 178.55 172.59 172.5C174.78 166.45 183.59 167.5 186.09 170.5Z" fill="#263238" stroke="#263238" stroke-linecap="round" stroke-linejoin="round"/>
<path d="M150.16 237.73C150.16 237.73 129.65 244.42 126.53 247.99C123.41 251.56 94 289.47 94 293.93C94 298.39 98 301.51 105.15 301.06C112.3 300.61 134.58 279.21 134.58 279.21V351.91C134.58 356.81 120.31 399.63 120.31 399.63H227.77L208.59 351.91C208.59 351.91 211.71 274.3 211.27 267.61C210.83 260.92 212.16 253.79 208.59 248.88C205.02 243.97 183.17 237.29 179.15 236.88C175.13 236.47 156 235.5 150.16 237.73Z" fill="#263238" stroke="#263238" stroke-linecap="round" stroke-linejoin="round"/>
<path d="M137.41 282.31L139.47 241.54C133.96 243.66 128.08 246.21 126.53 247.99C123.4 251.56 94 289.47 94 293.93C94 298.39 98 301.51 105.15 301.06C112.3 300.61 134.58 279.21 134.58 279.21V284.79C136.33 283.26 137.41 282.31 137.41 282.31Z" fill="white" stroke="#263238" stroke-linecap="round" stroke-linejoin="round"/>
<path d="M208.59 351.91C208.59 351.91 211.71 274.3 211.27 267.61C210.83 260.92 212.16 253.79 208.59 248.88C205.02 243.97 183.17 237.29 179.15 236.88C175.13 236.47 155.96 235.54 150.15 237.77C150.15 237.77 142.5 240.27 135.83 243.02L135.08 244.54L134.54 279.25V351.32C143.04 355.92 169.41 366.88 208.97 352.93L208.59 351.91Z" fill="#8083FF"/>
<path d="M182 269.33C182.135 269.556 182.321 269.746 182.543 269.885C182.766 270.024 183.019 270.108 183.28 270.13C184.033 270.166 184.785 270.032 185.48 269.74C184.98 270.67 184.41 271.93 184.61 272.56C184.94 273.62 186.67 273.8 187.4 273.83H187.71C188.71 273.83 190.13 273.65 190.4 272.97C190.527 272.237 190.469 271.484 190.23 270.78C190.559 271.085 190.97 271.287 191.412 271.364C191.853 271.44 192.308 271.387 192.72 271.21C193.157 271.01 193.541 270.71 193.841 270.335C194.142 269.96 194.35 269.52 194.45 269.05C194.561 268.677 194.59 268.285 194.535 267.9C194.48 267.515 194.342 267.146 194.13 266.82C193.59 266.15 191.95 266.05 190.95 266.05C191.445 265.306 191.732 264.443 191.78 263.55C191.78 262.88 191.25 262.29 190.31 261.95C189.1 261.5 187.42 261.53 186.71 262.35C186.406 262.759 186.207 263.236 186.128 263.739C186.05 264.243 186.095 264.758 186.26 265.24L186.12 265.44C185.32 265.21 182.97 264.73 182.19 266.59C181.954 267.003 181.815 267.464 181.782 267.938C181.749 268.413 181.824 268.888 182 269.33V269.33ZM189.72 272.7C188.782 273.131 187.73 273.247 186.72 273.03C185.93 272.91 185.41 272.65 185.31 272.34C185.21 272.03 185.91 270.34 186.67 269.17C187.1 269.536 187.646 269.738 188.21 269.74C188.504 269.738 188.795 269.684 189.07 269.58C189.49 270.568 189.714 271.627 189.73 272.7H189.72ZM189.91 267.27C189.91 267.604 189.811 267.931 189.625 268.209C189.44 268.487 189.176 268.703 188.867 268.831C188.558 268.959 188.218 268.993 187.891 268.928C187.563 268.862 187.262 268.701 187.025 268.465C186.789 268.229 186.628 267.928 186.563 267.6C186.498 267.272 186.531 266.932 186.659 266.623C186.787 266.314 187.003 266.051 187.281 265.865C187.559 265.679 187.886 265.58 188.22 265.58C188.443 265.579 188.664 265.621 188.87 265.706C189.076 265.79 189.264 265.914 189.422 266.071C189.58 266.228 189.705 266.415 189.791 266.621C189.876 266.827 189.92 267.047 189.92 267.27H189.91ZM193.55 267.27C193.691 267.509 193.781 267.775 193.813 268.05C193.846 268.325 193.821 268.605 193.74 268.87C193.659 269.229 193.497 269.566 193.267 269.853C193.036 270.141 192.743 270.372 192.41 270.53C191.11 271.12 189.95 269.46 189.73 269.14C190.082 268.868 190.35 268.502 190.504 268.085C190.658 267.668 190.691 267.215 190.6 266.78C191.73 266.77 193.24 266.89 193.56 267.29L193.55 267.27ZM187.27 262.82C187.682 262.557 188.154 262.402 188.641 262.369C189.128 262.336 189.616 262.426 190.06 262.63C190.68 262.86 191.06 263.2 191.06 263.54C190.992 264.372 190.695 265.168 190.2 265.84C189.971 265.526 189.669 265.271 189.322 265.097C188.974 264.923 188.589 264.835 188.2 264.84C187.777 264.842 187.362 264.96 187 265.18V265.18C186.849 264.797 186.796 264.383 186.845 263.975C186.893 263.566 187.043 263.176 187.28 262.84L187.27 262.82ZM182.87 266.82C183.46 265.41 185.62 266 186.05 266.14C185.884 266.472 185.795 266.838 185.79 267.21C185.79 267.7 185.94 268.178 186.22 268.58V268.58C185.353 269.043 184.392 269.303 183.41 269.34C183.263 269.328 183.12 269.283 182.992 269.208C182.864 269.134 182.754 269.032 182.67 268.91C182.568 268.575 182.534 268.222 182.57 267.874C182.606 267.525 182.712 267.187 182.88 266.88L182.87 266.82Z" fill="white"/>
<path d="M176.134 348.479C176.213 347.975 176.414 347.498 176.72 347.09C177.43 346.26 179.1 346.23 180.32 346.68C181.25 347.03 181.79 347.61 181.79 348.29C181.737 349.18 181.447 350.04 180.95 350.78C181.96 350.79 183.59 350.89 184.13 351.56C184.341 351.887 184.479 352.255 184.536 352.639C184.593 353.024 184.567 353.416 184.46 353.79C184.358 354.259 184.148 354.699 183.846 355.072C183.544 355.445 183.158 355.743 182.72 355.94C182.309 356.119 181.855 356.175 181.413 356.1C180.97 356.026 180.56 355.824 180.23 355.52C180.474 356.223 180.533 356.977 180.4 357.71C180.13 358.39 178.71 358.56 177.71 358.56H177.4C176.68 358.53 174.94 358.35 174.61 357.29C174.42 356.66 174.99 355.4 175.49 354.47C174.79 354.758 174.036 354.891 173.28 354.86C173.02 354.836 172.77 354.752 172.549 354.613C172.328 354.474 172.143 354.284 172.01 354.06C171.832 353.62 171.757 353.146 171.79 352.673C171.823 352.2 171.963 351.741 172.2 351.33C172.97 349.47 175.32 349.95 176.12 350.18L176.27 349.98C176.102 349.498 176.056 348.983 176.134 348.479Z" fill="white"/>
<path d="M137.45 242.33C137.428 242.697 137.504 243.062 137.67 243.39C137.804 243.616 137.99 243.806 138.213 243.945C138.436 244.084 138.688 244.168 138.95 244.19C139.707 244.229 140.462 244.096 141.16 243.8C140.65 244.73 140.08 245.99 140.28 246.62C140.61 247.68 142.34 247.86 143.07 247.89H143.38C144.38 247.89 145.8 247.71 146.07 247.04C146.202 246.304 146.144 245.547 145.9 244.84C146.229 245.145 146.639 245.347 147.081 245.424C147.523 245.5 147.978 245.447 148.39 245.27C148.826 245.069 149.209 244.771 149.511 244.398C149.813 244.025 150.025 243.588 150.13 243.12C150.237 242.745 150.263 242.351 150.206 241.964C150.149 241.578 150.011 241.209 149.8 240.88C149.26 240.21 147.62 240.12 146.62 240.11C146.889 239.667 147.104 239.194 147.26 238.7L146.37 239.01C146.229 239.325 146.058 239.627 145.86 239.91C145.715 239.705 145.535 239.525 145.33 239.38L144.33 239.71C144.63 239.801 144.899 239.973 145.106 240.208C145.314 240.443 145.452 240.731 145.505 241.04C145.559 241.349 145.525 241.666 145.408 241.957C145.291 242.248 145.096 242.501 144.844 242.687C144.592 242.873 144.293 242.985 143.98 243.011C143.668 243.038 143.355 242.976 143.075 242.834C142.796 242.693 142.561 242.476 142.398 242.208C142.234 241.941 142.148 241.633 142.15 241.32C142.154 240.993 142.251 240.674 142.43 240.4L141.49 240.75C141.446 240.937 141.422 241.128 141.42 241.32C141.416 241.809 141.563 242.287 141.84 242.69V242.69C140.976 243.152 140.019 243.412 139.04 243.45C138.891 243.439 138.746 243.395 138.616 243.32C138.486 243.246 138.375 243.143 138.29 243.02C138.158 242.703 138.13 242.353 138.21 242.02L137.45 242.33ZM146.32 241.33C146.335 241.174 146.335 241.016 146.32 240.86C147.43 240.86 148.94 240.95 149.26 241.35C149.401 241.589 149.49 241.855 149.523 242.13C149.556 242.405 149.531 242.685 149.45 242.95C149.369 243.309 149.207 243.646 148.976 243.933C148.746 244.221 148.453 244.452 148.12 244.61C146.83 245.2 145.66 243.54 145.45 243.22C145.726 242.989 145.947 242.7 146.097 242.373C146.248 242.046 146.324 241.69 146.32 241.33V241.33ZM142.32 243.23C142.75 243.596 143.295 243.798 143.86 243.8C144.154 243.799 144.445 243.745 144.72 243.64C145.137 244.641 145.355 245.715 145.36 246.8C144.422 247.232 143.369 247.348 142.36 247.13C141.58 247.01 141.05 246.75 140.95 246.44C140.85 246.13 141.59 244.44 142.34 243.23H142.32Z" fill="white"/>
<path d="M210.32 305.76C209.382 306.192 208.329 306.308 207.32 306.09C206.54 305.97 206.01 305.71 205.91 305.4C205.81 305.09 206.52 303.4 207.27 302.23C207.7 302.596 208.246 302.798 208.81 302.8C209.104 302.799 209.395 302.745 209.67 302.64C209.974 303.483 210.195 304.354 210.33 305.24C210.33 304.3 210.4 303.35 210.43 302.41C210.391 302.364 210.357 302.314 210.33 302.26L210.44 302.16L210.5 300.45C210.486 300.901 210.294 301.328 209.968 301.64C209.641 301.951 209.205 302.122 208.753 302.115C208.302 302.107 207.872 301.923 207.555 301.601C207.238 301.28 207.061 300.846 207.061 300.395C207.061 299.943 207.238 299.51 207.555 299.188C207.872 298.867 208.302 298.682 208.753 298.675C209.205 298.668 209.641 298.838 209.968 299.15C210.294 299.461 210.486 299.889 210.5 300.34L210.56 298.69C210.334 298.454 210.062 298.267 209.761 298.14C209.46 298.013 209.137 297.948 208.81 297.95C208.388 297.95 207.973 298.064 207.61 298.28V298.28C207.457 297.901 207.399 297.49 207.443 297.084C207.486 296.677 207.63 296.288 207.86 295.95C208.275 295.694 208.746 295.543 209.232 295.51C209.718 295.477 210.205 295.563 210.65 295.76V295.76V295C209.46 294.63 207.94 294.7 207.27 295.47C206.965 295.878 206.765 296.356 206.688 296.86C206.611 297.364 206.66 297.879 206.83 298.36L206.68 298.56C205.88 298.33 203.53 297.85 202.76 299.71C202.525 300.121 202.385 300.58 202.35 301.052C202.316 301.525 202.387 301.999 202.56 302.44C202.694 302.665 202.881 302.856 203.103 302.995C203.326 303.134 203.579 303.218 203.84 303.24C204.597 303.279 205.353 303.146 206.05 302.85C205.54 303.78 204.97 305.04 205.17 305.67C205.5 306.73 207.23 306.91 207.96 306.94H208.27C208.948 306.957 209.625 306.859 210.27 306.65V305.78L210.32 305.76ZM203.98 302.46C203.833 302.447 203.69 302.402 203.562 302.328C203.434 302.254 203.324 302.152 203.24 302.03C203.135 301.685 203.102 301.323 203.143 300.965C203.185 300.607 203.299 300.261 203.48 299.95C204.06 298.53 206.22 299.13 206.66 299.26C206.493 299.592 206.404 299.958 206.4 300.33C206.397 300.819 206.543 301.297 206.82 301.7V301.7C205.95 302.165 204.986 302.425 204 302.46H203.98Z" fill="white"/>
<path d="M136.85 342.78C136.34 343.72 135.78 344.97 135.97 345.6C136.3 346.66 138.03 346.84 138.76 346.87H139.07C140.07 346.87 141.49 346.69 141.76 346.02C141.893 345.287 141.834 344.533 141.59 343.83C141.922 344.131 142.332 344.33 142.774 344.405C143.215 344.479 143.669 344.425 144.08 344.25C144.516 344.049 144.9 343.751 145.202 343.378C145.503 343.005 145.715 342.568 145.82 342.1C145.927 341.724 145.953 341.331 145.897 340.944C145.84 340.558 145.701 340.188 145.49 339.86C144.95 339.19 143.31 339.1 142.31 339.09C142.809 338.347 143.099 337.483 143.15 336.59C143.15 335.92 142.61 335.33 141.67 334.99C140.46 334.54 138.78 334.57 138.08 335.4C137.774 335.806 137.573 336.281 137.494 336.783C137.416 337.286 137.463 337.8 137.63 338.28L137.48 338.48C136.523 338.172 135.489 338.201 134.55 338.56V339.45C135.38 338.66 137.04 339.12 137.42 339.23C137.252 339.565 137.163 339.935 137.16 340.31C137.158 340.795 137.305 341.27 137.58 341.67V341.67C136.719 342.14 135.761 342.404 134.78 342.44L134.58 342.37V343.14H134.67C135.414 343.179 136.158 343.056 136.85 342.78V342.78ZM144.91 340.33C145.053 340.57 145.143 340.837 145.176 341.115C145.208 341.392 145.183 341.673 145.1 341.94C145.021 342.297 144.86 342.632 144.632 342.918C144.403 343.204 144.112 343.434 143.78 343.59C142.48 344.18 141.31 342.52 141.1 342.2C141.383 341.975 141.612 341.689 141.77 341.364C141.927 341.038 142.009 340.681 142.01 340.32C142.026 340.16 142.026 339.999 142.01 339.84C143.08 339.82 144.6 339.94 144.91 340.33ZM137.91 340.33C137.91 339.996 138.009 339.669 138.195 339.391C138.381 339.113 138.645 338.896 138.954 338.768C139.262 338.641 139.602 338.607 139.93 338.672C140.258 338.738 140.559 338.898 140.795 339.135C141.032 339.371 141.193 339.672 141.258 340C141.323 340.328 141.29 340.668 141.162 340.977C141.034 341.285 140.817 341.549 140.539 341.735C140.261 341.921 139.935 342.02 139.6 342.02C139.377 342.021 139.155 341.978 138.948 341.893C138.741 341.808 138.553 341.683 138.395 341.525C138.237 341.367 138.112 341.179 138.027 340.972C137.942 340.765 137.899 340.543 137.9 340.32L137.91 340.33ZM138.65 335.9C139.07 335.4 140.37 335.31 141.43 335.7C142.05 335.93 142.43 336.27 142.43 336.61C142.361 337.443 142.067 338.241 141.58 338.92C141.352 338.605 141.051 338.349 140.703 338.175C140.355 338.001 139.97 337.913 139.58 337.92C139.155 337.92 138.737 338.034 138.37 338.25V338.25C138.216 337.865 138.16 337.448 138.207 337.036C138.254 336.624 138.403 336.23 138.64 335.89L138.65 335.9ZM138.04 342.22C138.366 342.499 138.761 342.684 139.184 342.757C139.606 342.829 140.041 342.785 140.44 342.63C140.862 343.63 141.08 344.704 141.08 345.79C140.143 346.222 139.09 346.338 138.08 346.12C137.3 346 136.77 345.74 136.67 345.43C136.57 345.12 137.28 343.42 138 342.21L138.04 342.22Z" fill="white"/>
<path d="M174.74 335.38C174.47 336.05 173.05 336.23 172.05 336.23L171.74 336.22C171.01 336.2 169.28 336.01 168.95 334.95C168.75 334.32 169.32 333.07 169.82 332.13C169.126 332.425 168.374 332.562 167.62 332.53C167.359 332.506 167.108 332.421 166.885 332.282C166.663 332.143 166.476 331.954 166.34 331.73C166.165 331.29 166.091 330.816 166.124 330.343C166.157 329.871 166.296 329.412 166.53 329C167.31 327.14 169.65 327.62 170.46 327.84L170.6 327.64C170.432 327.16 170.386 326.646 170.464 326.144C170.543 325.641 170.744 325.166 171.05 324.76C171.76 323.93 173.44 323.9 174.65 324.35C175.59 324.7 176.12 325.28 176.12 325.95C176.067 326.841 175.781 327.703 175.29 328.45C176.29 328.46 177.93 328.55 178.46 329.22C178.675 329.547 178.815 329.917 178.872 330.304C178.929 330.69 178.901 331.085 178.79 331.46C178.69 331.929 178.482 332.368 178.181 332.741C177.881 333.114 177.497 333.412 177.06 333.61C176.648 333.785 176.195 333.839 175.754 333.765C175.312 333.69 174.902 333.491 174.57 333.19C174.804 333.895 174.863 334.647 174.74 335.38Z" fill="white"/>
<path d="M139.124 259.343C139.157 258.871 139.296 258.412 139.53 258C140.31 256.14 142.65 256.62 143.46 256.83L143.6 256.63C143.432 256.15 143.386 255.636 143.464 255.134C143.543 254.631 143.744 254.156 144.05 253.75C144.76 252.92 146.44 252.89 147.65 253.34C148.59 253.69 149.12 254.27 149.12 254.94C149.067 255.831 148.781 256.693 148.29 257.44C149.29 257.45 150.93 257.54 151.46 258.21C151.675 258.537 151.815 258.907 151.872 259.294C151.929 259.68 151.901 260.075 151.79 260.45C151.69 260.919 151.482 261.358 151.181 261.731C150.881 262.104 150.497 262.402 150.06 262.6C149.648 262.775 149.195 262.829 148.754 262.755C148.312 262.68 147.902 262.481 147.57 262.18C147.804 262.885 147.863 263.637 147.74 264.37C147.47 265.04 146.05 265.22 145.05 265.22H144.74C144.01 265.2 142.28 265.01 141.95 263.95C141.75 263.32 142.32 262.07 142.82 261.13C142.126 261.425 141.374 261.562 140.62 261.53C140.359 261.506 140.108 261.421 139.885 261.282C139.663 261.143 139.476 260.954 139.34 260.73C139.165 260.29 139.091 259.816 139.124 259.343Z" fill="white"/>
<path d="M203.181 342.741C202.881 343.114 202.497 343.412 202.06 343.61C201.648 343.784 201.194 343.836 200.752 343.76C200.311 343.684 199.901 343.482 199.57 343.18C199.804 343.885 199.863 344.637 199.74 345.37C199.47 346.04 198.05 346.22 197.05 346.22H196.74C196.01 346.2 194.28 346.01 193.95 344.95C193.75 344.32 194.32 343.07 194.82 342.13C194.126 342.425 193.374 342.562 192.62 342.53C192.359 342.506 192.108 342.421 191.885 342.282C191.663 342.143 191.476 341.954 191.34 341.73C191.165 341.29 191.091 340.816 191.124 340.343C191.157 339.871 191.296 339.412 191.53 339C192.31 337.14 194.65 337.62 195.46 337.84L195.6 337.64C195.432 337.16 195.386 336.646 195.464 336.144C195.543 335.641 195.744 335.166 196.05 334.76C196.76 333.93 198.44 333.9 199.65 334.35C200.59 334.7 201.12 335.28 201.12 335.95C201.067 336.841 200.781 337.703 200.29 338.45C201.29 338.46 202.93 338.55 203.46 339.22C203.675 339.547 203.815 339.917 203.872 340.304C203.929 340.69 203.901 341.085 203.79 341.46C203.69 341.929 203.482 342.368 203.181 342.741Z" fill="white"/>
<path d="M144.4 296.56C143.68 296.53 141.94 296.35 141.61 295.29C141.42 294.66 142 293.4 142.49 292.47C141.79 292.758 141.036 292.891 140.28 292.86C140.02 292.836 139.77 292.752 139.549 292.613C139.328 292.474 139.143 292.284 139.01 292.06C138.832 291.62 138.757 291.146 138.79 290.673C138.823 290.2 138.963 289.741 139.2 289.33C139.97 287.47 142.32 287.95 143.12 288.18L143.27 287.98C143.102 287.498 143.056 286.983 143.134 286.479C143.213 285.975 143.414 285.498 143.72 285.09C144.43 284.26 146.1 284.23 147.32 284.68C148.25 285.03 148.79 285.61 148.79 286.29C148.737 287.18 148.447 288.04 147.95 288.78C148.96 288.79 150.59 288.89 151.13 289.56C151.341 289.887 151.479 290.255 151.536 290.639C151.593 291.024 151.567 291.416 151.46 291.79C151.358 292.259 151.148 292.699 150.846 293.072C150.544 293.445 150.158 293.743 149.72 293.94C149.309 294.119 148.855 294.175 148.413 294.1C147.97 294.026 147.56 293.824 147.23 293.52C147.474 294.223 147.533 294.977 147.4 295.71C147.13 296.39 145.71 296.56 144.71 296.56H144.4Z" fill="white"/>
<path d="M163.24 271.19L163.09 271.39C162.29 271.17 159.94 270.69 159.17 272.54C158.935 272.953 158.795 273.413 158.76 273.887C158.725 274.361 158.797 274.837 158.97 275.28C159.106 275.504 159.293 275.693 159.515 275.832C159.737 275.971 159.989 276.056 160.25 276.08C161.007 276.111 161.762 275.975 162.46 275.68C161.95 276.62 161.38 277.87 161.58 278.5C161.91 279.56 163.64 279.74 164.37 279.77H164.68C165.68 279.77 167.1 279.59 167.37 278.92C167.503 278.188 167.444 277.433 167.2 276.73C167.531 277.031 167.942 277.23 168.383 277.305C168.825 277.379 169.278 277.325 169.69 277.15C170.126 276.949 170.509 276.651 170.811 276.278C171.113 275.905 171.325 275.468 171.43 275C171.537 274.625 171.563 274.231 171.506 273.844C171.449 273.458 171.311 273.089 171.1 272.76C170.56 272.09 168.92 272 167.92 271.99C168.419 271.247 168.709 270.383 168.76 269.49C168.76 268.82 168.22 268.23 167.28 267.89C166.07 267.44 164.39 267.47 163.68 268.3C163.373 268.708 163.172 269.185 163.095 269.689C163.019 270.194 163.068 270.71 163.24 271.19V271.19ZM166.89 273.19C166.89 273.526 166.79 273.855 166.604 274.134C166.417 274.414 166.151 274.632 165.841 274.761C165.53 274.889 165.188 274.923 164.858 274.857C164.529 274.792 164.226 274.63 163.988 274.392C163.75 274.154 163.588 273.851 163.523 273.522C163.457 273.192 163.491 272.85 163.619 272.539C163.748 272.229 163.966 271.963 164.246 271.776C164.525 271.59 164.854 271.49 165.19 271.49C165.416 271.49 165.639 271.535 165.848 271.622C166.056 271.709 166.245 271.837 166.403 271.998C166.561 272.159 166.686 272.35 166.769 272.56C166.853 272.77 166.894 272.994 166.89 273.22V273.19ZM160.35 275.32C160.202 275.306 160.058 275.26 159.93 275.184C159.802 275.108 159.693 275.004 159.61 274.88C159.505 274.535 159.472 274.173 159.513 273.815C159.554 273.457 159.669 273.112 159.85 272.8C160.43 271.39 162.59 271.98 163.03 272.11C162.862 272.445 162.773 272.815 162.77 273.19C162.768 273.676 162.915 274.15 163.19 274.55V274.55C162.319 275.036 161.346 275.31 160.35 275.35V275.32ZM166.69 278.61C165.752 279.042 164.699 279.158 163.69 278.94C162.91 278.82 162.38 278.56 162.28 278.25C162.18 277.94 162.89 276.3 163.64 275.08C164.07 275.446 164.615 275.648 165.18 275.65C165.474 275.649 165.765 275.595 166.04 275.49C166.459 276.488 166.68 277.558 166.69 278.64V278.61ZM170.52 273.2C170.662 273.44 170.753 273.708 170.785 273.985C170.818 274.262 170.792 274.543 170.71 274.81C170.63 275.169 170.469 275.504 170.238 275.79C170.007 276.077 169.714 276.306 169.38 276.46C168.09 277.05 166.92 275.39 166.71 275.07C166.993 274.845 167.222 274.559 167.379 274.234C167.537 273.908 167.619 273.552 167.62 273.19C167.619 273.032 167.603 272.875 167.57 272.72C168.69 272.72 170.2 272.84 170.52 273.23V273.2ZM164.24 268.76C164.67 268.26 165.97 268.17 167.03 268.56C167.65 268.79 168.03 269.13 168.03 269.47C167.962 270.305 167.665 271.104 167.17 271.78C166.943 271.463 166.642 271.207 166.294 271.033C165.945 270.859 165.56 270.772 165.17 270.78C164.748 270.78 164.333 270.894 163.97 271.11V271.11C163.821 270.731 163.768 270.321 163.815 269.916C163.862 269.512 164.008 269.125 164.24 268.79V268.76Z" fill="white"/>
<path d="M173.39 305.61C173.827 305.411 174.211 305.113 174.513 304.74C174.815 304.367 175.026 303.929 175.13 303.46C175.236 303.084 175.262 302.691 175.205 302.305C175.148 301.918 175.01 301.549 174.8 301.22C174.26 300.55 172.62 300.46 171.62 300.45C172.119 299.707 172.409 298.843 172.46 297.95C172.46 297.28 171.92 296.7 170.98 296.35C169.77 295.9 168.09 295.93 167.38 296.76C167.075 297.166 166.875 297.642 166.798 298.145C166.721 298.647 166.77 299.161 166.94 299.64L166.79 299.84C165.99 299.62 163.64 299.14 162.87 301C162.635 301.411 162.495 301.87 162.46 302.342C162.426 302.815 162.497 303.289 162.67 303.73C162.806 303.954 162.993 304.143 163.215 304.282C163.437 304.421 163.689 304.506 163.95 304.53C164.707 304.561 165.462 304.425 166.16 304.13C165.65 305.07 165.08 306.32 165.28 306.95C165.61 308.01 167.34 308.2 168.07 308.22H168.38C169.38 308.22 170.8 308.04 171.07 307.37C171.203 306.637 171.144 305.883 170.9 305.18C171.23 305.482 171.641 305.684 172.082 305.76C172.523 305.836 172.977 305.784 173.39 305.61V305.61ZM167.94 297.24C168.37 296.74 169.67 296.65 170.73 297.04C171.35 297.27 171.73 297.61 171.73 297.95C171.662 298.785 171.365 299.584 170.87 300.26C170.643 299.943 170.342 299.687 169.994 299.513C169.645 299.339 169.259 299.252 168.87 299.26C168.448 299.265 168.035 299.378 167.67 299.59C167.516 299.207 167.46 298.791 167.507 298.381C167.554 297.97 167.703 297.578 167.94 297.24ZM168.89 303.36C168.556 303.358 168.23 303.257 167.954 303.07C167.677 302.883 167.462 302.619 167.336 302.31C167.209 302.001 167.177 301.661 167.244 301.334C167.31 301.007 167.472 300.707 167.709 300.471C167.945 300.236 168.246 300.076 168.574 300.012C168.902 299.947 169.241 299.981 169.549 300.11C169.857 300.238 170.121 300.454 170.306 300.732C170.491 301.01 170.59 301.336 170.59 301.67C170.59 301.893 170.546 302.113 170.46 302.319C170.375 302.525 170.249 302.711 170.091 302.868C169.933 303.026 169.746 303.15 169.54 303.234C169.334 303.319 169.113 303.361 168.89 303.36V303.36ZM164.06 303.8C163.91 303.788 163.765 303.742 163.635 303.666C163.505 303.59 163.394 303.485 163.31 303.36C163.205 303.015 163.172 302.653 163.213 302.295C163.254 301.937 163.369 301.592 163.55 301.28C164.14 299.87 166.29 300.46 166.73 300.6C166.535 300.982 166.447 301.409 166.476 301.837C166.504 302.265 166.647 302.677 166.89 303.03V303.03C166.018 303.5 165.05 303.763 164.06 303.8V303.8ZM170.39 307.09C169.452 307.522 168.399 307.638 167.39 307.42C166.61 307.3 166.08 307.05 165.98 306.74C165.88 306.43 166.59 304.74 167.34 303.56C167.77 303.926 168.315 304.128 168.88 304.13C169.174 304.129 169.465 304.075 169.74 303.97C170.155 304.958 170.376 306.018 170.39 307.09ZM170.39 303.55C170.733 303.273 170.995 302.908 171.148 302.495C171.301 302.081 171.34 301.634 171.26 301.2C172.37 301.2 173.88 301.29 174.2 301.69C174.341 301.929 174.431 302.195 174.463 302.47C174.496 302.745 174.471 303.025 174.39 303.29C174.31 303.649 174.149 303.984 173.918 304.27C173.687 304.557 173.394 304.786 173.06 304.94C171.79 305.53 170.62 303.88 170.41 303.55H170.39Z" fill="white"/>
<path d="M206.11 265.69L205.97 265.89C205.16 265.66 202.82 265.18 202.04 267.04C201.806 267.452 201.667 267.911 201.634 268.383C201.601 268.856 201.675 269.33 201.85 269.77C201.984 269.995 202.17 270.186 202.393 270.325C202.616 270.464 202.868 270.548 203.13 270.57C203.884 270.611 204.636 270.477 205.33 270.18C204.83 271.11 204.26 272.37 204.46 273C204.79 274.06 206.52 274.24 207.25 274.27H207.56C208.56 274.27 209.98 274.09 210.25 273.41C210.372 272.677 210.313 271.925 210.08 271.22C210.432 271.514 210.851 271.717 211.3 271.81V271.04C210.589 270.749 209.987 270.242 209.58 269.59C209.866 269.365 210.098 269.078 210.257 268.751C210.416 268.423 210.499 268.064 210.5 267.7C210.498 267.542 210.481 267.385 210.45 267.23H211.25C211.25 266.98 211.25 266.73 211.25 266.49H210.84C210.96 266.28 211.1 266.02 211.23 265.75C211.23 264.83 211.23 263.91 211.23 262.99C210.943 262.721 210.602 262.517 210.23 262.39C209.02 261.94 207.34 261.97 206.63 262.79C206.313 263.194 206.099 263.67 206.009 264.175C205.918 264.681 205.953 265.201 206.11 265.69V265.69ZM203.23 269.84C203.081 269.834 202.936 269.791 202.807 269.716C202.678 269.641 202.569 269.536 202.49 269.41C202.383 269.066 202.348 268.704 202.387 268.346C202.427 267.988 202.54 267.642 202.72 267.33C203.31 265.91 205.47 266.51 205.9 266.64C205.704 267.023 205.616 267.452 205.644 267.882C205.672 268.311 205.816 268.725 206.06 269.08V269.08C205.187 269.546 204.219 269.806 203.23 269.84V269.84ZM209.57 273.14C208.631 273.57 207.579 273.685 206.57 273.47C205.78 273.35 205.26 273.09 205.16 272.78C205.06 272.47 205.76 270.78 206.52 269.61C206.95 269.976 207.495 270.178 208.06 270.18C208.354 270.178 208.645 270.124 208.92 270.02C209.336 271.008 209.557 272.068 209.57 273.14V273.14ZM208.07 269.4C207.736 269.4 207.409 269.301 207.131 269.115C206.853 268.929 206.636 268.665 206.509 268.357C206.381 268.048 206.347 267.708 206.412 267.38C206.478 267.052 206.639 266.751 206.875 266.515C207.111 266.279 207.412 266.118 207.74 266.052C208.068 265.987 208.408 266.021 208.717 266.149C209.025 266.276 209.289 266.493 209.475 266.771C209.661 267.049 209.76 267.376 209.76 267.71C209.76 268.158 209.582 268.588 209.265 268.905C208.948 269.222 208.518 269.4 208.07 269.4V269.4ZM207.12 263.28C207.531 263.02 208.001 262.866 208.486 262.833C208.971 262.8 209.457 262.888 209.9 263.09C210.53 263.32 210.9 263.66 210.9 264C210.832 264.832 210.534 265.628 210.04 266.3C209.81 265.986 209.509 265.731 209.161 265.557C208.813 265.383 208.429 265.295 208.04 265.3C207.616 265.302 207.202 265.42 206.84 265.64V265.64C206.685 265.255 206.63 264.837 206.679 264.424C206.728 264.012 206.879 263.618 207.12 263.28Z" fill="white"/>
<path d="M189.98 281.09C190.69 280.26 192.37 280.23 193.58 280.68C194.52 281 195.05 281.61 195.07 282.29C195.015 283.178 194.729 284.036 194.24 284.78C195.24 284.79 196.88 284.89 197.41 285.56C197.625 285.885 197.766 286.253 197.823 286.638C197.88 287.024 197.851 287.417 197.74 287.79C197.64 288.259 197.431 288.698 197.131 289.071C196.83 289.445 196.446 289.742 196.01 289.94C195.599 290.121 195.144 290.177 194.702 290.102C194.26 290.028 193.849 289.825 193.52 289.52C193.754 290.225 193.812 290.977 193.69 291.71C193.42 292.39 192 292.56 191 292.56H190.67C189.94 292.53 188.2 292.35 187.88 291.29C187.68 290.66 188.25 289.4 188.75 288.47C188.053 288.758 187.303 288.891 186.55 288.86C186.288 288.838 186.036 288.754 185.813 288.615C185.59 288.476 185.404 288.286 185.27 288.06C185.095 287.62 185.021 287.146 185.054 286.673C185.087 286.201 185.226 285.742 185.46 285.33C186.24 283.47 188.58 283.95 189.39 284.18L189.53 283.98C189.362 283.498 189.315 282.983 189.394 282.479C189.472 281.975 189.674 281.498 189.98 281.09Z" fill="white"/>
<path d="M162.94 354.78C163.377 354.581 163.761 354.283 164.063 353.91C164.365 353.537 164.576 353.098 164.68 352.63C164.787 352.256 164.813 351.864 164.756 351.479C164.699 351.095 164.561 350.727 164.35 350.4C163.81 349.72 162.17 349.63 161.17 349.62C161.667 348.88 161.957 348.02 162.01 347.13C162.01 346.45 161.47 345.87 160.53 345.52C159.32 345.07 157.64 345.1 156.94 345.93C156.634 346.336 156.433 346.811 156.354 347.313C156.276 347.816 156.323 348.33 156.49 348.81L156.34 349.02C155.54 348.79 153.19 348.31 152.42 350.17C152.185 350.581 152.045 351.04 152.01 351.512C151.976 351.985 152.048 352.459 152.22 352.9C152.355 353.125 152.541 353.316 152.763 353.455C152.986 353.594 153.239 353.678 153.5 353.7C154.256 353.73 155.01 353.597 155.71 353.31C155.2 354.24 154.63 355.5 154.83 356.13C155.16 357.19 156.89 357.37 157.62 357.4H157.93C158.93 357.4 160.35 357.23 160.62 356.55C160.753 355.817 160.694 355.063 160.45 354.36C160.78 354.664 161.191 354.866 161.633 354.94C162.075 355.015 162.529 354.959 162.94 354.78V354.78ZM157.49 346.41C157.92 345.91 159.22 345.82 160.28 346.21C160.9 346.44 161.28 346.78 161.28 347.13C161.211 347.961 160.913 348.757 160.42 349.43C160.192 349.115 159.891 348.859 159.543 348.685C159.195 348.511 158.809 348.423 158.42 348.43C157.995 348.433 157.578 348.547 157.21 348.76V348.76C157.057 348.376 157.003 347.96 157.052 347.549C157.101 347.139 157.251 346.747 157.49 346.41V346.41ZM158.49 352.53C158.156 352.53 157.829 352.431 157.551 352.245C157.273 352.059 157.057 351.795 156.929 351.487C156.801 351.178 156.768 350.838 156.833 350.51C156.898 350.182 157.059 349.881 157.295 349.645C157.532 349.409 157.833 349.248 158.161 349.182C158.488 349.117 158.828 349.151 159.137 349.279C159.446 349.406 159.71 349.623 159.895 349.901C160.081 350.179 160.18 350.506 160.18 350.84C160.179 351.065 160.133 351.287 160.045 351.494C159.957 351.701 159.829 351.889 159.668 352.046C159.507 352.203 159.317 352.327 159.108 352.41C158.899 352.493 158.675 352.534 158.45 352.53H158.49ZM153.65 352.97C153.501 352.959 153.356 352.915 153.226 352.84C153.097 352.766 152.985 352.663 152.9 352.54C152.795 352.194 152.763 351.829 152.804 351.47C152.845 351.111 152.96 350.763 153.14 350.45C153.73 349.04 155.88 349.63 156.32 349.77C156.126 350.152 156.038 350.579 156.066 351.007C156.094 351.435 156.237 351.847 156.48 352.2C155.599 352.686 154.616 352.96 153.61 353L153.65 352.97ZM159.98 356.27C159.039 356.691 157.989 356.803 156.98 356.59C156.2 356.47 155.67 356.22 155.57 355.91C155.47 355.6 156.18 353.91 156.93 352.73C157.364 353.096 157.913 353.297 158.48 353.3C158.772 353.3 159.061 353.242 159.33 353.13C159.734 354.127 159.941 355.194 159.94 356.27H159.98ZM159.98 352.72C160.323 352.443 160.585 352.078 160.738 351.665C160.892 351.251 160.93 350.804 160.85 350.37C161.96 350.37 163.48 350.46 163.79 350.86C163.931 351.099 164.021 351.364 164.054 351.64C164.086 351.915 164.061 352.195 163.98 352.46C163.9 352.819 163.739 353.154 163.508 353.44C163.277 353.727 162.984 353.956 162.65 354.11C161.34 354.7 160.17 353.05 160 352.72H159.98Z" fill="white"/>
<path d="M189.79 320.27C189.06 320.25 187.33 320.06 187 319C186.75 318.32 187.32 317.07 187.87 316.17C187.176 316.465 186.424 316.602 185.67 316.57C185.409 316.546 185.157 316.461 184.935 316.322C184.713 316.183 184.526 315.994 184.39 315.77C184.215 315.33 184.141 314.856 184.174 314.383C184.207 313.911 184.346 313.452 184.58 313.04C185.36 311.18 187.7 311.66 188.51 311.88L188.65 311.68C188.482 311.2 188.436 310.686 188.514 310.184C188.593 309.681 188.794 309.206 189.1 308.8C189.81 307.97 191.49 307.94 192.7 308.39C193.64 308.74 194.17 309.32 194.17 309.99C194.117 310.882 193.83 311.743 193.34 312.49C194.34 312.5 195.98 312.59 196.51 313.26C196.724 313.587 196.865 313.957 196.922 314.344C196.979 314.73 196.951 315.125 196.84 315.5C196.74 315.969 196.532 316.408 196.231 316.781C195.931 317.155 195.547 317.452 195.11 317.65C194.698 317.825 194.245 317.879 193.803 317.805C193.362 317.73 192.951 317.531 192.62 317.23C192.854 317.935 192.913 318.687 192.79 319.42C192.52 320.09 191.1 320.27 190.1 320.27H189.79Z" fill="white"/>
<path d="M182.09 248.553C182.123 248.08 182.263 247.621 182.5 247.21C183.27 245.35 185.62 245.83 186.41 246.05L186.56 245.85C186.393 245.368 186.346 244.853 186.424 244.349C186.503 243.845 186.704 243.368 187.01 242.96C187.72 242.14 189.39 242.11 190.61 242.56C191.54 242.9 192.08 243.49 192.08 244.16C192.029 245.053 191.739 245.917 191.24 246.66C192.25 246.66 193.88 246.76 194.42 247.43C194.631 247.757 194.769 248.125 194.826 248.509C194.883 248.894 194.857 249.286 194.75 249.66C194.649 250.131 194.438 250.571 194.136 250.946C193.834 251.321 193.449 251.62 193.01 251.82C192.598 251.995 192.144 252.048 191.702 251.972C191.26 251.895 190.85 251.693 190.52 251.39C190.764 252.093 190.823 252.847 190.69 253.58C190.42 254.26 189 254.44 188 254.44H187.7C186.97 254.41 185.24 254.23 184.91 253.17C184.72 252.54 185.29 251.28 185.79 250.35C185.091 250.641 184.337 250.775 183.58 250.74C183.32 250.716 183.07 250.632 182.849 250.493C182.628 250.354 182.444 250.164 182.31 249.94C182.132 249.5 182.057 249.026 182.09 248.553Z" fill="white"/>
<path d="M146.28 325C146.61 326.06 148.34 326.25 149.07 326.27H149.38C150.38 326.27 151.8 326.09 152.07 325.42C152.203 324.688 152.144 323.933 151.9 323.23C152.231 323.531 152.642 323.73 153.083 323.805C153.525 323.879 153.978 323.825 154.39 323.65C154.827 323.451 155.211 323.153 155.513 322.78C155.815 322.407 156.026 321.969 156.13 321.5C156.236 321.124 156.262 320.731 156.205 320.345C156.148 319.958 156.01 319.589 155.8 319.26C155.26 318.59 153.62 318.5 152.62 318.49C153.119 317.747 153.409 316.883 153.46 315.99C153.46 315.32 152.92 314.74 151.98 314.39C150.77 313.94 149.09 313.97 148.38 314.8C148.075 315.206 147.875 315.682 147.798 316.185C147.721 316.687 147.77 317.201 147.94 317.68L147.79 317.88C146.99 317.66 144.64 317.18 143.87 319.04C143.635 319.451 143.495 319.91 143.46 320.382C143.426 320.855 143.497 321.329 143.67 321.77C143.806 321.994 143.993 322.183 144.215 322.322C144.437 322.461 144.689 322.546 144.95 322.57C145.707 322.601 146.462 322.465 147.16 322.17C146.65 323.07 146.08 324.32 146.28 325ZM155.22 319.74C155.361 319.979 155.451 320.245 155.483 320.52C155.516 320.795 155.491 321.075 155.41 321.34C155.33 321.699 155.169 322.034 154.938 322.32C154.707 322.607 154.414 322.836 154.08 322.99C152.79 323.58 151.62 321.93 151.41 321.6C151.753 321.323 152.015 320.958 152.168 320.545C152.321 320.131 152.36 319.684 152.28 319.25C153.39 319.17 154.9 319.29 155.22 319.69V319.74ZM148.22 319.74C148.218 319.403 148.316 319.073 148.502 318.792C148.688 318.511 148.954 318.291 149.265 318.161C149.576 318.031 149.918 317.997 150.249 318.062C150.58 318.127 150.884 318.29 151.122 318.528C151.36 318.766 151.522 319.07 151.588 319.401C151.653 319.731 151.619 320.074 151.489 320.385C151.359 320.696 151.139 320.962 150.858 321.148C150.577 321.334 150.247 321.432 149.91 321.43C149.68 321.433 149.453 321.389 149.24 321.301C149.028 321.213 148.836 321.082 148.676 320.918C148.516 320.753 148.392 320.557 148.31 320.343C148.228 320.128 148.19 319.899 148.2 319.67L148.22 319.74ZM148.96 315.31C149.39 314.81 150.69 314.72 151.75 315.11C152.37 315.34 152.75 315.68 152.75 316.02C152.682 316.855 152.385 317.654 151.89 318.33C151.663 318.013 151.362 317.757 151.014 317.583C150.665 317.409 150.279 317.322 149.89 317.33C149.468 317.335 149.055 317.449 148.69 317.66V317.66C148.52 317.269 148.454 316.841 148.498 316.417C148.542 315.993 148.694 315.588 148.94 315.24L148.96 315.31ZM145.08 321.87C144.93 321.858 144.785 321.812 144.655 321.736C144.525 321.66 144.414 321.555 144.33 321.43C144.225 321.085 144.192 320.723 144.233 320.365C144.274 320.007 144.389 319.662 144.57 319.35C145.16 317.94 147.31 318.53 147.75 318.67C147.555 319.052 147.467 319.479 147.496 319.907C147.524 320.335 147.667 320.747 147.91 321.1V321.1C147.026 321.549 146.051 321.788 145.06 321.8L145.08 321.87ZM148.36 321.63C148.79 321.996 149.335 322.198 149.9 322.2C150.194 322.199 150.485 322.145 150.76 322.04C151.177 323.042 151.394 324.115 151.4 325.2C150.462 325.632 149.409 325.748 148.4 325.53C147.62 325.41 147.09 325.16 146.99 324.85C146.89 324.54 147.59 322.78 148.34 321.56L148.36 321.63Z" fill="white"/>
<path d="M172.46 298C172.46 298 192.32 320.41 199.58 325.41C206.84 330.41 209.58 332.22 209.58 332.22V319.45L172.46 298Z" fill="#263238" stroke="#263238" stroke-linecap="round" stroke-linejoin="round"/>
<path d="M208.59 351.91C208.59 351.91 211.71 274.3 211.27 267.61C210.83 260.92 212.16 253.79 208.59 248.88C205.02 243.97 183.17 237.29 179.15 236.88C175.13 236.47 155.96 235.54 150.15 237.77C150.15 237.77 142.5 240.27 135.83 243.02L135.08 244.54L134.54 279.25V351.32C143.04 355.92 169.41 366.88 208.97 352.93L208.59 351.91Z" stroke="#263238" stroke-miterlimit="10"/>
<path d="M153.73 246.65C153.73 246.65 153.73 265.83 165.73 266.72C177.73 267.61 180.01 239.07 180.01 239.07L152.35 242.19L153.73 246.65Z" fill="white" stroke="#263238" stroke-linecap="round" stroke-linejoin="round"/>
<path d="M152.39 242.19L153.73 246.65C153.8 249.501 154.189 252.335 154.89 255.1C155.863 255.577 156.865 255.991 157.89 256.34C165.67 258.89 173.8 254.57 178.83 247.34C179.377 244.603 179.781 241.839 180.04 239.06L152.39 242.19Z" fill="#263238" stroke="#263238" stroke-linecap="round" stroke-linejoin="round"/>
<path d="M203.24 248.88C203.24 248.88 197.89 253.34 197.89 262.71C197.89 272.08 199.67 294.82 200.56 300.62C201.45 306.42 209.48 323.81 217.51 319.35C225.54 314.89 227.77 311.77 225.98 297.94C224.19 284.11 221.98 267.17 218.4 258.69C214.82 250.21 208.14 245.76 203.24 248.88Z" fill="white" stroke="#263238" stroke-linecap="round" stroke-linejoin="round"/>
<path d="M51.9199 410C51.9199 410 45.9199 418.67 47.9199 422.67C49.9199 426.67 59.9199 426 65.9199 424C71.9199 422 91.2499 414.67 91.2499 414.67L87.2499 410.67C87.2499 410.67 77.2499 416.67 69.2499 417.33C61.2499 417.99 59.9199 420.67 57.2499 420C54.5799 419.33 59.2499 412 59.2499 412L51.9199 410Z" fill="#263238" stroke="#263238" stroke-linecap="round" stroke-linejoin="round"/>
<path d="M77.9201 343.33C77.9201 343.33 53.9201 392.67 48.5901 400C43.2601 407.33 53.2501 418 61.2501 418C69.2501 418 95.2501 360 98.5901 357.33C101.93 354.66 96.5901 335.33 77.9201 343.33Z" fill="#26E0AC" stroke="#263238" stroke-linecap="round" stroke-linejoin="round"/>
<path d="M158.88 308.52C158.88 308.52 170.62 314.18 175.41 322.01C180.2 329.84 185.41 354.63 186.72 369.86C188.03 385.09 193.72 398.13 195.42 407.27C197.12 416.41 190.63 422.93 182.8 428.15C174.97 433.37 171.49 433.8 167.58 434.67C163.67 435.54 155.83 427.28 156.7 415.53C157.57 403.78 159.7 349.7 157.57 335.53C155.44 321.36 154.09 306.39 158.88 308.53" fill="white"/>
<path d="M158.88 308.52C158.88 308.52 170.62 314.18 175.41 322.01C180.2 329.84 185.41 354.63 186.72 369.86C188.03 385.09 193.72 398.13 195.42 407.27C197.12 416.41 190.63 422.93 182.8 428.15C174.97 433.37 171.49 433.8 167.58 434.67C163.67 435.54 155.83 427.28 156.7 415.53C157.57 403.78 159.7 349.7 157.57 335.53C155.44 321.36 154.09 306.39 158.88 308.53" stroke="#263238" stroke-linecap="round" stroke-linejoin="round"/>
<path d="M115.25 299C115.25 299 94.2501 306 86.2501 316C78.2501 326 78.7501 332 80.7501 346C82.7501 360 83.2501 382 79.2501 397C75.2501 412 80.2501 427.5 88.2501 431.5C96.2501 435.5 133.75 442 152.75 438C171.75 434 181.25 433.5 183.25 418.5C185.25 403.5 177.75 374 177.25 350.5C176.75 327 164.25 307 146.75 300C129.25 293 115.25 299 115.25 299Z" fill="#26E0AC" stroke="#263238" stroke-linecap="round" stroke-linejoin="round"/>
<path d="M110.59 299C110.59 299 89.5899 306 81.5899 316C73.5899 326 74.0899 332 76.0899 346C78.0899 360 78.5899 382 74.5899 397C70.5899 412 75.5899 427.5 83.5899 431.5C91.5899 435.5 129.09 442 148.09 438C167.09 434 176.59 433.5 178.59 418.5C180.59 403.5 173.09 374 172.59 350.5C172.09 327 159.59 307 142.09 300C124.59 293 110.59 299 110.59 299Z" fill="white" stroke="#263238" stroke-linecap="round" stroke-linejoin="round"/>
<path d="M148.33 303.17C146.347 301.932 144.259 300.871 142.09 300C124.59 293 110.59 299 110.59 299L109.3 299.45C108.482 300.681 107.902 302.055 107.59 303.5C106.59 308 109.09 316.5 109.09 316.5L145.59 321.5C145.59 321.5 143.09 314 145.59 308.5C146.407 306.675 147.321 304.896 148.33 303.17V303.17Z" fill="#26E0AC" stroke="#263238" stroke-linecap="round" stroke-linejoin="round"/>
<path d="M75.2402 248.44L79.6302 246.07L134.1 234.26L133.22 235.5L75.2402 248.44Z" fill="white" stroke="#263238" stroke-linecap="round" stroke-linejoin="round"/>
<path d="M134.1 234.26L156.02 304.11L154.98 304.73L133.22 235.5L134.1 234.26Z" fill="#263238" stroke="#263238" stroke-linecap="round" stroke-linejoin="round"/>
<path d="M75.2402 248.44L97.9802 319.35L155.07 304.63L133.22 235.5L75.2402 248.44Z" fill="white" stroke="#263238" stroke-linecap="round" stroke-linejoin="round"/>
<path d="M90.2403 254.26C91.7503 253.94 92.8003 254.69 93.2403 256.31L93.3403 256.62L91.8703 256.93L91.7403 256.51C91.5303 255.79 91.1703 255.58 90.6703 255.69C90.1703 255.8 89.9803 256.12 90.1903 256.84C90.8003 258.91 93.9503 258.66 94.8003 261.54C95.2803 263.15 94.8003 264.24 93.2303 264.54C91.6603 264.84 90.6403 264.11 90.1703 262.54L90.0003 261.9L91.4603 261.59L91.6803 262.31C91.8903 263.03 92.2803 263.22 92.7703 263.12C93.2603 263.02 93.5003 262.69 93.2903 261.97C92.6803 259.9 89.5303 260.15 88.6803 257.27C88.2203 255.66 88.7303 254.57 90.2403 254.26Z" fill="#26E0AC"/>
<path d="M98.7999 255.22L99.1899 256.53C99.6599 258.14 99.1899 259.18 97.6099 259.53L96.8699 259.69L97.9999 263.44L96.4399 263.77L93.4399 253.7L95.7299 253.22C97.3099 252.89 98.3299 253.61 98.7999 255.22ZM95.4399 254.81L96.4399 258.22L97.1699 258.07C97.6699 257.96 97.8699 257.67 97.6499 256.96L97.2099 255.44C96.9999 254.73 96.6599 254.55 96.2099 254.66L95.4399 254.81Z" fill="#26E0AC"/>
<path d="M106.67 261.61L105.11 261.94L104.3 260.17L102.39 260.57L102.66 262.46L101.24 262.76L99.8501 252.35L102.12 251.88L106.67 261.61ZM102.19 259.17L103.68 258.85L101.43 253.92L102.19 259.17Z" fill="#26E0AC"/>
<path d="M106.63 253.88L108.78 261.17L107.38 261.47L104.38 251.39L106.38 250.98L109.75 256.68L107.98 250.68L109.36 250.39L112.36 260.46L110.76 260.79L106.63 253.88Z" fill="#26E0AC"/>
<path d="M110.46 250.12L112.01 249.79L115.01 259.87L113.46 260.19L110.46 250.12Z" fill="#26E0AC"/>
<path d="M115.2 249C116.71 248.68 117.76 249.44 118.2 251.05L118.3 251.37L116.83 251.68L116.7 251.26C116.49 250.54 116.13 250.33 115.63 250.43C115.13 250.53 114.94 250.87 115.15 251.59C115.76 253.66 118.91 253.41 119.76 256.29C120.24 257.9 119.76 258.99 118.19 259.29C116.62 259.59 115.6 258.85 115.13 257.24L114.94 256.62L116.41 256.31L116.63 257.03C116.84 257.75 117.23 257.95 117.72 257.84C118.21 257.73 118.45 257.41 118.24 256.69C117.63 254.62 114.47 254.87 113.63 252C113.18 250.41 113.69 249.32 115.2 249Z" fill="#26E0AC"/>
<path d="M123 258.19L121.44 258.52L118.44 248.44L120 248.12L121.27 252.43L123.04 252.06L121.76 247.75L123.34 247.41L126.34 257.48L124.76 257.82L123.49 253.5L121.72 253.87L123 258.19Z" fill="#26E0AC"/>
<path d="M215.72 298.78C212.78 297.38 205.96 294.65 193.43 292.14C179.02 289.26 165.2 280.86 160.43 277.73L150 264.8L141.52 260.89L132 260C131.69 259.957 131.375 260.04 131.126 260.229C130.877 260.419 130.713 260.7 130.67 261.01C130.628 261.32 130.71 261.635 130.9 261.884C131.089 262.134 131.37 262.297 131.68 262.34L139.52 263.8L143.76 267.38L141.76 268.69L126.76 266.28C126.53 266.271 126.305 266.35 126.131 266.5C125.956 266.65 125.845 266.861 125.82 267.09L125.75 267.71C125.748 267.877 125.778 268.042 125.839 268.197C125.901 268.353 125.992 268.494 126.108 268.614C126.224 268.734 126.363 268.829 126.516 268.896C126.669 268.962 126.833 268.997 127 269L140 272.24L125.91 272.4C125.563 272.421 125.238 272.58 125.007 272.84C124.777 273.101 124.659 273.442 124.68 273.79C124.701 274.137 124.86 274.462 125.12 274.693C125.381 274.923 125.723 275.041 126.07 275.02L138.78 275.37L133.29 276.87L127.75 281.77C127.608 281.994 127.54 282.257 127.556 282.522C127.572 282.787 127.672 283.04 127.84 283.245C128.009 283.45 128.238 283.597 128.495 283.664C128.751 283.732 129.023 283.716 129.27 283.62C129.825 283.388 130.366 283.125 130.89 282.83L136.23 279.83H141.77C143.672 281.565 145.75 283.096 147.97 284.4C150.58 285.7 157.27 286.81 157.27 286.81C157.27 286.81 185 310 195.66 316.23C206.32 322.46 223.31 332.73 225.09 327.38C226.41 323.38 226.36 312.02 226.09 306.5" fill="white"/>
<path d="M215.72 298.78C212.78 297.38 205.96 294.65 193.43 292.14C179.02 289.26 165.2 280.86 160.43 277.73L150 264.8L141.52 260.89L132 260C131.69 259.957 131.375 260.04 131.126 260.229C130.877 260.419 130.713 260.7 130.67 261.01C130.628 261.32 130.71 261.635 130.9 261.884C131.089 262.134 131.37 262.297 131.68 262.34L139.52 263.8L143.76 267.38L141.76 268.69L126.76 266.28C126.53 266.271 126.305 266.35 126.131 266.5C125.956 266.65 125.845 266.861 125.82 267.09L125.75 267.71C125.748 267.877 125.778 268.042 125.839 268.197C125.901 268.353 125.992 268.494 126.108 268.614C126.224 268.734 126.363 268.829 126.516 268.896C126.669 268.962 126.833 268.997 127 269L140 272.24L125.91 272.4C125.563 272.421 125.238 272.58 125.007 272.84C124.777 273.101 124.659 273.442 124.68 273.79C124.701 274.137 124.86 274.462 125.12 274.693C125.381 274.923 125.723 275.041 126.07 275.02L138.78 275.37L133.29 276.87L127.75 281.77C127.608 281.994 127.54 282.257 127.556 282.522C127.572 282.787 127.672 283.04 127.84 283.245C128.009 283.45 128.238 283.597 128.495 283.664C128.751 283.732 129.023 283.716 129.27 283.62C129.825 283.388 130.366 283.125 130.89 282.83L136.23 279.83H141.77C143.672 281.565 145.75 283.096 147.97 284.4C150.58 285.7 157.27 286.81 157.27 286.81C157.27 286.81 185 310 195.66 316.23C206.32 322.46 223.31 332.73 225.09 327.38C226.41 323.38 226.36 312.02 226.09 306.5" stroke="#263238" stroke-linecap="round" stroke-linejoin="round"/>
<path d="M80.4803 263.39C80.4803 263.39 77.5503 264.19 78.6203 266.6C79.6903 269.01 86.3603 273.8 87.1603 271.67C87.9603 269.54 83.4203 264.46 80.4803 263.39Z" fill="white" stroke="#263238" stroke-linecap="round" stroke-linejoin="round"/>
<path d="M79.6803 268.47C79.6803 268.47 77.5503 271.67 79.1503 273.54C80.7503 275.41 86.8903 277.81 87.6903 276.21C88.4903 274.61 85.8203 272.74 83.9503 271.4C82.0803 270.06 79.6803 268.47 79.6803 268.47Z" fill="white" stroke="#263238" stroke-linecap="round" stroke-linejoin="round"/>
<path d="M80.2203 274.61C80.2203 274.61 78.8803 277.54 80.7503 278.88C82.6203 280.22 88.2303 281.01 88.2303 279.14C88.2303 277.27 86.0903 276.47 86.0903 276.47L80.2203 274.61Z" fill="white" stroke="#263238" stroke-linecap="round" stroke-linejoin="round"/>
<path d="M82.3501 279.68C82.443 280.376 82.6817 281.045 83.0504 281.643C83.4191 282.241 83.9097 282.754 84.4901 283.15C86.3601 284.22 89.5601 282.61 89.0301 281.55C88.5001 280.49 85.8201 280.48 85.8201 280.48L82.3501 279.68Z" fill="white" stroke="#263238" stroke-linecap="round" stroke-linejoin="round"/>
<path d="M167.59 398.17C167.59 398.17 163.09 344.67 158.59 331.67C154.09 318.67 118.59 310.67 102.09 316.67C85.5901 322.67 77.5901 329.67 80.5901 346.67C83.5901 363.67 75.0901 400.17 83.0901 412.17C91.0901 424.17 109.09 428.67 136.59 427.17C164.09 425.67 167.09 415.17 167.59 398.17Z" fill="#26E0AC" stroke="#263238" stroke-linecap="round" stroke-linejoin="round"/>
<path d="M165.59 393.5C165.59 393.5 161.09 340 156.59 327C152.09 314 116.59 306 100.09 312C83.5901 318 75.5901 325 78.5901 342C81.5901 359 73.0901 395.5 81.0901 407.5C89.0901 419.5 107.09 424 134.59 422.5C162.09 421 165.09 410.5 165.59 393.5Z" fill="white" stroke="#263238" stroke-linecap="round" stroke-linejoin="round"/>
<path d="M142.59 320.5C142.85 318.44 143.12 316.65 143.38 315.08C130.77 310.14 113.49 308.33 102.99 311.71C101.604 315.307 100.958 319.147 101.09 323C101.09 333.5 101.59 345 101.59 345L145.09 348.5C145.09 348.5 141.09 332 142.59 320.5Z" fill="#26E0AC" stroke="#263238" stroke-linecap="round" stroke-linejoin="round"/>
<path d="M179.52 189C178.84 188.43 178.13 187.87 177.41 187.33C166.27 179 149.26 177.68 140.77 194.18C135.702 203.948 133.067 214.795 133.09 225.8C135.282 228.128 137.348 230.572 139.28 233.12C141.86 236.36 147.44 248.21 159.19 252.05C171.65 256.13 185.03 242.61 185.09 227.7C185.09 218.84 184.93 216.37 182.09 208.04C180.238 201.868 179.371 195.442 179.52 189V189Z" fill="white" stroke="#263238" stroke-linecap="round" stroke-linejoin="round"/>
<path d="M152.59 223.94C152.59 223.94 154.1 228.68 153.17 231.94C152.24 235.2 156.56 237.34 159.48 235.62" stroke="#263238" stroke-linecap="round" stroke-linejoin="round"/>
<path d="M157.78 239.88C157.78 239.88 163.64 243.62 168.98 236.2" stroke="#263238" stroke-linecap="round" stroke-linejoin="round"/>
<path d="M164.49 219C165.1 220.61 165.04 222.13 164.35 222.39C163.66 222.65 162.6 221.56 161.99 219.96C161.38 218.36 161.44 216.83 162.13 216.57C162.82 216.31 163.87 217.35 164.49 219Z" fill="#263238"/>
<path d="M146.39 223.61C147 225.21 146.94 226.73 146.25 226.99C145.56 227.25 144.51 226.17 143.89 224.56C143.27 222.95 143.34 221.43 144.03 221.17C144.72 220.91 145.78 222 146.39 223.61Z" fill="#263238"/>
<path d="M156.26 214C157.781 212.366 159.75 211.219 161.92 210.701C164.091 210.183 166.366 210.318 168.46 211.09" stroke="#263238" stroke-width="2" stroke-linecap="round" stroke-linejoin="round"/>
<path d="M148.48 216.38C148.48 216.38 140.74 211.99 138.72 220.78" stroke="#263238" stroke-width="2" stroke-linecap="round" stroke-linejoin="round"/>
<path d="M172.87 213C175.99 218.74 174.48 225.59 169.51 228.3C164.54 231.01 157.96 228.54 154.84 222.8C151.72 217.06 153.22 210.2 158.2 207.5C163.18 204.8 169.75 207.26 172.87 213Z" stroke="#263238" stroke-linecap="round" stroke-linejoin="round"/>
<path d="M151.11 220.16C154.23 225.91 152.73 232.76 147.75 235.46C142.77 238.16 136.2 235.7 133.08 229.96C129.96 224.22 131.47 217.37 136.45 214.66C141.43 211.95 148 214.42 151.11 220.16Z" stroke="#263238" stroke-linecap="round" stroke-linejoin="round"/>
<path d="M151.97 221.41L153.93 221.16" stroke="#263238" stroke-linecap="round" stroke-linejoin="round"/>
<path d="M172.87 213L183.98 204.18" stroke="#263238" stroke-linecap="round" stroke-linejoin="round"/>
<path d="M165.53 160.6C165.53 160.6 181 131 184.89 134.45C188.78 137.9 196.89 170.45 190.89 174.01C184.89 177.57 165.89 165.85 165.89 165.85C165.89 165.85 162.43 170.45 158.59 172.24C154.75 174.03 149.45 159.46 148.96 151.53C148.47 143.6 161.2 149.08 165.53 160.6Z" fill="white" stroke="#263238" stroke-linecap="round" stroke-linejoin="round"/>
<path d="M189.67 176.59C186.811 170.071 182.152 164.502 176.239 160.536C170.327 156.57 163.407 154.372 156.29 154.2C150.22 153.99 143.76 154.65 138.44 157.2C123.79 164.26 116.84 184.69 116.84 184.69C116.84 184.69 104.47 184.69 101.71 194.21C98.9501 203.73 106 202.83 106 202.83C106 202.83 98.6401 216.94 108 221.33C117.36 225.72 120.16 216.58 120.16 216.58C120.16 216.58 121.93 233.5 134.16 226.35C146.39 219.2 143.99 200.35 149.76 192.44C155.53 184.53 162.31 190.83 162.31 190.83C162.31 190.83 162.25 202.83 167.71 204.9C171.159 206.254 174.454 207.97 177.54 210.02C177.54 210.02 178.74 203.88 182.67 203.38C186.6 202.88 188.31 203.86 188.31 203.86C188.31 203.86 193.24 195.65 191.68 183.48C191.329 181.102 190.653 178.784 189.67 176.59Z" fill="#263238" stroke="#263238" stroke-linecap="round" stroke-linejoin="round"/>
<path d="M179.69 189.47C186.01 187.19 188.88 182.08 190.19 177.91C190.03 177.47 189.86 177.03 189.67 176.59C189.649 176.531 189.623 176.474 189.59 176.42C188.53 180.53 185.9 186.17 179.35 188.53C168.57 192.42 164.19 188.89 164.13 188.84C164.083 188.787 164.025 188.745 163.96 188.717C163.895 188.688 163.825 188.674 163.754 188.675C163.683 188.676 163.613 188.691 163.549 188.721C163.485 188.751 163.427 188.794 163.381 188.847C163.335 188.901 163.3 188.964 163.28 189.032C163.259 189.099 163.254 189.171 163.263 189.241C163.273 189.311 163.297 189.379 163.334 189.439C163.372 189.499 163.421 189.55 163.48 189.59C163.67 189.76 168.26 193.6 179.69 189.47Z" fill="#92989B"/>
<path d="M134.66 208.32C133.73 206.52 131.85 204.56 128.11 205.45C126.895 205.652 125.738 206.113 124.718 206.804C123.698 207.494 122.839 208.397 122.2 209.45C120.38 212.77 121.7 216.62 121.75 216.78C121.772 216.846 121.806 216.906 121.851 216.959C121.896 217.011 121.951 217.054 122.013 217.085C122.075 217.116 122.142 217.135 122.211 217.14C122.28 217.145 122.349 217.137 122.415 217.115C122.481 217.093 122.541 217.059 122.594 217.014C122.646 216.969 122.689 216.914 122.72 216.852C122.751 216.79 122.77 216.723 122.775 216.654C122.78 216.585 122.772 216.516 122.75 216.45C122.75 216.45 121.53 212.85 123.13 209.93C123.699 208.995 124.464 208.195 125.372 207.584C126.28 206.972 127.31 206.565 128.39 206.39C129.427 206.03 130.562 206.072 131.57 206.509C132.578 206.946 133.384 207.746 133.83 208.75C135.83 212.6 134.83 219.93 132.66 221.81C132.07 222.34 131.53 222.5 131.06 222.29C130.06 221.86 129.43 220.03 129.39 218.57C129.39 217.68 129.58 217.17 129.79 217.07C129.906 217.006 129.994 216.9 130.035 216.774C130.076 216.647 130.067 216.51 130.01 216.39C129.948 216.274 129.844 216.186 129.719 216.145C129.594 216.104 129.458 216.113 129.34 216.17C128.7 216.49 128.34 217.35 128.39 218.6C128.39 220.37 129.24 222.6 130.66 223.21C130.915 223.322 131.191 223.38 131.47 223.38C132.165 223.348 132.824 223.059 133.32 222.57C135.76 220.42 136.9 212.67 134.66 208.32Z" fill="#92989B"/>
<path d="M161.23 185.86H161.28C161.345 185.855 161.409 185.837 161.467 185.807C161.525 185.777 161.577 185.735 161.619 185.685C161.661 185.635 161.692 185.576 161.711 185.514C161.731 185.451 161.737 185.385 161.73 185.32C161.73 185.13 159.97 166.63 173.92 161.76C174.046 161.716 174.149 161.624 174.207 161.504C174.266 161.384 174.274 161.246 174.23 161.12C174.186 160.994 174.094 160.89 173.974 160.832C173.854 160.774 173.716 160.766 173.59 160.81C158.9 165.95 160.71 185.22 160.73 185.42C160.747 185.541 160.806 185.652 160.898 185.733C160.99 185.813 161.108 185.859 161.23 185.86Z" fill="#92989B"/>
<path d="M192 188.26C192 187.62 192 186.96 191.94 186.26C188.38 192.96 182.37 200.67 173.2 201.98C173.134 201.985 173.07 202.002 173.011 202.031C172.953 202.061 172.9 202.102 172.857 202.151C172.77 202.252 172.726 202.382 172.735 202.515C172.744 202.648 172.806 202.771 172.906 202.858C173.007 202.946 173.138 202.989 173.27 202.98H173.34C182.2 201.73 188.21 194.77 192 188.26Z" fill="#92989B"/>
<path d="M178.46 212.88C178.46 212.88 179.62 200.72 186.26 199.68C192.9 198.64 194.38 204.06 192.95 212.57C191.52 221.08 184 230.38 182.11 221.71" fill="white"/>
<path d="M178.46 212.88C178.46 212.88 179.62 200.72 186.26 199.68C192.9 198.64 194.38 204.06 192.95 212.57C191.52 221.08 184 230.38 182.11 221.71" stroke="#263238" stroke-linecap="round" stroke-linejoin="round"/>
</svg>
