<svg width="605" height="399" viewBox="0 0 605 399" fill="none" xmlns="http://www.w3.org/2000/svg">
<path d="M302.965 398.522C463.156 398.522 593.015 375.038 593.015 346.068C593.015 317.098 463.156 293.614 302.965 293.614C142.775 293.614 12.9155 317.098 12.9155 346.068C12.9155 375.038 142.775 398.522 302.965 398.522Z" fill="#26E0AC"/>
<path opacity="0.4" d="M302.965 398.522C463.156 398.522 593.015 375.038 593.015 346.068C593.015 317.098 463.156 293.614 302.965 293.614C142.775 293.614 12.9155 317.098 12.9155 346.068C12.9155 375.038 142.775 398.522 302.965 398.522Z" fill="white"/>
<path d="M516.992 184.714C517.181 187.263 516.744 203.199 516.628 207.51C498.201 217.459 460.124 224.801 420.488 224.146C415.856 224.058 411.108 223.854 406.286 223.534C399.396 223.082 392.36 222.383 385.368 221.494C377.4 220.475 369.447 219.193 361.756 217.722C353.613 216.163 345.733 214.357 338.449 212.419C330.219 210.274 322.132 207.608 314.24 204.437L313.686 204.204C301.683 199.164 294.24 193.76 294.327 188.705C294.322 188.216 294.371 187.727 294.473 187.248C280.853 182.034 272.317 176.396 272.404 171.225C272.652 155.697 313.788 146.928 372.36 147.919C430.933 148.909 521.027 162.15 520.779 177.707C520.779 180.096 519.323 182.471 516.919 184.772L516.992 184.714Z" fill="#999999"/>
<path d="M528.106 195.027C528.033 199.397 523.853 203.767 516.613 207.627C516.744 203.257 517.181 187.379 516.992 184.83C524.057 188.035 528.179 191.458 528.106 195.027Z" fill="#5C5C5C"/>
<path opacity="0.5" d="M301.508 197.896C301.873 198.1 294.502 187.277 294.502 187.277C294.502 187.277 292.157 192.813 301.508 197.896Z" fill="black"/>
<path d="M527.509 231.575L533.117 207.146L574.516 217.343L571.282 236.192C570.233 242.283 567.702 248.023 563.912 252.905C560.122 257.788 555.189 261.663 549.548 264.189C542.265 267.481 535.666 270.526 536.672 270.497C537.677 270.467 534.647 264.379 531.267 258.29C526.758 250.155 525.419 240.638 527.509 231.575Z" fill="#BFBFBF" stroke="#263238" stroke-linecap="round" stroke-linejoin="round"/>
<path d="M565.164 67.5842C565.499 69.3176 568.077 91.5317 577.006 93.6293C585.936 95.7269 602.178 80.2863 603.867 74.5762C606.708 65.0351 562.95 55.9309 565.164 67.5842ZM596.686 75.6687C595.535 79.5434 584.508 90.0313 578.434 88.6038C572.36 87.1762 570.597 72.0707 570.379 70.9054C568.878 62.9812 598.667 69.172 596.7 75.6687H596.686Z" fill="white" stroke="#263238" stroke-linecap="round" stroke-linejoin="round"/>
<path d="M575.448 62.0923C575.066 62.8516 574.867 63.6896 574.867 64.5395C574.867 65.3893 575.066 66.2274 575.448 66.9867" fill="white"/>
<path d="M575.448 62.0923C575.066 62.8516 574.867 63.6896 574.867 64.5395C574.867 65.3893 575.066 66.2274 575.448 66.9867" stroke="#263238" stroke-linecap="round" stroke-linejoin="round"/>
<path d="M592.928 65.3115L590.99 70.0311" stroke="#263238" stroke-linecap="round" stroke-linejoin="round"/>
<path d="M550.189 211.327L574.982 85.3989L583.532 86.7827L557.036 213.002L550.189 211.327Z" fill="white" stroke="#263238" stroke-linecap="round" stroke-linejoin="round"/>
<path d="M554.122 190.875L561.406 192.536C561.406 192.536 556.06 217.212 555.331 219.98C554.603 222.747 550.481 224.35 550.481 224.35C549.741 223.445 549.224 222.379 548.971 221.238C548.718 220.097 548.736 218.913 549.024 217.78C550.058 213.73 554.122 190.875 554.122 190.875Z" fill="#263238" stroke="#263238" stroke-linecap="round" stroke-linejoin="round"/>
<path d="M533.263 222.354C524.392 223.694 516.133 230.584 517.065 238.974C515.28 237.731 513.179 237.019 511.005 236.921C508.832 236.823 506.675 237.343 504.785 238.421C502.964 239.491 501.515 241.094 500.635 243.014C499.754 244.934 499.484 247.078 499.862 249.156C493.686 247.802 486.868 253.381 487.407 259.353C487.946 265.325 495.623 269.55 501.464 267.03C512.666 276.643 529.825 279.6 544.159 274.4L586.985 273.686C581.941 268.828 576.141 264.823 569.811 261.829C570.913 259.961 571.441 257.81 571.327 255.644C571.213 253.478 570.462 251.393 569.17 249.652C567.746 247.909 565.877 246.582 563.762 245.813C561.647 245.044 559.363 244.86 557.152 245.282C558.23 240.504 554.137 219.207 533.263 222.354Z" fill="#999999"/>
<path d="M59.4121 267.773C61.9613 266.447 78.9896 150.949 78.9896 150.949C78.9896 150.949 262.849 116.906 265.442 116.761L251.822 224.058L59.4121 267.773Z" fill="#26E0AC" stroke="#263238" stroke-width="0.955681" stroke-linecap="round" stroke-linejoin="round"/>
<path opacity="0.5" d="M251.866 223.534C251.866 223.884 251.866 224.059 251.866 224.059L59.4849 267.758C62.034 266.433 79.0624 150.934 79.0624 150.934C79.0624 150.934 262.922 116.892 265.515 116.747C265.544 116.752 265.571 116.763 265.596 116.779C265.621 116.795 265.642 116.816 265.658 116.84C265.674 116.865 265.685 116.892 265.691 116.921C265.696 116.95 265.696 116.98 265.689 117.009C262.427 141.553 253.031 215.77 251.866 223.534Z" fill="black" stroke="#263238" stroke-width="0.955681" stroke-linecap="round" stroke-linejoin="round"/>
<path d="M78.9894 150.949C78.9894 150.949 43.2284 172.813 36.3967 198.348C29.565 223.884 59.4119 267.773 59.4119 267.773C59.4119 267.773 65.0783 246.491 70.0747 209.361C72.0411 194.721 78.9894 150.949 78.9894 150.949Z" fill="#263238" stroke="#263238" stroke-width="0.955681" stroke-linecap="round" stroke-linejoin="round"/>
<path opacity="0.5" d="M242.704 225.835C238.873 220.271 218.232 192.623 227.452 171.167C243.956 132.726 256.469 131.007 262.106 121.247C262.179 121.276 243.869 218.1 242.704 225.835Z" fill="black"/>
<path d="M59.4121 267.773L69.5359 265.471L87.2197 160.606L256.891 128.123L242.703 225.864L251.793 224.058L265.588 117.023L78.9896 150.949L59.4121 267.773Z" fill="#26E0AC" stroke="#263238" stroke-width="0.955681" stroke-linecap="round" stroke-linejoin="round"/>
<path d="M59.4121 267.773L65.3698 335.391H59.4121L62.3254 350.627C62.3254 350.627 130.57 396.876 136.426 396.701C148.822 396.352 315.595 343.344 315.595 343.344L317.284 331.428L313.031 329.156V267.773L251.749 224.073L59.4121 267.773Z" fill="#26E0AC" stroke="#263238" stroke-width="0.955681" stroke-linecap="round" stroke-linejoin="round"/>
<path opacity="0.5" d="M313.075 267.773V329.157L135.61 380.781L65.3553 335.406L59.4121 267.773L251.793 224.059L313.075 267.773Z" fill="black"/>
<path opacity="0.2" d="M59.4121 267.773L131.764 311.444L313.075 267.773L251.793 224.059L59.4121 267.773Z" fill="black"/>
<path opacity="0.5" d="M78.9897 269.098L133.469 301.349L295.202 262.179L250.089 229.841L78.9897 269.098Z" fill="black"/>
<path d="M131.764 311.443L136.484 396.701" stroke="#263238" stroke-width="0.955681" stroke-linecap="round" stroke-linejoin="round"/>
<path d="M65.3696 341.363L135.799 386.622" stroke="#263238" stroke-width="0.955681" stroke-linecap="round" stroke-linejoin="round"/>
<path d="M313.075 333.978L136.484 386.621" stroke="#263238" stroke-width="0.955681" stroke-linecap="round" stroke-linejoin="round"/>
<path opacity="0.4" d="M240.518 325.587C228.122 330.846 215.464 324.568 215.464 324.568V314.371C222.114 317.083 229.393 317.871 236.469 316.643C241.655 315.857 242.689 313.73 242.296 311.764C245.296 323.024 240.518 325.587 240.518 325.587Z" fill="white"/>
<path opacity="0.6" d="M236.469 316.672C229.393 317.9 222.114 317.112 215.464 314.4H215.551L239.309 307.117C240.671 308.424 241.675 310.059 242.223 311.865C242.689 313.817 241.655 315.886 236.469 316.672Z" fill="white"/>
<path d="M240.518 325.587C228.122 330.846 215.464 324.568 215.464 324.568V314.371H215.551L239.309 307.088C240.671 308.395 241.675 310.03 242.223 311.837C242.223 311.837 242.223 311.837 242.223 311.837C245.296 323.024 240.518 325.587 240.518 325.587Z" stroke="#263238" stroke-width="0.955681" stroke-linecap="round" stroke-linejoin="round"/>
<path d="M78.5231 269.098L133.002 301.348L294.691 262.193L257.284 234.007C256.836 231.618 255.679 229.42 253.963 227.7C251.748 225.339 249.03 223.506 246.01 222.339L244.553 222.091C244.553 222.091 229.564 187.845 199.309 178.392C169.054 168.938 64.277 250.016 78.5377 269.112" fill="white"/>
<path d="M78.5231 269.098L133.002 301.348L294.691 262.193L257.284 234.007C256.836 231.618 255.679 229.42 253.963 227.7C251.748 225.339 249.03 223.506 246.01 222.339L244.553 222.091C244.553 222.091 229.564 187.845 199.309 178.392C169.054 168.938 64.277 250.016 78.5377 269.112" stroke="#26E0AC" stroke-width="0.955681" stroke-linecap="round" stroke-linejoin="round"/>
<path d="M124.394 204.801C124.816 205.996 123.636 207.117 122.646 207.904C121.655 208.69 120.592 210.016 121.262 211.109C120.558 210.695 119.748 210.497 118.933 210.538C118.117 210.58 117.332 210.859 116.673 211.342C116.022 211.841 115.534 212.524 115.275 213.303C115.015 214.082 114.995 214.921 115.217 215.712C115.974 218.042 118.625 219.12 121.043 219.674C126.319 220.716 131.689 221.204 137.066 221.13C137.839 221.13 138.844 220.985 138.989 220.227C139.001 219.942 138.917 219.661 138.751 219.429C138.585 219.196 138.345 219.026 138.072 218.945C137.547 218.727 136.95 218.698 136.411 218.494C136.065 218.329 135.76 218.09 135.517 217.795C135.273 217.499 135.097 217.154 135.002 216.783C134.906 216.413 134.892 216.026 134.962 215.649C135.032 215.273 135.184 214.916 135.406 214.605C135.216 214.069 135.242 213.48 135.478 212.964C135.715 212.447 136.144 212.043 136.673 211.837C137.754 211.457 138.918 211.381 140.038 211.618C140.204 211.299 140.255 210.933 140.184 210.58C140.112 210.228 139.922 209.91 139.645 209.681C139.994 209.356 140.233 208.93 140.33 208.463C140.426 207.996 140.375 207.51 140.184 207.074C138.465 203.111 127.744 204.291 124.394 204.801Z" fill="white"/>
<path d="M136.906 209.608C133.362 209.288 129.853 208.659 126.418 207.729L136.906 209.608Z" fill="white"/>
<path d="M136.906 209.608C133.362 209.288 129.853 208.659 126.418 207.729" stroke="#26E0AC" stroke-width="0.716761" stroke-linecap="round" stroke-linejoin="round"/>
<path d="M133.687 214.182C130.98 214.321 128.273 213.925 125.719 213.017L133.687 214.182Z" fill="white"/>
<path d="M133.687 214.182C130.98 214.321 128.273 213.925 125.719 213.017" stroke="#26E0AC" stroke-width="0.716761" stroke-linecap="round" stroke-linejoin="round"/>
<path d="M133.643 218.304C128.3 218.267 122.991 217.453 117.882 215.886L133.643 218.304Z" fill="white"/>
<path d="M133.643 218.304C128.3 218.267 122.991 217.453 117.882 215.886" stroke="#26E0AC" stroke-width="0.716761" stroke-linecap="round" stroke-linejoin="round"/>
<path d="M78.2469 253.424C78.6693 254.619 77.504 255.741 76.4989 256.527C75.4938 257.314 74.4596 258.639 75.1296 259.732C74.4234 259.317 73.6112 259.118 72.7932 259.16C71.9753 259.201 71.1873 259.481 70.5266 259.965C69.8856 260.471 69.4121 261.159 69.1679 261.939C68.9236 262.718 68.9199 263.553 69.1573 264.335C69.9002 266.665 72.5513 267.743 74.984 268.297C80.2847 269.336 85.6788 269.824 91.08 269.754C91.8521 269.754 92.8717 269.608 93.0174 268.85C93.0265 268.562 92.94 268.278 92.7714 268.044C92.6029 267.81 92.3616 267.637 92.0851 267.554C91.5607 267.35 90.9635 267.321 90.4391 267.117C90.0924 266.954 89.7857 266.716 89.5408 266.421C89.2958 266.126 89.1184 265.781 89.0212 265.41C88.924 265.04 88.9093 264.652 88.9781 264.275C89.0469 263.898 89.1976 263.54 89.4195 263.228C89.2339 262.69 89.2638 262.102 89.5028 261.586C89.7418 261.07 90.1713 260.666 90.7013 260.46C91.7771 260.084 92.9341 260.003 94.0516 260.227C94.239 259.917 94.304 259.548 94.2339 259.192C94.1639 258.837 93.9639 258.52 93.6729 258.304C94.0206 257.975 94.2578 257.546 94.3517 257.077C94.4456 256.607 94.3917 256.12 94.1973 255.682C92.3182 251.72 81.5535 252.9 78.2469 253.424Z" fill="white"/>
<path d="M90.7448 258.217C87.2001 257.91 83.69 257.286 80.2568 256.352" stroke="#26E0AC" stroke-width="0.716761" stroke-linecap="round" stroke-linejoin="round"/>
<path d="M87.5403 262.762C84.8392 262.907 82.1361 262.516 79.5869 261.611" stroke="#26E0AC" stroke-width="0.716761" stroke-linecap="round" stroke-linejoin="round"/>
<path d="M87.4965 266.928C82.1568 266.893 76.8512 266.073 71.75 264.495" stroke="#26E0AC" stroke-width="0.716761" stroke-linecap="round" stroke-linejoin="round"/>
<path d="M144.495 191.56C144.801 192.798 143.505 193.789 142.427 194.473C141.349 195.158 140.169 196.353 140.723 197.503C140.063 197.017 139.276 196.735 138.458 196.691C137.64 196.647 136.827 196.843 136.12 197.256C135.428 197.693 134.883 198.328 134.556 199.079C134.229 199.829 134.134 200.661 134.284 201.465C134.794 203.869 137.314 205.224 139.63 206.025C144.792 207.608 150.103 208.658 155.479 209.157C156.251 209.244 157.27 209.157 157.489 208.457C157.534 208.174 157.482 207.883 157.342 207.632C157.202 207.381 156.982 207.184 156.717 207.074C156.207 206.811 155.624 206.724 155.114 206.462C154.788 206.261 154.51 205.991 154.299 205.671C154.089 205.351 153.951 204.989 153.895 204.609C153.84 204.23 153.868 203.844 153.978 203.477C154.088 203.11 154.277 202.771 154.532 202.485C154.402 201.931 154.492 201.349 154.783 200.86C155.073 200.371 155.542 200.014 156.09 199.863C157.203 199.601 158.366 199.646 159.455 199.994C159.672 199.704 159.773 199.343 159.738 198.982C159.703 198.621 159.535 198.286 159.266 198.042C159.65 197.755 159.934 197.354 160.078 196.897C160.221 196.439 160.218 195.948 160.067 195.493C158.669 191.371 147.889 191.415 144.495 191.56Z" fill="white"/>
<path d="M156.411 197.664C152.93 197.007 149.517 196.032 146.214 194.75" stroke="#26E0AC" stroke-width="0.716761" stroke-linecap="round" stroke-linejoin="round"/>
<path d="M152.754 201.844C150.044 201.711 147.389 201.033 144.947 199.849" stroke="#26E0AC" stroke-width="0.716761" stroke-linecap="round" stroke-linejoin="round"/>
<path d="M152.259 205.981C146.968 205.378 141.795 203.999 136.906 201.888" stroke="#26E0AC" stroke-width="0.716761" stroke-linecap="round" stroke-linejoin="round"/>
<path d="M230.715 195.93C230.584 197.125 231.895 197.897 232.988 198.421C234.08 198.945 235.318 199.878 234.925 201.058C235.486 200.526 236.191 200.171 236.952 200.036C237.714 199.901 238.498 199.993 239.207 200.3C239.906 200.629 240.49 201.161 240.882 201.826C241.274 202.491 241.457 203.259 241.407 204.029C241.203 206.331 239.004 207.889 236.921 208.894C232.277 210.976 227.429 212.568 222.456 213.643C221.757 213.818 220.795 213.891 220.504 213.221C220.43 212.96 220.445 212.681 220.548 212.43C220.651 212.179 220.836 211.97 221.072 211.837C221.509 211.531 222.048 211.385 222.529 211.079C222.813 210.856 223.045 210.573 223.207 210.249C223.37 209.926 223.459 209.571 223.469 209.21C223.479 208.848 223.409 208.489 223.264 208.157C223.119 207.826 222.903 207.531 222.631 207.292C222.693 206.76 222.545 206.225 222.219 205.8C221.892 205.376 221.413 205.096 220.883 205.02C219.812 204.913 218.732 205.088 217.751 205.53C217.537 205.269 217.42 204.942 217.42 204.605C217.42 204.267 217.537 203.94 217.751 203.68C217.363 203.451 217.055 203.11 216.867 202.701C216.68 202.292 216.622 201.835 216.702 201.393C217.445 197.372 227.54 196.178 230.715 195.93Z" fill="white"/>
<path d="M220.285 203.009C223.473 201.974 226.56 200.647 229.506 199.047" stroke="#26E0AC" stroke-width="0.716761" stroke-linecap="round" stroke-linejoin="round"/>
<path d="M224.175 206.491C226.692 206.052 229.095 205.111 231.24 203.723" stroke="#26E0AC" stroke-width="0.716761" stroke-linecap="round" stroke-linejoin="round"/>
<path d="M225.107 210.307C230.001 209.137 234.697 207.257 239.047 204.728" stroke="#26E0AC" stroke-width="0.716761" stroke-linecap="round" stroke-linejoin="round"/>
<path d="M262.776 234.328C262.776 235.041 263.504 235.522 264.233 235.784C264.961 236.046 265.689 236.702 265.413 237.401C265.753 237.075 266.182 236.857 266.646 236.774C267.11 236.691 267.588 236.747 268.02 236.935C268.444 237.137 268.799 237.462 269.037 237.867C269.276 238.271 269.388 238.738 269.36 239.207C269.229 240.664 267.904 241.553 266.636 242.121C263.832 243.393 260.903 244.37 257.896 245.034C257.459 245.151 256.877 245.194 256.702 244.786C256.658 244.627 256.668 244.457 256.731 244.304C256.795 244.151 256.907 244.023 257.051 243.942C257.314 243.752 257.649 243.665 257.911 243.475C258.091 243.345 258.238 243.175 258.342 242.979C258.446 242.782 258.504 242.565 258.511 242.343C258.518 242.12 258.474 241.9 258.383 241.697C258.292 241.495 258.155 241.316 257.984 241.174C258.014 240.849 257.919 240.526 257.718 240.269C257.518 240.012 257.228 239.841 256.906 239.79C256.252 239.724 255.593 239.834 254.998 240.111C254.867 239.95 254.796 239.749 254.796 239.543C254.796 239.336 254.867 239.135 254.998 238.974C254.763 238.836 254.576 238.63 254.461 238.383C254.346 238.135 254.31 237.859 254.357 237.591C254.706 235.202 260.839 234.473 262.776 234.328Z" fill="white"/>
<path d="M256.425 238.625C258.367 237.99 260.248 237.186 262.048 236.221" stroke="#26E0AC" stroke-width="0.716761" stroke-linecap="round" stroke-linejoin="round"/>
<path d="M258.799 240.752C260.33 240.481 261.791 239.906 263.096 239.062" stroke="#26E0AC" stroke-width="0.716761" stroke-linecap="round" stroke-linejoin="round"/>
<path d="M259.368 243.068C262.343 242.352 265.198 241.209 267.845 239.674" stroke="#26E0AC" stroke-width="0.716761" stroke-linecap="round" stroke-linejoin="round"/>
<path d="M136.426 217.824C136.582 218.574 136.903 219.28 137.367 219.89C137.831 220.499 138.425 220.998 139.106 221.349C140.461 222.031 141.959 222.381 143.476 222.368C145.932 222.56 148.374 221.857 150.351 220.387" stroke="#26E0AC" stroke-width="0.716761" stroke-linecap="round" stroke-linejoin="round"/>
<path d="M156.601 222.15C157.693 223.336 159.169 224.098 160.768 224.3C162.368 224.503 163.987 224.133 165.341 223.257" stroke="#26E0AC" stroke-width="0.716761" stroke-linecap="round" stroke-linejoin="round"/>
<path d="M149.462 212.434C148.784 212.731 148.162 213.145 147.627 213.658C147.364 213.92 147.163 214.238 147.039 214.589C146.916 214.939 146.873 215.313 146.913 215.682C147.132 217.139 148.851 217.736 150.293 217.969C154.166 218.521 158.103 218.427 161.946 217.693C162.554 217.619 163.142 217.432 163.679 217.139C163.948 216.997 164.176 216.788 164.341 216.533C164.507 216.278 164.605 215.986 164.626 215.682C164.626 215.531 164.596 215.381 164.537 215.241C164.478 215.101 164.392 214.974 164.283 214.869C164.175 214.763 164.046 214.68 163.905 214.624C163.763 214.569 163.613 214.542 163.461 214.546" stroke="#26E0AC" stroke-width="0.716761" stroke-linecap="round" stroke-linejoin="round"/>
<path d="M166.855 221.946C169.873 223.814 173.361 224.78 176.91 224.731C180.459 224.682 183.919 223.62 186.884 221.669C186.976 221.622 187.057 221.556 187.123 221.476C187.188 221.396 187.236 221.303 187.263 221.203" stroke="#26E0AC" stroke-width="0.716761" stroke-linecap="round" stroke-linejoin="round"/>
<path d="M202.31 218.275C208.799 219.779 215.617 218.769 221.392 215.449" stroke="#26E0AC" stroke-width="0.716761" stroke-linecap="round" stroke-linejoin="round"/>
<path d="M231.327 211.138C234.136 210.869 236.8 209.762 238.974 207.962" stroke="#26E0AC" stroke-width="0.716761" stroke-linecap="round" stroke-linejoin="round"/>
<path d="M171.866 183.898C171.869 184.398 171.723 184.887 171.448 185.304C171.172 185.72 170.778 186.045 170.317 186.238C169.856 186.431 169.348 186.482 168.858 186.385C168.368 186.288 167.918 186.048 167.564 185.695C167.211 185.341 166.971 184.891 166.874 184.401C166.777 183.91 166.828 183.403 167.021 182.942C167.213 182.48 167.539 182.087 167.955 181.811C168.372 181.535 168.861 181.39 169.361 181.393C170.025 181.393 170.662 181.657 171.132 182.126C171.602 182.596 171.866 183.234 171.866 183.898Z" fill="white" stroke="#26E0AC" stroke-width="0.716761" stroke-linecap="round" stroke-linejoin="round"/>
<path d="M174.401 186.403C174.404 186.902 174.258 187.391 173.983 187.807C173.708 188.224 173.316 188.549 172.855 188.742C172.395 188.935 171.888 188.987 171.398 188.891C170.908 188.796 170.458 188.557 170.104 188.205C169.75 187.853 169.509 187.404 169.41 186.915C169.312 186.426 169.361 185.918 169.551 185.457C169.742 184.996 170.065 184.601 170.479 184.324C170.894 184.046 171.382 183.898 171.881 183.898C172.547 183.898 173.185 184.161 173.658 184.631C174.13 185.1 174.397 185.738 174.401 186.403Z" fill="white" stroke="#26E0AC" stroke-width="0.716761" stroke-linecap="round" stroke-linejoin="round"/>
<path d="M177.576 188.108C177.579 188.607 177.434 189.096 177.159 189.512C176.883 189.928 176.491 190.254 176.031 190.447C175.57 190.64 175.063 190.692 174.573 190.596C174.084 190.5 173.633 190.262 173.279 189.91C172.926 189.558 172.684 189.109 172.586 188.62C172.487 188.13 172.536 187.623 172.727 187.162C172.917 186.7 173.24 186.306 173.655 186.028C174.069 185.751 174.557 185.603 175.056 185.603C175.386 185.601 175.714 185.664 176.019 185.789C176.325 185.914 176.603 186.098 176.837 186.331C177.071 186.564 177.257 186.841 177.384 187.146C177.511 187.451 177.576 187.778 177.576 188.108Z" fill="white" stroke="#26E0AC" stroke-width="0.716761" stroke-linecap="round" stroke-linejoin="round"/>
<path d="M180.082 188.923C180.082 189.422 179.933 189.91 179.656 190.325C179.378 190.74 178.984 191.063 178.523 191.253C178.061 191.443 177.554 191.492 177.065 191.394C176.575 191.295 176.126 191.054 175.774 190.7C175.423 190.346 175.184 189.896 175.088 189.406C174.993 188.916 175.045 188.409 175.238 187.949C175.431 187.489 175.756 187.096 176.172 186.821C176.588 186.546 177.077 186.4 177.576 186.403C177.906 186.403 178.233 186.469 178.538 186.595C178.843 186.722 179.12 186.908 179.353 187.142C179.586 187.377 179.77 187.654 179.895 187.96C180.02 188.266 180.083 188.593 180.082 188.923Z" fill="white" stroke="#26E0AC" stroke-width="0.716761" stroke-linecap="round" stroke-linejoin="round"/>
<path d="M183.519 189.695C183.519 190.191 183.372 190.675 183.097 191.087C182.822 191.499 182.43 191.821 181.973 192.01C181.515 192.2 181.011 192.249 180.525 192.153C180.039 192.056 179.593 191.817 179.242 191.467C178.892 191.117 178.653 190.67 178.556 190.184C178.46 189.698 178.509 189.194 178.699 188.737C178.889 188.279 179.21 187.887 179.622 187.612C180.034 187.337 180.518 187.19 181.014 187.19C181.677 187.194 182.312 187.459 182.781 187.928C183.25 188.397 183.515 189.032 183.519 189.695Z" fill="white" stroke="#26E0AC" stroke-width="0.716761" stroke-linecap="round" stroke-linejoin="round"/>
<path d="M187.263 189.695C187.266 190.194 187.121 190.683 186.846 191.099C186.57 191.516 186.178 191.841 185.718 192.034C185.257 192.227 184.75 192.279 184.26 192.183C183.771 192.088 183.32 191.849 182.966 191.497C182.613 191.145 182.371 190.696 182.273 190.207C182.174 189.718 182.223 189.21 182.414 188.749C182.604 188.288 182.927 187.893 183.342 187.616C183.756 187.338 184.244 187.19 184.743 187.19C185.408 187.194 186.044 187.458 186.516 187.927C186.987 188.396 187.256 189.031 187.263 189.695Z" fill="white" stroke="#26E0AC" stroke-width="0.716761" stroke-linecap="round" stroke-linejoin="round"/>
<path d="M188.37 192.201C189.754 192.201 190.876 191.079 190.876 189.695C190.876 188.312 189.754 187.19 188.37 187.19C186.986 187.19 185.865 188.312 185.865 189.695C185.865 191.079 186.986 192.201 188.37 192.201Z" fill="white" stroke="#26E0AC" stroke-width="0.716761" stroke-linecap="round" stroke-linejoin="round"/>
<path d="M191.808 192.201C193.191 192.201 194.313 191.079 194.313 189.695C194.313 188.312 193.191 187.19 191.808 187.19C190.424 187.19 189.302 188.312 189.302 189.695C189.302 191.079 190.424 192.201 191.808 192.201Z" fill="white" stroke="#26E0AC" stroke-width="0.716761" stroke-linecap="round" stroke-linejoin="round"/>
<path d="M213.089 184.685C213.087 185.179 212.937 185.662 212.66 186.073C212.383 186.483 211.991 186.802 211.533 186.989C211.075 187.176 210.571 187.224 210.086 187.126C209.601 187.027 209.156 186.787 208.807 186.437C208.458 186.086 208.221 185.639 208.126 185.153C208.03 184.668 208.081 184.165 208.271 183.708C208.461 183.251 208.782 182.861 209.194 182.586C209.605 182.311 210.089 182.165 210.584 182.165C210.914 182.165 211.241 182.23 211.546 182.357C211.851 182.484 212.128 182.669 212.361 182.904C212.594 183.138 212.778 183.416 212.903 183.721C213.028 184.027 213.091 184.354 213.089 184.685Z" fill="white" stroke="#26E0AC" stroke-width="0.716761" stroke-linecap="round" stroke-linejoin="round"/>
<path d="M210.584 186.01C210.587 186.51 210.441 186.999 210.165 187.416C209.89 187.833 209.496 188.158 209.035 188.35C208.574 188.543 208.066 188.594 207.576 188.497C207.086 188.4 206.635 188.16 206.282 187.807C205.929 187.454 205.688 187.003 205.592 186.513C205.495 186.023 205.546 185.515 205.739 185.054C205.931 184.593 206.256 184.199 206.673 183.924C207.09 183.648 207.579 183.502 208.078 183.505C208.743 183.505 209.38 183.769 209.85 184.239C210.32 184.709 210.584 185.346 210.584 186.01Z" fill="white" stroke="#26E0AC" stroke-width="0.716761" stroke-linecap="round" stroke-linejoin="round"/>
<path d="M205.151 190.162C206.535 190.162 207.656 189.04 207.656 187.656C207.656 186.273 206.535 185.151 205.151 185.151C203.767 185.151 202.646 186.273 202.646 187.656C202.646 189.04 203.767 190.162 205.151 190.162Z" fill="white" stroke="#26E0AC" stroke-width="0.716761" stroke-linecap="round" stroke-linejoin="round"/>
<path d="M201.917 191.429C203.301 191.429 204.423 190.307 204.423 188.923C204.423 187.54 203.301 186.418 201.917 186.418C200.533 186.418 199.412 187.54 199.412 188.923C199.412 190.307 200.533 191.429 201.917 191.429Z" fill="white" stroke="#26E0AC" stroke-width="0.716761" stroke-linecap="round" stroke-linejoin="round"/>
<path d="M198.916 192.201C200.3 192.201 201.422 191.079 201.422 189.695C201.422 188.312 200.3 187.19 198.916 187.19C197.532 187.19 196.411 188.312 196.411 189.695C196.411 191.079 197.532 192.201 198.916 192.201Z" fill="white" stroke="#26E0AC" stroke-width="0.716761" stroke-linecap="round" stroke-linejoin="round"/>
<path d="M195.289 192.201C196.673 192.201 197.795 191.079 197.795 189.695C197.795 188.312 196.673 187.19 195.289 187.19C193.905 187.19 192.784 188.312 192.784 189.695C192.784 191.079 193.905 192.201 195.289 192.201Z" fill="white" stroke="#26E0AC" stroke-width="0.716761" stroke-linecap="round" stroke-linejoin="round"/>
<path d="M195.289 192.201C196.673 192.201 197.795 191.079 197.795 189.695C197.795 188.312 196.673 187.19 195.289 187.19C193.905 187.19 192.784 188.312 192.784 189.695C192.784 191.079 193.905 192.201 195.289 192.201Z" fill="white" stroke="#26E0AC" stroke-width="0.716761" stroke-linecap="round" stroke-linejoin="round"/>
<path d="M170.045 199.397L169.434 197.999" stroke="#26E0AC" stroke-width="0.716761" stroke-linecap="round" stroke-linejoin="round"/>
<path d="M165.341 198.829C165.341 199.033 165.064 200.198 164.86 200.198" stroke="#26E0AC" stroke-width="0.716761" stroke-linecap="round" stroke-linejoin="round"/>
<path d="M165.093 197.416L163.33 198.596" stroke="#26E0AC" stroke-width="0.716761" stroke-linecap="round" stroke-linejoin="round"/>
<path d="M173.818 194.896L170.905 193.148C170.54 192.915 166.84 194.867 166.84 194.867C166.84 194.867 162.689 198.611 163.315 198.596L164.364 201.131C164.364 201.131 169.36 200.271 170.191 200.198C171.021 200.126 174.153 196.469 174.153 196.469" stroke="#26E0AC" stroke-width="0.716761" stroke-linecap="round" stroke-linejoin="round"/>
<path d="M171.866 195.61C171.043 196.245 170.255 196.926 169.506 197.649L166.739 198.392" stroke="#26E0AC" stroke-width="0.716761" stroke-linecap="round" stroke-linejoin="round"/>
<path d="M187.336 202.354L186.87 201.232" stroke="#26E0AC" stroke-width="0.716761" stroke-linecap="round" stroke-linejoin="round"/>
<path d="M183.68 201.902C183.68 202.063 183.461 202.98 183.301 202.995" stroke="#26E0AC" stroke-width="0.716761" stroke-linecap="round" stroke-linejoin="round"/>
<path d="M183.49 200.781L182.121 201.714" stroke="#26E0AC" stroke-width="0.716761" stroke-linecap="round" stroke-linejoin="round"/>
<path d="M190.263 198.771L188.006 197.314C186.904 197.638 185.847 198.098 184.859 198.683C184.859 198.683 181.64 201.669 182.121 201.597L182.936 203.621C182.936 203.621 186.811 202.937 187.438 202.878C188.064 202.82 190.526 199.965 190.526 199.965" stroke="#26E0AC" stroke-width="0.716761" stroke-linecap="round" stroke-linejoin="round"/>
<path d="M188.691 199.339C188.053 199.843 187.446 200.383 186.87 200.956L184.714 201.553" stroke="#26E0AC" stroke-width="0.716761" stroke-linecap="round" stroke-linejoin="round"/>
<path d="M194.065 211.808L195.071 212.711" stroke="#26E0AC" stroke-width="0.716761" stroke-linecap="round" stroke-linejoin="round"/>
<path d="M193.221 215.814C193.061 215.814 192.012 215.639 191.954 215.814" stroke="#26E0AC" stroke-width="0.716761" stroke-linecap="round" stroke-linejoin="round"/>
<path d="M194.342 216.411L192.856 217.518" stroke="#26E0AC" stroke-width="0.716761" stroke-linecap="round" stroke-linejoin="round"/>
<path d="M198.872 210.031C198.872 210.031 199.441 212.536 199.528 212.944C199.615 213.352 196.964 215.756 196.964 215.756C196.964 215.756 192.682 218.072 192.856 217.562L191.036 215.974C191.036 215.974 193.148 212.158 193.439 211.517C193.73 210.876 197.663 209.361 197.663 209.361" stroke="#26E0AC" stroke-width="0.716761" stroke-linecap="round" stroke-linejoin="round"/>
<path d="M197.722 211.473C196.962 211.965 196.174 212.412 195.362 212.813L193.905 214.867" stroke="#26E0AC" stroke-width="0.716761" stroke-linecap="round" stroke-linejoin="round"/>
<path d="M206.797 205.282L208.559 203.563" stroke="#26E0AC" stroke-width="0.716761" stroke-linecap="round" stroke-linejoin="round"/>
<path d="M214.109 207.307C213.978 207.598 213.687 209.492 213.992 209.623" stroke="#26E0AC" stroke-width="0.716761" stroke-linecap="round" stroke-linejoin="round"/>
<path d="M215.347 205.355L217.255 208.181" stroke="#26E0AC" stroke-width="0.716761" stroke-linecap="round" stroke-linejoin="round"/>
<path d="M203.913 196.309C203.913 196.309 208.588 195.61 209.273 195.479C209.958 195.347 214.269 200.489 214.269 200.489C214.269 200.489 218.159 208.574 217.183 208.181L214.109 211.269C214.109 211.269 207.219 206.972 206.054 206.36C204.889 205.748 202.441 198.406 202.441 198.406" stroke="#26E0AC" stroke-width="0.716761" stroke-linecap="round" stroke-linejoin="round"/>
<path d="M206.491 198.581C207.331 200.028 208.09 201.521 208.763 203.053L212.434 205.85" stroke="#26E0AC" stroke-width="0.716761" stroke-linecap="round" stroke-linejoin="round"/>
<path d="M186.957 179.048C186.957 179.048 190.642 183.33 191.589 183.418C192.536 183.505 198.392 184.51 198.392 184.51L199.63 181.597C200.358 181.597 195.493 177.227 195.493 177.227C195.493 177.227 191.123 174.955 190.744 175.231C190.366 175.508 187.35 177.271 187.35 177.271L186.418 178.101L186.957 179.048Z" fill="white"/>
<path d="M191.764 182.485L192.463 180.839" stroke="#26E0AC" stroke-width="0.716761" stroke-linecap="round" stroke-linejoin="round"/>
<path d="M197.27 181.815C197.27 182.048 197.59 183.418 197.838 183.418" stroke="#26E0AC" stroke-width="0.716761" stroke-linecap="round" stroke-linejoin="round"/>
<path d="M197.562 180.169L199.63 181.553" stroke="#26E0AC" stroke-width="0.716761" stroke-linecap="round" stroke-linejoin="round"/>
<path d="M186.957 179.048C186.957 179.048 190.642 183.33 191.589 183.418C192.536 183.505 198.392 184.51 198.392 184.51L199.63 181.597C200.358 181.597 195.493 177.227 195.493 177.227C195.493 177.227 191.123 174.955 190.744 175.231C190.366 175.508 187.35 177.271 187.35 177.271L186.418 178.101L186.957 179.048Z" stroke="#26E0AC" stroke-width="0.716761" stroke-linecap="round" stroke-linejoin="round"/>
<path d="M189.71 178.042C190.671 178.788 191.59 179.585 192.464 180.431L195.726 181.305" stroke="#26E0AC" stroke-width="0.716761" stroke-linecap="round" stroke-linejoin="round"/>
<path d="M112.231 229.826C112.231 229.826 107.161 234.721 105.967 234.721C104.773 234.721 97.4019 235.303 97.4019 235.303L96.2074 231.487C95.2897 231.414 101.83 226.52 101.83 226.52C101.83 226.52 107.453 224.175 107.963 224.568C108.472 224.961 111.939 227.481 111.939 227.481L113.003 228.617L112.231 229.826Z" fill="white"/>
<path d="M105.865 233.541L105.166 231.415" stroke="#26E0AC" stroke-width="0.716761" stroke-linecap="round" stroke-linejoin="round"/>
<path d="M99.0331 232.084C99.0331 232.376 98.4504 234.022 98.1445 234.007" stroke="#26E0AC" stroke-width="0.716761" stroke-linecap="round" stroke-linejoin="round"/>
<path d="M98.931 230.001L96.207 231.487" stroke="#26E0AC" stroke-width="0.716761" stroke-linecap="round" stroke-linejoin="round"/>
<path d="M107.962 224.568C108.458 224.961 111.939 227.481 111.939 227.481L113.002 228.617L112.23 229.812C112.23 229.812 107.161 234.706 105.967 234.706C104.772 234.706 97.4015 235.289 97.4015 235.289L97.1685 234.561" stroke="#26E0AC" stroke-width="0.716761" stroke-linecap="round" stroke-linejoin="round"/>
<path d="M108.924 228.253C107.636 229.065 106.395 229.95 105.209 230.905L101.072 231.618" stroke="#26E0AC" stroke-width="0.716761" stroke-linecap="round" stroke-linejoin="round"/>
<path d="M274.444 254.561C274.444 254.561 279.498 259.455 280.707 259.455C281.916 259.455 289.258 260.038 289.258 260.038L290.467 256.221C291.37 256.149 284.844 251.254 284.844 251.254C284.844 251.254 279.207 248.909 278.712 249.302C278.217 249.696 274.721 252.216 274.721 252.216L273.657 253.352L274.444 254.561Z" fill="white"/>
<path d="M280.795 258.275L281.494 256.148" stroke="#26E0AC" stroke-width="0.716761" stroke-linecap="round" stroke-linejoin="round"/>
<path d="M287.568 256.818C287.568 257.11 288.151 258.77 288.457 258.741" stroke="#26E0AC" stroke-width="0.716761" stroke-linecap="round" stroke-linejoin="round"/>
<path d="M287.743 254.735L290.467 256.221" stroke="#26E0AC" stroke-width="0.716761" stroke-linecap="round" stroke-linejoin="round"/>
<path d="M278.712 249.302C278.217 249.696 274.721 252.216 274.721 252.216L273.657 253.352L274.444 254.546C274.444 254.546 279.498 259.441 280.707 259.441C281.916 259.441 289.258 260.023 289.258 260.023L289.491 259.31" stroke="#26E0AC" stroke-width="0.716761" stroke-linecap="round" stroke-linejoin="round"/>
<path d="M277.75 252.987C279.032 253.807 280.267 254.697 281.45 255.653L285.587 256.352" stroke="#26E0AC" stroke-width="0.716761" stroke-linecap="round" stroke-linejoin="round"/>
<path d="M172.551 214.313C173.935 214.313 175.056 213.191 175.056 211.808C175.056 210.424 173.935 209.302 172.551 209.302C171.167 209.302 170.045 210.424 170.045 211.808C170.045 213.191 171.167 214.313 172.551 214.313Z" fill="white" stroke="#26E0AC" stroke-width="0.716761" stroke-linecap="round" stroke-linejoin="round"/>
<path d="M173.877 217.372C175.26 217.372 176.382 216.251 176.382 214.867C176.382 213.483 175.26 212.361 173.877 212.361C172.493 212.361 171.371 213.483 171.371 214.867C171.371 216.251 172.493 217.372 173.877 217.372Z" fill="white" stroke="#26E0AC" stroke-width="0.716761" stroke-linecap="round" stroke-linejoin="round"/>
<path d="M175.945 218.232C177.329 218.232 178.45 217.11 178.45 215.726C178.45 214.342 177.329 213.221 175.945 213.221C174.561 213.221 173.439 214.342 173.439 215.726C173.439 217.11 174.561 218.232 175.945 218.232Z" fill="white" stroke="#26E0AC" stroke-width="0.716761" stroke-linecap="round" stroke-linejoin="round"/>
<path d="M181.728 217.518C181.728 218.017 181.579 218.505 181.302 218.92C181.024 219.334 180.63 219.657 180.168 219.848C179.707 220.038 179.2 220.087 178.711 219.989C178.221 219.89 177.772 219.649 177.42 219.295C177.069 218.941 176.83 218.491 176.734 218.001C176.639 217.511 176.691 217.004 176.884 216.544C177.077 216.083 177.402 215.691 177.818 215.416C178.234 215.141 178.723 214.995 179.222 214.998C179.552 214.998 179.879 215.063 180.184 215.19C180.489 215.317 180.766 215.503 180.999 215.737C181.232 215.971 181.416 216.249 181.541 216.555C181.666 216.861 181.729 217.188 181.728 217.518Z" fill="white" stroke="#26E0AC" stroke-width="0.716761" stroke-linecap="round" stroke-linejoin="round"/>
<path d="M197.911 228.53C199.295 228.53 200.417 227.409 200.417 226.025C200.417 224.641 199.295 223.52 197.911 223.52C196.527 223.52 195.406 224.641 195.406 226.025C195.406 227.409 196.527 228.53 197.911 228.53Z" stroke="#26E0AC" stroke-width="0.716761" stroke-linecap="round" stroke-linejoin="round"/>
<path d="M229.681 220.737C231.064 220.737 232.186 219.615 232.186 218.232C232.186 216.848 231.064 215.726 229.681 215.726C228.297 215.726 227.175 216.848 227.175 218.232C227.175 219.615 228.297 220.737 229.681 220.737Z" stroke="#26E0AC" stroke-width="0.716761" stroke-linecap="round" stroke-linejoin="round"/>
<path d="M143.01 256.6C144.94 256.6 146.506 255.035 146.506 253.104C146.506 251.174 144.94 249.608 143.01 249.608C141.079 249.608 139.514 251.174 139.514 253.104C139.514 255.035 141.079 256.6 143.01 256.6Z" stroke="#26E0AC" stroke-width="0.716761" stroke-linecap="round" stroke-linejoin="round"/>
<path d="M151.924 214.066C153.308 214.066 154.43 212.944 154.43 211.56C154.43 210.176 153.308 209.055 151.924 209.055C150.541 209.055 149.419 210.176 149.419 211.56C149.419 212.944 150.541 214.066 151.924 214.066Z" stroke="#26E0AC" stroke-width="0.716761" stroke-linecap="round" stroke-linejoin="round"/>
<path d="M256.352 242.237C258.656 242.908 260.661 244.347 262.033 246.316C262.455 247.049 262.969 247.724 263.563 248.326C264.694 249.012 265.889 249.587 267.131 250.045C268.412 250.92 269.315 252.246 269.661 253.759C270.006 255.271 269.769 256.858 268.996 258.202C268.171 259.526 267.026 260.62 265.666 261.384C264.307 262.147 262.777 262.556 261.217 262.572" stroke="#26E0AC" stroke-width="0.716761" stroke-linecap="round" stroke-linejoin="round"/>
<path d="M210.22 260.125C210.933 260.809 211.784 261.332 212.717 261.657C213.65 261.983 214.641 262.104 215.625 262.013C216.609 261.922 217.561 261.62 218.418 261.129C219.275 260.637 220.016 259.967 220.591 259.164C223.106 260.57 225.897 261.41 228.77 261.627C231.643 261.843 234.529 261.43 237.226 260.417C238.119 260.075 238.891 259.479 239.448 258.702C240.005 257.925 240.321 257.002 240.358 256.047V256.047C242.439 257.251 244.865 257.718 247.245 257.372C249.624 257.025 251.817 255.886 253.468 254.138C254.843 254.016 256.115 253.358 257.009 252.306C257.902 251.254 258.347 249.892 258.246 248.516" stroke="#26E0AC" stroke-width="0.716761" stroke-linecap="round" stroke-linejoin="round"/>
<path d="M139.091 235.915C138.406 238.144 140.082 240.518 142.194 241.465C144.395 242.229 146.748 242.454 149.055 242.12C149.539 243.028 150.335 243.73 151.295 244.099C152.255 244.468 153.316 244.479 154.284 244.131" stroke="#26E0AC" stroke-width="0.716761" stroke-linecap="round" stroke-linejoin="round"/>
<path d="M99.0332 240.854C96.79 240.854 95.2022 243.505 95.8286 245.646C96.2281 246.693 96.9166 247.604 97.814 248.275C98.7115 248.945 99.7809 249.347 100.898 249.433C103.138 249.547 105.373 249.133 107.424 248.224C109.458 247.307 111.588 246.618 113.775 246.17C114.357 248.545 117.038 249.929 119.485 249.885C121.933 249.65 124.298 248.869 126.404 247.598C127.415 249.109 128.954 250.188 130.719 250.622C132.485 251.056 134.349 250.813 135.945 249.943" stroke="#26E0AC" stroke-width="0.716761" stroke-linecap="round" stroke-linejoin="round"/>
<path d="M93.7602 254.386C93.0275 254.855 92.409 255.482 91.9503 256.221C91.4915 256.96 91.2041 257.793 91.1091 258.657C91.0141 259.522 91.1139 260.397 91.4013 261.218C91.6886 262.039 92.1562 262.786 92.7697 263.403C95.0712 265.675 98.8586 265.602 101.947 264.612C104.943 263.647 107.675 262.001 109.929 259.805C111.548 258.367 112.662 256.447 113.105 254.328C113.295 253.27 113.149 252.18 112.686 251.21C112.224 250.24 111.468 249.44 110.526 248.923" stroke="#26E0AC" stroke-width="0.716761" stroke-linecap="round" stroke-linejoin="round"/>
<path d="M109.419 261.436C113.469 261.837 117.551 261.132 121.232 259.397C123.053 258.581 124.708 257.435 126.112 256.017C126.839 255.396 127.359 254.569 127.603 253.645C127.848 252.722 127.805 251.745 127.482 250.846" stroke="#26E0AC" stroke-width="0.716761" stroke-linecap="round" stroke-linejoin="round"/>
<path d="M107.555 263.956C107.388 264.187 107.298 264.465 107.298 264.75C107.298 265.035 107.388 265.313 107.555 265.544C108.033 266.323 108.733 266.942 109.565 267.321C110.822 267.984 112.222 268.331 113.644 268.331C115.065 268.331 116.465 267.984 117.722 267.321" stroke="#26E0AC" stroke-width="0.716761" stroke-linecap="round" stroke-linejoin="round"/>
<path d="M95.1003 266.301C94.8252 266.535 94.6001 266.822 94.4387 267.146C94.2773 267.469 94.1829 267.821 94.1611 268.182C94.1394 268.542 94.1907 268.903 94.312 269.244C94.4334 269.584 94.6222 269.896 94.8673 270.161C96.0461 271.423 97.5632 272.318 99.2372 272.74C104.656 273.716 108.851 272.492 114.751 269.448" stroke="#26E0AC" stroke-width="0.716761" stroke-linecap="round" stroke-linejoin="round"/>
<path d="M117.606 260.882L118.013 261.232C117.712 261.658 117.55 262.167 117.55 262.689C117.55 263.21 117.712 263.719 118.013 264.145C118.681 264.975 119.602 265.563 120.635 265.82C123.154 266.406 125.766 266.475 128.312 266.024L127.409 266.112" stroke="#26E0AC" stroke-width="0.716761" stroke-linecap="round" stroke-linejoin="round"/>
<path d="M115.435 274.138C115.362 275.172 116.455 275.872 117.431 276.163C119.153 276.675 120.983 276.7 122.718 276.236" stroke="#26E0AC" stroke-width="0.716761" stroke-linecap="round" stroke-linejoin="round"/>
<path d="M116.877 270.992C117.562 273.118 119.703 273.57 121.626 273.905C123.884 274.207 126.182 274.008 128.355 273.322" stroke="#26E0AC" stroke-width="0.716761" stroke-linecap="round" stroke-linejoin="round"/>
<path d="M131.531 272.987C133.454 274.007 136.6 274.444 141.626 273.774C144.278 273.456 146.734 272.213 148.56 270.263C149.202 269.593 149.691 268.791 149.992 267.913C150.294 267.036 150.402 266.103 150.308 265.179C150.185 264.258 149.751 263.407 149.078 262.766C148.405 262.124 147.534 261.732 146.608 261.654" stroke="#26E0AC" stroke-width="0.716761" stroke-linecap="round" stroke-linejoin="round"/>
<path d="M128.953 270.001C129.154 270.679 129.508 271.302 129.987 271.822" stroke="#26E0AC" stroke-width="0.716761" stroke-linecap="round" stroke-linejoin="round"/>
<path d="M135.333 262.004C133.102 262.732 131.096 264.021 129.507 265.748C128.911 266.688 128.654 267.803 128.778 268.909" stroke="#26E0AC" stroke-width="0.716761" stroke-linecap="round" stroke-linejoin="round"/>
<path d="M148.982 261.174C150.075 261.585 150.967 262.402 151.472 263.456C151.977 264.509 152.055 265.716 151.691 266.826" stroke="#26E0AC" stroke-width="0.716761" stroke-linecap="round" stroke-linejoin="round"/>
<path d="M151.007 267.321C154.25 267.46 157.403 268.438 160.154 270.161C160.805 270.491 161.383 270.947 161.855 271.502C162.328 272.057 162.686 272.701 162.908 273.395C163.016 274.263 162.862 275.143 162.464 275.922C162.067 276.701 161.445 277.343 160.679 277.765C159.126 278.558 157.411 278.982 155.668 279.003C153.179 279.281 150.662 279.163 148.21 278.654C145.736 278.132 143.536 276.729 142.019 274.706" stroke="#26E0AC" stroke-width="0.716761" stroke-linecap="round" stroke-linejoin="round"/>
<path d="M145.297 274.867C151.925 278.712 158.407 276.848 159.995 275.755" stroke="#26E0AC" stroke-width="0.716761" stroke-linecap="round" stroke-linejoin="round"/>
<path d="M139.893 275.274C139.276 275.515 138.728 275.904 138.297 276.406C137.865 276.909 137.565 277.51 137.421 278.156C137.277 278.803 137.294 279.474 137.471 280.112C137.648 280.75 137.98 281.335 138.436 281.815C139.349 282.654 140.48 283.219 141.699 283.446C144.526 284.145 147.481 284.145 150.308 283.446" stroke="#26E0AC" stroke-width="0.716761" stroke-linecap="round" stroke-linejoin="round"/>
<path d="M150.016 281.494C150.829 282.636 151.989 283.484 153.323 283.912C154.262 284.292 155.275 284.451 156.285 284.378C157.295 284.304 158.275 284.001 159.149 283.49C159.988 282.951 160.618 282.141 160.933 281.195C161.248 280.249 161.23 279.224 160.883 278.29" stroke="#26E0AC" stroke-width="0.716761" stroke-linecap="round" stroke-linejoin="round"/>
<path d="M152.74 281.698C153.503 282.35 154.448 282.75 155.447 282.844C156.445 282.938 157.449 282.721 158.319 282.223" stroke="#26E0AC" stroke-width="0.716761" stroke-linecap="round" stroke-linejoin="round"/>
<path d="M139.179 278.275C138.596 280.271 140.796 281.756 143.855 282.281" stroke="#26E0AC" stroke-width="0.716761" stroke-linecap="round" stroke-linejoin="round"/>
<path d="M120.606 263.068C121.655 264.656 126.142 264.219 129.507 263.753" stroke="#26E0AC" stroke-width="0.716761" stroke-linecap="round" stroke-linejoin="round"/>
<path d="M117.285 269.433C117.56 268.498 118.14 267.683 118.932 267.115C119.723 266.548 120.682 266.261 121.655 266.301H121.276" stroke="#26E0AC" stroke-width="0.716761" stroke-linecap="round" stroke-linejoin="round"/>
<path d="M118.844 269.652C118.811 269.967 118.873 270.284 119.021 270.564C119.168 270.844 119.396 271.074 119.674 271.225C120.239 271.513 120.862 271.667 121.495 271.677C123.611 271.864 125.742 271.81 127.846 271.516" stroke="#26E0AC" stroke-width="0.716761" stroke-linecap="round" stroke-linejoin="round"/>
<path d="M93.4834 261.567C96.4261 262.319 99.5296 262.136 102.364 261.045C105.198 259.954 107.623 258.009 109.303 255.479" stroke="#26E0AC" stroke-width="0.716761" stroke-linecap="round" stroke-linejoin="round"/>
<path d="M96.5425 268.632C97.0086 269.695 99.0625 270.22 100.213 270.409C102.801 271.059 105.531 270.834 107.977 269.768" stroke="#26E0AC" stroke-width="0.716761" stroke-linecap="round" stroke-linejoin="round"/>
<path d="M109.55 264.655C110.381 266.112 113.454 266.855 115.493 266.185" stroke="#26E0AC" stroke-width="0.716761" stroke-linecap="round" stroke-linejoin="round"/>
<path d="M112.697 258.552C117.533 258.945 124.35 255.114 125.137 252.376" stroke="#26E0AC" stroke-width="0.716761" stroke-linecap="round" stroke-linejoin="round"/>
<path d="M158.13 267.773C157.189 267.197 156.416 266.385 155.887 265.418C155.358 264.45 155.093 263.361 155.116 262.258C155.14 261.156 155.452 260.079 156.022 259.135C156.591 258.19 157.399 257.412 158.363 256.877C161.241 255.473 164.46 254.917 167.642 255.275C169.172 255.361 170.667 255.77 172.028 256.476C173.389 257.181 174.585 258.167 175.537 259.368C176.46 260.595 176.978 262.079 177.019 263.614C177.061 265.148 176.624 266.658 175.77 267.933" stroke="#26E0AC" stroke-width="0.716761" stroke-linecap="round" stroke-linejoin="round"/>
<path d="M156.629 260.941C156.629 266.214 161.946 267.467 165.559 267.642C169.171 267.816 173.294 267.394 175.508 262.937" stroke="#26E0AC" stroke-width="0.716761" stroke-linecap="round" stroke-linejoin="round"/>
<path d="M162.034 269.36C165.725 270.715 169.777 270.715 173.468 269.36" stroke="#26E0AC" stroke-width="0.716761" stroke-linecap="round" stroke-linejoin="round"/>
<path d="M173.323 270.569C173.697 270.702 174.039 270.912 174.326 271.185C174.614 271.459 174.841 271.79 174.992 272.157C175.143 272.523 175.215 272.918 175.204 273.315C175.192 273.711 175.097 274.101 174.925 274.459" stroke="#26E0AC" stroke-width="0.716761" stroke-linecap="round" stroke-linejoin="round"/>
<path d="M163.024 276.818C165.297 277.896 166.841 277.896 170.497 277.474" stroke="#26E0AC" stroke-width="0.716761" stroke-linecap="round" stroke-linejoin="round"/>
<path d="M164.583 275.362C165.915 275.921 167.37 276.118 168.803 275.934C170.235 275.75 171.593 275.191 172.74 274.313" stroke="#26E0AC" stroke-width="0.716761" stroke-linecap="round" stroke-linejoin="round"/>
<path d="M178.028 273.191C179.891 274.223 182.066 274.539 184.146 274.08" stroke="#26E0AC" stroke-width="0.716761" stroke-linecap="round" stroke-linejoin="round"/>
<path d="M175.435 269.026C175.584 268.664 175.846 268.361 176.182 268.161C176.518 267.962 176.91 267.877 177.299 267.919" stroke="#26E0AC" stroke-width="0.716761" stroke-linecap="round" stroke-linejoin="round"/>
<path d="M177.358 265.922C177.955 267.422 179.003 268.698 180.358 269.575C181.712 270.452 183.306 270.886 184.918 270.817" stroke="#26E0AC" stroke-width="0.716761" stroke-linecap="round" stroke-linejoin="round"/>
<path d="M187.03 270.992C189.607 271.828 192.366 271.929 194.998 271.283C196.304 270.944 197.505 270.284 198.492 269.363C199.479 268.442 200.22 267.29 200.65 266.01" stroke="#26E0AC" stroke-width="0.716761" stroke-linecap="round" stroke-linejoin="round"/>
<path d="M178.639 264.014C180.644 265.691 183.143 266.664 185.754 266.782C188.364 266.9 190.942 266.158 193.089 264.67C194.55 263.669 195.649 262.223 196.221 260.548C196.496 259.711 196.552 258.818 196.384 257.953C196.215 257.089 195.828 256.282 195.26 255.61C194.502 254.943 193.617 254.438 192.658 254.125C191.699 253.812 190.686 253.697 189.681 253.789C187.402 253.788 185.133 254.097 182.937 254.706C181.347 255.064 179.877 255.827 178.669 256.921C178.074 257.481 177.653 258.201 177.457 258.994C177.261 259.787 177.297 260.62 177.561 261.393" stroke="#26E0AC" stroke-width="0.716761" stroke-linecap="round" stroke-linejoin="round"/>
<path d="M129.871 267.117C130.147 269.113 132.187 270.366 134.139 270.919C136.574 271.578 139.138 271.609 141.588 271.007C144.039 270.406 146.297 269.193 148.152 267.481" stroke="#26E0AC" stroke-width="0.716761" stroke-linecap="round" stroke-linejoin="round"/>
<path d="M187.496 269.681C191.24 270.7 197.197 270.365 199.688 265.311" stroke="#26E0AC" stroke-width="0.716761" stroke-linecap="round" stroke-linejoin="round"/>
<path d="M179.222 261.946C181.561 263.522 184.381 264.223 187.186 263.927C189.99 263.632 192.601 262.358 194.561 260.329" stroke="#26E0AC" stroke-width="0.716761" stroke-linecap="round" stroke-linejoin="round"/>
<path d="M197.474 260.795C197.922 260.776 198.37 260.845 198.791 261C199.212 261.154 199.598 261.391 199.928 261.696C200.257 262 200.522 262.367 200.709 262.775C200.895 263.183 200.999 263.624 201.014 264.073C201.833 264.07 202.628 264.349 203.266 264.864C203.903 265.378 204.344 266.096 204.515 266.897C204.686 267.698 204.576 268.534 204.204 269.264C203.831 269.993 203.219 270.573 202.47 270.904H202.893" stroke="#26E0AC" stroke-width="0.716761" stroke-linecap="round" stroke-linejoin="round"/>
<path d="M257.343 234.24C257.419 234.997 257.328 235.761 257.077 236.478C256.825 237.195 256.419 237.849 255.886 238.392C253.861 240.387 250.54 240.329 247.831 239.469C245.205 238.62 242.812 237.174 240.839 235.245C239.424 233.986 238.449 232.306 238.057 230.453C237.886 229.524 238.012 228.566 238.417 227.713C238.822 226.86 239.486 226.157 240.315 225.704" stroke="#26E0AC" stroke-width="0.716761" stroke-linecap="round" stroke-linejoin="round"/>
<path d="M241.261 236.673C237.71 237.037 234.127 236.417 230.905 234.881C229.306 234.189 227.853 233.201 226.622 231.968C225.986 231.424 225.53 230.699 225.314 229.89C225.098 229.082 225.132 228.226 225.413 227.438" stroke="#26E0AC" stroke-width="0.716761" stroke-linecap="round" stroke-linejoin="round"/>
<path d="M242.893 238.945C243.051 239.155 243.137 239.411 243.137 239.674C243.137 239.936 243.051 240.192 242.893 240.402C242.477 241.079 241.868 241.617 241.145 241.946C240.041 242.524 238.814 242.826 237.569 242.826C236.323 242.826 235.096 242.524 233.993 241.946" stroke="#26E0AC" stroke-width="0.716761" stroke-linecap="round" stroke-linejoin="round"/>
<path d="M253.803 240.94C254.047 241.143 254.247 241.393 254.391 241.676C254.535 241.958 254.619 242.267 254.64 242.583C254.66 242.899 254.616 243.217 254.51 243.515C254.403 243.814 254.237 244.088 254.022 244.32C252.986 245.43 251.65 246.215 250.176 246.578C245.427 247.437 241.727 246.374 236.571 243.664" stroke="#26E0AC" stroke-width="0.716761" stroke-linecap="round" stroke-linejoin="round"/>
<path d="M234.08 236.192L233.716 236.498C233.991 236.872 234.14 237.323 234.14 237.787C234.14 238.251 233.991 238.703 233.716 239.077C233.132 239.798 232.329 240.309 231.429 240.533C229.215 241.043 226.922 241.103 224.685 240.708L225.486 240.795" stroke="#26E0AC" stroke-width="0.716761" stroke-linecap="round" stroke-linejoin="round"/>
<path d="M238.348 247.03C238.348 247.933 237.445 248.486 236.585 248.807C235.076 249.236 233.477 249.236 231.968 248.807" stroke="#26E0AC" stroke-width="0.716761" stroke-linecap="round" stroke-linejoin="round"/>
<path d="M234.721 245.005C234.123 246.869 232.244 247.263 230.54 247.51C228.56 247.773 226.546 247.599 224.641 247" stroke="#26E0AC" stroke-width="0.716761" stroke-linecap="round" stroke-linejoin="round"/>
<path d="M221.873 246.811C220.183 247.7 217.416 248.122 213.017 247.496C210.706 247.203 208.57 246.116 206.972 244.422C206.422 243.825 206.007 243.117 205.756 242.345C205.505 241.573 205.422 240.757 205.515 239.95C205.625 239.143 206.006 238.397 206.597 237.836C207.187 237.274 207.951 236.931 208.763 236.862" stroke="#26E0AC" stroke-width="0.716761" stroke-linecap="round" stroke-linejoin="round"/>
<path d="M218.479 237.168C220.439 237.808 222.203 238.936 223.606 240.445C224.126 241.275 224.351 242.255 224.247 243.228" stroke="#26E0AC" stroke-width="0.716761" stroke-linecap="round" stroke-linejoin="round"/>
<path d="M206.578 236.44C205.616 236.799 204.83 237.517 204.387 238.444C203.944 239.37 203.879 240.433 204.204 241.407" stroke="#26E0AC" stroke-width="0.716761" stroke-linecap="round" stroke-linejoin="round"/>
<path d="M204.801 241.859C201.956 241.982 199.19 242.84 196.775 244.35C196.205 244.641 195.698 245.042 195.283 245.529C194.868 246.016 194.553 246.581 194.357 247.19C194.261 247.949 194.398 248.718 194.749 249.397C195.1 250.076 195.649 250.632 196.323 250.992C197.676 251.69 199.172 252.064 200.693 252.085C202.876 252.334 205.084 252.23 207.234 251.779C209.399 251.314 211.323 250.082 212.653 248.312" stroke="#26E0AC" stroke-width="0.716761" stroke-linecap="round" stroke-linejoin="round"/>
<path d="M209.739 248.457C203.913 251.822 198.246 250.19 196.862 249.229" stroke="#26E0AC" stroke-width="0.716761" stroke-linecap="round" stroke-linejoin="round"/>
<path d="M214.546 248.807C215.078 249.029 215.55 249.375 215.922 249.816C216.294 250.257 216.556 250.779 216.687 251.341C216.807 251.909 216.788 252.497 216.63 253.055C216.473 253.613 216.183 254.125 215.784 254.546C214.967 255.293 213.958 255.797 212.871 256.003C210.393 256.614 207.803 256.614 205.325 256.003" stroke="#26E0AC" stroke-width="0.716761" stroke-linecap="round" stroke-linejoin="round"/>
<path d="M205.704 254.269C204.991 255.274 203.967 256.016 202.791 256.382C201.975 256.705 201.097 256.841 200.222 256.778C199.347 256.715 198.497 256.455 197.736 256.017C196.993 255.552 196.434 254.843 196.155 254.012C195.876 253.18 195.895 252.278 196.207 251.458" stroke="#26E0AC" stroke-width="0.716761" stroke-linecap="round" stroke-linejoin="round"/>
<path d="M231.764 238.188C230.004 238.893 228.092 239.129 226.214 238.872" stroke="#26E0AC" stroke-width="0.716761" stroke-linecap="round" stroke-linejoin="round"/>
<path d="M234.357 243.694C234.113 242.876 233.604 242.162 232.911 241.664C232.218 241.166 231.379 240.911 230.526 240.941H230.861" stroke="#26E0AC" stroke-width="0.716761" stroke-linecap="round" stroke-linejoin="round"/>
<path d="M232.128 243.913C232.151 244.132 232.108 244.353 232.004 244.548C231.9 244.743 231.74 244.902 231.545 245.005C231.153 245.207 230.719 245.316 230.278 245.326C228.822 245.449 227.356 245.41 225.908 245.209" stroke="#26E0AC" stroke-width="0.716761" stroke-linecap="round" stroke-linejoin="round"/>
<path d="M255.216 236.789C252.637 237.449 249.917 237.29 247.432 236.335C244.948 235.379 242.822 233.675 241.349 231.458" stroke="#26E0AC" stroke-width="0.716761" stroke-linecap="round" stroke-linejoin="round"/>
<path d="M252.551 242.995C252.128 243.913 250.322 244.452 249.331 244.539C247.06 245.107 244.664 244.913 242.514 243.986" stroke="#26E0AC" stroke-width="0.716761" stroke-linecap="round" stroke-linejoin="round"/>
<path d="M241.145 239.499C240.402 240.81 237.721 241.436 235.93 240.839" stroke="#26E0AC" stroke-width="0.716761" stroke-linecap="round" stroke-linejoin="round"/>
<path d="M238.377 234.138C234.138 234.488 228.181 231.137 227.467 228.734" stroke="#26E0AC" stroke-width="0.716761" stroke-linecap="round" stroke-linejoin="round"/>
<path d="M198.552 242.237C199.376 241.73 200.052 241.016 200.515 240.166C200.978 239.317 201.21 238.361 201.19 237.394C201.169 236.426 200.896 235.481 200.398 234.652C199.899 233.823 199.193 233.139 198.348 232.667C195.82 231.444 192.996 230.964 190.205 231.283C188.864 231.355 187.553 231.712 186.36 232.33C185.167 232.948 184.119 233.813 183.286 234.866C182.479 235.944 182.026 237.246 181.99 238.592C181.953 239.938 182.335 241.263 183.082 242.383" stroke="#26E0AC" stroke-width="0.716761" stroke-linecap="round" stroke-linejoin="round"/>
<path d="M199.863 236.25C199.863 240.868 195.202 241.975 192.041 242.077C188.88 242.179 185.253 241.859 183.301 237.94" stroke="#26E0AC" stroke-width="0.716761" stroke-linecap="round" stroke-linejoin="round"/>
<path d="M195.173 243.621C191.937 244.806 188.386 244.806 185.151 243.621" stroke="#26E0AC" stroke-width="0.716761" stroke-linecap="round" stroke-linejoin="round"/>
<path d="M185.18 244.685C184.846 244.793 184.54 244.972 184.28 245.209C184.021 245.446 183.816 245.735 183.678 246.058C183.54 246.381 183.473 246.73 183.481 247.081C183.488 247.432 183.571 247.777 183.724 248.093" stroke="#26E0AC" stroke-width="0.716761" stroke-linecap="round" stroke-linejoin="round"/>
<path d="M194.27 250.176C192.274 251.123 190.905 251.123 187.7 250.744" stroke="#26E0AC" stroke-width="0.716761" stroke-linecap="round" stroke-linejoin="round"/>
<path d="M191.823 248.836C190.618 249.23 189.331 249.303 188.089 249.048C186.848 248.792 185.694 248.217 184.743 247.379" stroke="#26E0AC" stroke-width="0.716761" stroke-linecap="round" stroke-linejoin="round"/>
<path d="M182.325 245.34C180.423 246.363 178.275 246.837 176.12 246.71" stroke="#26E0AC" stroke-width="0.716761" stroke-linecap="round" stroke-linejoin="round"/>
<path d="M181.684 240.621C181.158 241.932 180.238 243.049 179.051 243.816C177.864 244.583 176.468 244.963 175.056 244.903" stroke="#26E0AC" stroke-width="0.716761" stroke-linecap="round" stroke-linejoin="round"/>
<path d="M173.702 243.519C171.666 244.561 169.383 245.019 167.103 244.845C165.97 244.736 164.882 244.348 163.936 243.715C162.99 243.082 162.217 242.224 161.684 241.218" stroke="#26E0AC" stroke-width="0.716761" stroke-linecap="round" stroke-linejoin="round"/>
<path d="M121.743 220.373C121.821 221.103 122.115 221.794 122.587 222.357C123.059 222.92 123.688 223.329 124.394 223.534C125.815 223.932 127.303 224.031 128.764 223.825C127.832 224.318 127.117 225.139 126.756 226.129C126.395 227.12 126.415 228.209 126.812 229.185C127.256 230.139 127.912 230.979 128.73 231.64C129.548 232.301 130.506 232.767 131.531 233.002C133.588 233.451 135.704 233.559 137.795 233.322" stroke="#26E0AC" stroke-width="0.716761" stroke-linecap="round" stroke-linejoin="round"/>
<path d="M180.606 238.945C178.853 240.419 176.663 241.274 174.375 241.379C172.088 241.485 169.829 240.834 167.947 239.528C166.664 238.653 165.698 237.385 165.194 235.915C164.944 235.176 164.891 234.385 165.039 233.619C165.187 232.853 165.532 232.138 166.039 231.545C166.701 230.957 167.478 230.511 168.32 230.235C169.162 229.959 170.052 229.86 170.934 229.943C172.903 229.945 174.863 230.215 176.76 230.744C178.16 231.06 179.455 231.732 180.518 232.696C181.038 233.185 181.405 233.814 181.576 234.506C181.746 235.199 181.713 235.926 181.48 236.6" stroke="#26E0AC" stroke-width="0.716761" stroke-linecap="round" stroke-linejoin="round"/>
<path d="M221.931 242.062C221.742 243.519 220.271 244.408 218.872 244.801C217.118 245.278 215.271 245.301 213.505 244.868C211.739 244.435 210.112 243.56 208.778 242.325" stroke="#26E0AC" stroke-width="0.716761" stroke-linecap="round" stroke-linejoin="round"/>
<path d="M180.052 237.125C178.001 238.51 175.525 239.124 173.063 238.857C170.602 238.591 168.315 237.461 166.607 235.668" stroke="#26E0AC" stroke-width="0.716761" stroke-linecap="round" stroke-linejoin="round"/>
<path d="M164.059 236.163C163.66 236.137 163.261 236.193 162.885 236.328C162.51 236.463 162.166 236.673 161.875 236.946C161.584 237.219 161.352 237.549 161.194 237.916C161.036 238.282 160.955 238.677 160.956 239.076C160.238 239.078 159.542 239.328 158.987 239.784C158.432 240.239 158.051 240.872 157.909 241.576C157.767 242.28 157.872 243.012 158.207 243.647C158.542 244.282 159.086 244.783 159.747 245.063H159.368" stroke="#26E0AC" stroke-width="0.716761" stroke-linecap="round" stroke-linejoin="round"/>
<path d="M92.085 187.19C96.2364 185.267 100.242 186.505 102.282 190.628C105.107 196.454 105.107 196.454 107.103 205.107C107.307 189.695 112.464 183.111 122.107 178.304C108.997 182.164 106.579 167.117 106.579 167.117C106.579 167.117 104.146 176.717 101.801 179.251C98.9565 182.346 95.6849 185.02 92.085 187.19Z" fill="white"/>
<path d="M210.643 170.482C211.209 170.163 211.837 169.967 212.485 169.906C213.132 169.845 213.785 169.921 214.402 170.128C215.018 170.335 215.584 170.67 216.063 171.11C216.543 171.55 216.924 172.085 217.183 172.682C219.004 176.396 219.004 176.396 220.286 181.99C220.417 172.099 223.723 167.86 229.914 164.772C221.451 167.263 219.936 157.605 219.936 157.605C219.936 157.605 218.377 163.753 216.877 165.384C215.052 167.372 212.953 169.088 210.643 170.482Z" fill="white"/>
<path d="M68.5308 287.613C69.0385 287.331 69.5995 287.16 70.1776 287.109C70.7557 287.058 71.3381 287.129 71.8871 287.317C72.4362 287.505 72.9397 287.806 73.3652 288.201C73.7907 288.595 74.1287 289.075 74.3574 289.608C75.777 292.21 76.7332 295.04 77.1833 297.969C77.2999 289.069 80.2714 285.267 85.8504 282.485C78.2321 284.714 76.8774 276.018 76.8774 276.018C76.8774 276.018 75.4208 281.567 74.1243 283.039C72.4814 284.816 70.5987 286.355 68.5308 287.613Z" fill="white"/>
<path d="M286.942 274.822C287.41 274.56 287.928 274.399 288.462 274.35C288.996 274.3 289.534 274.363 290.042 274.535C290.55 274.706 291.016 274.983 291.411 275.346C291.805 275.709 292.119 276.151 292.332 276.643C293.615 279.044 294.482 281.644 294.896 284.334C295.012 276.163 297.809 272.681 302.864 270.117C295.872 272.157 294.619 264.174 294.619 264.174C294.619 264.174 293.337 269.273 292.084 270.613C290.579 272.254 288.848 273.671 286.942 274.822Z" fill="white"/>
<path d="M174.779 324.757C175.599 324.294 176.507 324.009 177.444 323.92C178.381 323.831 179.326 323.941 180.218 324.242C181.11 324.543 181.929 325.028 182.62 325.667C183.312 326.305 183.862 327.082 184.233 327.947C186.87 333.322 186.87 333.322 188.72 341.421C188.909 327.088 193.701 321.028 202.674 316.498C190.424 320.096 188.239 306.097 188.239 306.097C188.239 306.097 185.981 315.026 183.796 317.386C181.157 320.26 178.121 322.742 174.779 324.757Z" fill="white"/>
<path d="M156.964 153.483C161.334 151.488 165.442 152.769 167.54 157.052C170.453 163.053 170.453 163.053 172.551 172.099C172.769 156.076 178.115 149.244 188.137 144.248C174.459 148.268 171.997 132.595 171.997 132.595C171.997 132.595 169.477 142.573 167.044 145.209C164.094 148.431 160.7 151.217 156.964 153.483Z" fill="white"/>
<path d="M294.779 96.0903L273.162 113.41" stroke="#263238" stroke-linecap="round" stroke-linejoin="round"/>
<path d="M303.679 88.9531L297.794 93.6727" stroke="#263238" stroke-linecap="round" stroke-linejoin="round"/>
<path d="M269.768 82.1504L252.682 100.679" stroke="#263238" stroke-linecap="round" stroke-linejoin="round"/>
<path d="M256.483 49.813L232.215 87.9629" stroke="#263238" stroke-linecap="round" stroke-linejoin="round"/>
<path d="M218.756 57.3438L211.735 75.2461" stroke="#263238" stroke-linecap="round" stroke-linejoin="round"/>
<path d="M222.354 48.123L220.009 54.1099" stroke="#263238" stroke-linecap="round" stroke-linejoin="round"/>
<path d="M195.857 38.0718L191.269 62.5291" stroke="#263238" stroke-linecap="round" stroke-linejoin="round"/>
<path d="M196.833 32.9443L195.857 38.0718" stroke="#263238" stroke-linecap="round" stroke-linejoin="round"/>
<path d="M171.167 13.4692L170.788 49.8129" stroke="#263238" stroke-linecap="round" stroke-linejoin="round"/>
<path d="M171.298 1L171.225 7.80262" stroke="#263238" stroke-linecap="round" stroke-linejoin="round"/>
<path d="M27.7588 149.142L41.6262 153.789" stroke="#263238" stroke-linecap="round" stroke-linejoin="round"/>
<path d="M21.0435 146.899L24.4666 148.05" stroke="#263238" stroke-linecap="round" stroke-linejoin="round"/>
<path d="M1 140.184L14.2702 144.641" stroke="#263238" stroke-linecap="round" stroke-linejoin="round"/>
<path d="M41.6406 126.375L55.508 134.663" stroke="#263238" stroke-linecap="round" stroke-linejoin="round"/>
<path d="M27.7588 118.086L37.2708 123.767" stroke="#263238" stroke-linecap="round" stroke-linejoin="round"/>
<path d="M52.3765 91.415L75.9161 111.473" stroke="#263238" stroke-linecap="round" stroke-linejoin="round"/>
<path d="M39.8052 80.708L47.0448 86.8697" stroke="#263238" stroke-linecap="round" stroke-linejoin="round"/>
<path d="M80.9707 70.8325L98.3632 92.7261" stroke="#263238" stroke-linecap="round" stroke-linejoin="round"/>
<path d="M121.291 72.3906L123.534 76.8917" stroke="#263238" stroke-linecap="round" stroke-linejoin="round"/>
<path d="M104.233 38.0718L117.547 64.8597" stroke="#263238" stroke-linecap="round" stroke-linejoin="round"/>
<path d="M137.708 29.8711L144.729 57.0815" stroke="#263238" stroke-linecap="round" stroke-linejoin="round"/>
</svg>
