<svg width="75" height="81" viewBox="0 0 75 81" fill="none" xmlns="http://www.w3.org/2000/svg">
<path d="M37.5002 13.7708V23.5417M37.5002 13.7708C37.5002 11.8384 38.0732 9.94926 39.1469 8.34245C40.2205 6.73565 41.7465 5.4833 43.5319 4.74376C45.3173 4.00423 47.2818 3.81074 49.1772 4.18775C51.0726 4.56476 52.8136 5.49534 54.18 6.86182C55.5465 8.22829 56.4771 9.96929 56.8541 11.8646C57.2311 13.76 57.0376 15.7246 56.2981 17.51C55.5585 19.2954 54.3062 20.8214 52.6994 21.895C51.0926 22.9686 49.2035 23.5417 47.271 23.5417H37.5002M37.5002 13.7708C37.5002 11.8384 36.9271 9.94926 35.8535 8.34245C34.7799 6.73565 33.2539 5.4833 31.4685 4.74376C29.6831 4.00423 27.7185 3.81074 25.8231 4.18775C23.9278 4.56476 22.1868 5.49534 20.8203 6.86182C19.4538 8.22829 18.5233 9.96929 18.1462 11.8646C17.7692 13.76 17.9627 15.7246 18.7023 17.51C19.4418 19.2954 20.6941 20.8214 22.301 21.895C23.9078 22.9686 25.7968 23.5417 27.7293 23.5417H37.5002" stroke="#8083FF" stroke-width="8" stroke-miterlimit="10" stroke-linecap="round"/>
<path d="M65.4167 23.5415H9.58333C6.49974 23.5415 4 26.0412 4 29.1248V37.4998C4 40.5834 6.49974 43.0832 9.58333 43.0832H65.4167C68.5003 43.0832 71 40.5834 71 37.4998V29.1248C71 26.0412 68.5003 23.5415 65.4167 23.5415Z" stroke="#8083FF" stroke-width="8" stroke-linecap="round" stroke-linejoin="round"/>
<path d="M37.4997 23.5415V76.5832M65.4163 43.0832V68.2082C65.4163 70.4294 64.534 72.5596 62.9634 74.1302C61.3927 75.7008 59.2625 76.5832 57.0413 76.5832H17.958C15.7368 76.5832 13.6066 75.7008 12.036 74.1302C10.4654 72.5596 9.58301 70.4294 9.58301 68.2082V43.0832H65.4163Z" stroke="#8083FF" stroke-width="8" stroke-linecap="round" stroke-linejoin="round"/>
</svg>
